<svg width="32" height="32" viewBox="0 0 32 32" fill="none" xmlns="http://www.w3.org/2000/svg">
<circle cx="16" cy="16" r="16" fill="#CDFB68"/>
<path fill-rule="evenodd" clip-rule="evenodd" d="M4 16.3989C4 9.99883 9.36404 4.80835 15.9834 4.80078V8.99178C11.7561 8.99746 8.33445 12.312 8.33445 16.3989C8.33445 20.4858 11.7658 23.8098 16.001 23.8098C20.2362 23.8098 23.6636 20.5236 23.6636 16.3724L28 16.3762C28 22.8066 22.6301 28.0008 16.001 28.0008C9.37183 28.0008 4 22.8046 4 16.3989ZM10.7048 16.3987C10.7048 13.5574 13.091 11.2537 16.0279 11.2537C18.965 11.2537 21.3531 13.5574 21.3531 16.3987C21.3531 19.2401 18.9669 21.5438 16.0279 21.5438C13.089 21.5438 10.7048 19.242 10.7048 16.3987ZM22.7699 6.93251C21.0863 6.93251 19.72 8.2519 19.72 9.88173C19.72 11.5097 21.0844 12.8328 22.7699 12.8328C24.4554 12.8328 25.8217 11.5116 25.8217 9.88173C25.8217 8.2519 24.4535 6.93251 22.7699 6.93251Z" fill="#16292C"/>
</svg>
