<svg width="32" height="32" viewBox="0 0 32 32" fill="none" xmlns="http://www.w3.org/2000/svg">
<path fill-rule="evenodd" clip-rule="evenodd" d="M11.7698 0C8.9429 0.7462 6.36499 2.2298 4.29974 4.29901C2.22883 6.36091 0.744696 8.93718 0 11.7629V2.69431C0.00130426 1.98099 0.284956 1.29719 0.78897 0.792336C1.29299 0.287478 1.97638 0.0026168 2.68981 0H11.7698ZM32 11.7629C31.256 8.93799 29.7737 6.36193 27.7051 4.29901C25.6381 2.22961 23.0585 0.746066 20.2301 0H29.3101C30.0236 0.0026168 30.7069 0.287478 31.211 0.792336C31.715 1.29719 31.9986 1.98099 32 2.69431V11.7629ZM27.7051 27.7009C25.6394 29.7721 23.0594 31.2558 20.2301 32H29.3101C30.0227 31.9973 30.7053 31.7132 31.2092 31.2094C31.7131 30.7056 31.9973 30.023 32 29.3106V20.2272C31.2587 23.0561 29.7761 25.6359 27.7051 27.7009ZM0 20.2271C0.743078 23.0563 2.22732 25.6361 4.29974 27.7008C6.36366 29.7718 8.94208 31.2556 11.7698 31.9999H2.68981C1.97683 31.9986 1.29343 31.7148 0.789275 31.2107C0.28512 30.7066 0.00130943 30.0233 0 29.3105V20.2271Z" fill="#D9007E"/>
<path d="M8.71627 8.71742C10.1574 7.277 11.9933 6.29615 13.9919 5.8989C15.9905 5.50165 18.062 5.70584 19.9446 6.48564C21.8272 7.26545 23.4361 8.58585 24.5682 10.2799C25.7001 11.9739 26.3044 13.9656 26.3044 16.0029C26.3044 18.0403 25.7001 20.0319 24.5682 21.726C23.4361 23.42 21.8272 24.7404 19.9446 25.5202C18.062 26.3 15.9905 26.5042 13.9919 26.1069C11.9933 25.7097 10.1574 24.7289 8.71627 23.2885C7.75859 22.3321 6.99884 21.1965 6.48049 19.9464C5.96212 18.6962 5.69531 17.3562 5.69531 16.0029C5.69531 14.6496 5.96212 13.3096 6.48049 12.0595C6.99884 10.8094 7.75859 9.67373 8.71627 8.71742Z" fill="#00B295"/>
</svg>
