<svg width="32" height="32" viewBox="0 0 32 32" fill="none" xmlns="http://www.w3.org/2000/svg">
<path d="M6.98244 32H2.39844V12.264C2.41733 9.0172 3.71549 5.90878 6.01136 3.61292C8.30724 1.31706 11.4156 0.0188954 14.6624 0H29.8144V12.16C29.8123 15.4134 28.5184 18.5327 26.2172 20.8325C23.916 23.1322 20.7958 24.424 17.5424 24.424H9.86244L11.5664 19.84H17.4384C18.4482 19.8442 19.4488 19.6485 20.3824 19.264C21.3161 18.8796 22.1644 18.314 22.8784 17.6C23.5924 16.886 24.158 16.0377 24.5424 15.104C24.9269 14.1703 25.1227 13.1698 25.1184 12.16V4.584H14.5584C13.5487 4.57977 12.5481 4.77553 11.6144 5.15998C10.6808 5.54444 9.83244 6.10998 9.11844 6.82398C8.40444 7.53798 7.83888 8.38632 7.45442 9.32C7.06997 10.2537 6.87421 11.2542 6.87844 12.264V32H6.98244Z" fill="url(#paint0_radial_1445_7043)"/>
<defs>
<radialGradient id="paint0_radial_1445_7043" cx="0" cy="0" r="1" gradientUnits="userSpaceOnUse" gradientTransform="translate(3.31844 30.712) scale(26.544 26.544)">
<stop stop-color="#D6005E"/>
<stop offset="1" stop-color="#E3448A"/>
</radialGradient>
</defs>
</svg>
