<svg width="32" height="32" viewBox="0 0 32 32" fill="none" xmlns="http://www.w3.org/2000/svg">
<path d="M28.2812 6.2168C29.0311 7.19947 29.6661 8.26707 30.173 9.39814L15.7916 20.1421L9.78125 16.3238V11.7301L15.7916 15.5485L28.2812 6.2168Z" fill="#21A038"/>
<path d="M3.64741 16.0004C3.64741 15.7943 3.65237 15.5896 3.66229 15.386L0.0198374 15.2051C0.00743972 15.4689 4.40174e-06 15.7353 4.40174e-06 16.0042C-0.00154536 18.1048 0.406151 20.185 1.19971 22.1255C1.99327 24.066 3.15707 25.8287 4.62436 27.3123L7.20804 24.6951C6.07858 23.5551 5.18257 22.2 4.57152 20.7079C3.96046 19.2158 3.64642 17.6159 3.64741 16.0004Z" fill="url(#paint0_linear_1445_7848)"/>
<path d="M15.7892 3.69595C15.9925 3.69595 16.1945 3.70349 16.3954 3.71354L16.5776 0.0208111C16.3165 0.00824651 16.0536 0.00196499 15.7892 0.00196499C13.7155 -0.000597875 11.6618 0.411989 9.74593 1.21603C7.83005 2.02008 6.08977 3.19975 4.625 4.6873L7.20869 7.30576C8.33364 6.16072 9.67083 5.25233 11.1434 4.63283C12.6159 4.01333 14.1947 3.69493 15.7892 3.69595Z" fill="url(#paint1_linear_1445_7848)"/>
<path d="M15.7897 28.3038C15.5864 28.3038 15.3843 28.3038 15.1823 28.2875L15 31.979C15.262 31.9924 15.5253 31.9991 15.7897 31.9991C17.8625 32.0013 19.9152 31.5884 21.8301 30.7841C23.7449 29.9799 25.4841 28.8 26.9477 27.3125L24.369 24.6953C23.2439 25.8397 21.9068 26.7476 20.4345 27.3669C18.9623 27.9862 17.3838 28.3046 15.7897 28.3038Z" fill="url(#paint2_linear_1445_7848)"/>
<path d="M22.6298 5.84255L25.6995 3.54951C22.8938 1.24701 19.3915 -0.00639151 15.7812 2.45103e-05V3.69526C18.226 3.69219 20.6139 4.44093 22.6298 5.84255Z" fill="url(#paint3_linear_1445_7848)"/>
<path d="M31.5754 16.0001C31.5774 15.0388 31.4944 14.0791 31.3274 13.1328L27.9292 15.6708C27.9292 15.7802 27.9292 15.8895 27.9292 16.0001C27.9301 17.7192 27.5745 19.4194 26.8856 20.9904C26.1965 22.5614 25.1895 23.9681 23.9297 25.1194L26.3808 27.8648C28.0185 26.3664 29.3273 24.5358 30.2222 22.4919C31.1172 20.4479 31.5781 18.2362 31.5754 16.0001Z" fill="#21A038"/>
<path d="M15.7853 28.3033C14.0888 28.3039 12.4111 27.9434 10.8608 27.2452C9.31053 26.547 7.92222 25.5265 6.78578 24.25L4.07812 26.7328C5.5565 28.3929 7.36266 29.7195 9.37949 30.6266C11.3963 31.5337 13.5787 32.0012 15.7853 31.9985V28.3033Z" fill="url(#paint4_linear_1445_7848)"/>
<path d="M7.64693 6.88013L5.19714 4.13477C3.55887 5.63293 2.24961 7.46336 1.35428 9.50733C0.458958 11.5513 -0.00244096 13.7631 9.71133e-06 15.9995H3.64742C3.64667 14.2804 4.00232 12.5802 4.69129 11.0092C5.38028 9.43827 6.38724 8.03151 7.64693 6.88013Z" fill="url(#paint5_linear_1445_7848)"/>
<defs>
<linearGradient id="paint0_linear_1445_7848" x1="5.36202" y1="26.8512" x2="1.28124" y2="15.2111" gradientUnits="userSpaceOnUse">
<stop offset="0.14" stop-color="#F1E813"/>
<stop offset="0.3" stop-color="#E6E418"/>
<stop offset="0.58" stop-color="#C9DA26"/>
<stop offset="0.89" stop-color="#A2CC39"/>
</linearGradient>
<linearGradient id="paint1_linear_1445_7848" x1="5.6664" y1="5.34066" x2="15.9649" y2="1.46815" gradientUnits="userSpaceOnUse">
<stop offset="0.06" stop-color="#0FA7DF"/>
<stop offset="0.54" stop-color="#0098F8"/>
<stop offset="0.92" stop-color="#0290EA"/>
</linearGradient>
<linearGradient id="paint2_linear_1445_7848" x1="14.7595" y1="29.7688" x2="26.3811" y2="27.1783" gradientUnits="userSpaceOnUse">
<stop offset="0.12" stop-color="#A2CC39"/>
<stop offset="0.28" stop-color="#86C239"/>
<stop offset="0.87" stop-color="#219F38"/>
</linearGradient>
<linearGradient id="paint3_linear_1445_7848" x1="15.0226" y1="1.23763" x2="24.9685" y2="4.26616" gradientUnits="userSpaceOnUse">
<stop offset="0.06" stop-color="#0290EA"/>
<stop offset="0.79" stop-color="#0C89CA"/>
</linearGradient>
<linearGradient id="paint4_linear_1445_7848" x1="4.99307" y1="26.2829" x2="15.8291" y2="30.2789" gradientUnits="userSpaceOnUse">
<stop offset="0.13" stop-color="#F1E813"/>
<stop offset="0.3" stop-color="#EAE616"/>
<stop offset="0.53" stop-color="#D8DF1F"/>
<stop offset="0.8" stop-color="#BAD52D"/>
<stop offset="0.98" stop-color="#A2CC39"/>
</linearGradient>
<linearGradient id="paint5_linear_1445_7848" x1="1.3588" y1="16.4468" x2="5.79629" y2="5.05654" gradientUnits="userSpaceOnUse">
<stop offset="0.07" stop-color="#A2CC39"/>
<stop offset="0.26" stop-color="#81C45E"/>
<stop offset="0.92" stop-color="#0FA7DF"/>
</linearGradient>
</defs>
</svg>
