<svg width="32" height="32" viewBox="0 0 32 32" fill="none" xmlns="http://www.w3.org/2000/svg">
<path d="M27.8762 0.659048C17.5029 2.86238 9.76524 8.39726 10.5933 13.0199C10.8524 14.4629 11.917 15.646 13.5708 16.5244L13.5649 16.5498L13.5389 16.522L13.5329 16.5498C9.08032 15.7979 5.76569 13.733 4.74836 10.5736C3.63757 7.11881 4.54253 3.28346 7.5283 0H0V31.9815C1.34265 31.8338 2.71368 31.6364 4.12376 31.3359C14.4959 29.1317 22.2347 23.5978 21.4055 18.975C21.1464 17.5329 20.0829 16.349 18.4256 15.4696L18.4339 15.4443L18.4599 15.4739L18.4659 15.4452C22.9185 16.1979 26.2331 18.2628 27.2505 21.4214C28.3636 24.8778 27.4551 28.7132 24.467 31.9992H32V0.0126576C30.6574 0.161179 29.2863 0.359478 27.8762 0.659048Z" fill="#E40134"/>
</svg>
