<svg width="32" height="32" viewBox="0 0 32 32" fill="none" xmlns="http://www.w3.org/2000/svg">
<path d="M19.1859 0.339844V8.63638H15.9697C11.906 8.63638 8.63281 11.9095 8.63281 15.973C8.63281 20.0351 11.906 23.3082 15.9684 23.3082H19.1859V31.6047C26.5214 30.1937 31.9975 23.7606 31.9975 15.9716C31.9975 8.24056 26.524 1.80742 19.1859 0.339844Z" fill="#003791"/>
<path d="M15.9721 25.9035C10.4973 25.9035 6.03716 21.4455 6.03716 15.9724C6.03716 10.4992 10.496 6.03994 15.9695 6.03994H16.5915V0H15.9708C7.1684 0 0 7.16824 0 15.9711C0 24.8318 7.1684 32 15.9721 32H16.5928V25.9061H15.9721V25.9035Z" fill="#FF4B5F"/>
</svg>
