<svg width="12" height="14" viewBox="0 0 12 14" fill="none" xmlns="http://www.w3.org/2000/svg">
<path fill-rule="evenodd" clip-rule="evenodd" d="M2.83302 3.83252V3.7526C2.83302 2.30744 3.81143 1.04561 5.21105 0.68571C5.72839 0.55268 6.27098 0.55268 6.78831 0.68571C8.18794 1.04561 9.16635 2.30744 9.16635 3.7526V3.83252H10.1671C10.548 3.83252 10.8712 4.11184 10.9264 4.48867L11.0722 5.48364C11.3592 7.44261 11.3592 9.43295 11.0722 11.3919C10.9336 12.338 10.1707 13.0693 9.21968 13.1679L8.80043 13.2114C6.93826 13.4045 5.06111 13.4045 3.19893 13.2114L2.77968 13.1679C1.82866 13.0693 1.0658 12.338 0.927186 11.3919C0.640157 9.43295 0.640157 7.44261 0.927186 5.48364L1.07297 4.48867C1.12818 4.11184 1.45141 3.83252 1.83227 3.83252H2.83302ZM5.4601 1.6542C5.81406 1.56318 6.18531 1.56318 6.53927 1.6542C7.49691 1.90045 8.16635 2.76381 8.16635 3.7526V3.83252H3.83302V3.7526C3.83302 2.76381 4.50245 1.90045 5.4601 1.6542ZM2.83302 4.83252V6.33252C2.83302 6.60866 3.05688 6.83252 3.33302 6.83252C3.60916 6.83252 3.83302 6.60866 3.83302 6.33252V4.83252H8.16635V6.33252C8.16635 6.60866 8.39021 6.83252 8.66635 6.83252C8.94249 6.83252 9.16635 6.60866 9.16635 6.33252V4.83252H9.9661L10.0827 5.62861C10.3557 7.49145 10.3557 9.38412 10.0827 11.247C10.0104 11.7404 9.61256 12.1218 9.11653 12.1733L8.69728 12.2168C6.90369 12.4028 5.09567 12.4028 3.30208 12.2168L2.88283 12.1733C2.3868 12.1218 1.98892 11.7404 1.91662 11.247C1.64368 9.38412 1.64368 7.49145 1.91662 5.62861L2.03326 4.83252H2.83302Z" fill="#16292C"/>
</svg>
