<svg width="12" height="14" viewBox="0 0 12 14" fill="none" xmlns="http://www.w3.org/2000/svg">
<path fill-rule="evenodd" clip-rule="evenodd" d="M5.61016 0.597632C5.86424 0.519539 6.13592 0.519539 6.39 0.597632L8.38049 1.20941C9.41892 1.52857 10.4051 1.99781 11.3078 2.60225C12.0099 3.07238 11.6771 4.16754 10.8321 4.16754H1.16802C0.323052 4.16754 -0.00974619 3.07238 0.692356 2.60225C1.59504 1.99781 2.58124 1.52857 3.61966 1.20941L5.61016 0.597632ZM6.09621 1.5535C6.03357 1.53425 5.96659 1.53425 5.90394 1.5535L3.91345 2.16528C3.12625 2.40723 2.37202 2.74392 1.66721 3.16754H10.3329C9.62814 2.74392 8.87391 2.40723 8.0867 2.16528L6.09621 1.5535Z" fill="#16292C"/>
<path d="M0.833415 13.0009C0.833415 12.7247 1.05727 12.5009 1.33341 12.5009H10.6667C10.9429 12.5009 11.1667 12.7247 11.1667 13.0009C11.1667 13.277 10.9429 13.5009 10.6667 13.5009H1.33341C1.05727 13.5009 0.833415 13.277 0.833415 13.0009Z" fill="#16292C"/>
<path d="M2.16675 10.3342C2.16675 10.6103 2.39061 10.8342 2.66675 10.8342C2.94289 10.8342 3.16675 10.6103 3.16675 10.3342L3.16675 6.33421C3.16675 6.05806 2.94289 5.83421 2.66675 5.83421C2.39061 5.83421 2.16675 6.05807 2.16675 6.33421L2.16675 10.3342Z" fill="#16292C"/>
<path d="M6.00008 10.8342C5.72394 10.8342 5.50008 10.6103 5.50008 10.3342L5.50008 6.33421C5.50008 6.05807 5.72394 5.83421 6.00008 5.83421C6.27622 5.83421 6.50008 6.05806 6.50008 6.33421V10.3342C6.50008 10.6103 6.27622 10.8342 6.00008 10.8342Z" fill="#16292C"/>
<path d="M8.83342 10.3342C8.83342 10.6103 9.05727 10.8342 9.33342 10.8342C9.60956 10.8342 9.83342 10.6103 9.83342 10.3342V6.33421C9.83342 6.05806 9.60956 5.83421 9.33342 5.83421C9.05727 5.83421 8.83342 6.05807 8.83342 6.33421V10.3342Z" fill="#16292C"/>
</svg>
