<svg width="16" height="14" viewBox="0 0 16 14" fill="none" xmlns="http://www.w3.org/2000/svg">
<path fill-rule="evenodd" clip-rule="evenodd" d="M7.73453 11.4231C7.81984 11.4743 7.91104 11.497 7.99967 11.4959C8.08831 11.497 8.17951 11.4743 8.26482 11.4231L9.02167 10.969C10.506 10.0784 12.3213 9.93297 13.9285 10.5759C14.5214 10.813 15.1663 10.3764 15.1663 9.73781V1.96522C15.1663 1.57993 14.9318 1.23344 14.574 1.09035C12.504 0.262324 10.1658 0.449672 8.25403 1.59675L7.99967 1.74936L7.74532 1.59675C5.83352 0.449672 3.49539 0.262324 1.42533 1.09035C1.06759 1.23344 0.833008 1.57993 0.833008 1.96522V9.73781C0.833008 10.3764 1.47794 10.813 2.07082 10.5759C3.67802 9.93297 5.49335 10.0784 6.97768 10.969L7.73453 11.4231ZM1.83301 2.00444V9.59563C3.69687 8.89695 5.78087 9.08475 7.49218 10.1115L7.49967 10.116V2.61555L7.23082 2.45424C5.59817 1.47465 3.6039 1.30909 1.83301 2.00444ZM8.50717 10.1115L8.49967 10.116V2.61555L8.76852 2.45424C10.4012 1.47465 12.3955 1.30909 14.1663 2.00444V9.59563C12.3025 8.89695 10.2185 9.08475 8.50717 10.1115Z" fill="#16292C"/>
<path d="M6.18311 11.6939C4.83388 10.9069 3.16547 10.9069 1.81623 11.6939L1.74774 11.7339C1.50921 11.873 1.42864 12.1792 1.56779 12.4177C1.70693 12.6563 2.01308 12.7368 2.25161 12.5977L2.3201 12.5577C3.35798 11.9523 4.64137 11.9523 5.67924 12.5577L6.40408 12.9806C7.39006 13.5557 8.60928 13.5557 9.59527 12.9806L10.3201 12.5577C11.358 11.9523 12.6414 11.9523 13.6792 12.5577L13.7477 12.5977C13.9863 12.7368 14.2924 12.6563 14.4316 12.4177C14.5707 12.1792 14.4901 11.873 14.2516 11.7339L14.1831 11.6939C12.8339 10.9069 11.1655 10.9069 9.81623 11.6939L9.0914 12.1168C8.41678 12.5103 7.58257 12.5103 6.90795 12.1168L6.18311 11.6939Z" fill="#16292C"/>
</svg>
