<svg width="12" height="12" viewBox="0 0 12 12" fill="none" xmlns="http://www.w3.org/2000/svg">
<path d="M3.42871 0.427734H8.57157C9.36722 0.427734 10.1303 0.743805 10.6929 1.30641C11.2555 1.86902 11.5716 2.63208 11.5716 3.42773C11.5716 3.65506 11.4813 3.87308 11.3205 4.03383C11.1598 4.19457 10.9418 4.28488 10.7144 4.28488H1.28585C1.05853 4.28488 0.840508 4.19457 0.679762 4.03383C0.519017 3.87308 0.428711 3.65506 0.428711 3.42773C0.428711 2.63208 0.744781 1.86902 1.30739 1.30641C1.87 0.743805 2.63306 0.427734 3.42871 0.427734V0.427734Z" stroke="#16292C" stroke-linecap="round" stroke-linejoin="round"/>
<path d="M0.428711 6.42773H11.5716" stroke="#16292C" stroke-linecap="round" stroke-linejoin="round"/>
<path d="M11.143 8.57031H6.00014L4.71443 9.85603L2.143 8.57031H0.857282C0.743618 8.57031 0.634609 8.61547 0.554237 8.69584C0.473864 8.77621 0.428711 8.88522 0.428711 8.99888V8.99888C0.428711 9.68087 0.699629 10.3349 1.18186 10.8172C1.6641 11.2994 2.31815 11.5703 3.00014 11.5703H9.00014C9.68212 11.5703 10.3362 11.2994 10.8184 10.8172C11.3007 10.3349 11.5716 9.68087 11.5716 8.99888C11.5716 8.88522 11.5264 8.77621 11.446 8.69584C11.3657 8.61547 11.2567 8.57031 11.143 8.57031Z" stroke="#16292C" stroke-linecap="round" stroke-linejoin="round"/>
</svg>
