<svg width="80" height="80" viewBox="0 0 80 80" fill="none" xmlns="http://www.w3.org/2000/svg">
<g clip-path="url(#clip0_1289_20981)">
<path d="M80 40C80 17.9086 62.0914 0 40 0C17.9086 0 0 17.9086 0 40C0 62.0914 17.9086 80 40 80C62.0914 80 80 62.0914 80 40Z" fill="#16292C"/>
<path d="M57.9021 39.714C57.9021 29.6689 49.7589 21.5257 39.7137 21.5257C29.6686 21.5257 21.5254 29.6689 21.5254 39.714C21.5254 49.7591 29.6686 57.9023 39.7137 57.9023C49.7589 57.9023 57.9021 49.7591 57.9021 39.714Z" stroke="white" stroke-width="2"/>
<path d="M74.7083 41.1513C74.7083 41.8438 74.5472 42.4678 74.2249 43.0233C73.9095 43.5787 73.4706 44.0141 72.9083 44.3295C72.3529 44.6518 71.7255 44.813 71.026 44.813C70.3266 44.813 69.6957 44.6518 69.1335 44.3295C68.578 44.0141 68.1392 43.5787 67.8169 43.0233C67.5015 42.4678 67.3438 41.8438 67.3438 41.1513C67.3438 40.5067 67.4843 39.9204 67.7655 39.3924C68.0466 38.8644 68.434 38.4358 68.9277 38.1067C69.4215 37.7775 69.9837 37.5821 70.6146 37.5204V36.2038H67.426V35.1855H74.626V36.2038H71.5403V37.5307C72.1506 37.6061 72.6957 37.8084 73.1757 38.1375C73.6557 38.4735 74.0295 38.9021 74.2969 39.4233C74.5712 39.9444 74.7083 40.5204 74.7083 41.1513ZM68.2695 41.1513C68.2695 41.645 68.386 42.0907 68.6192 42.4884C68.8592 42.893 69.1883 43.2084 69.6066 43.4347C70.0249 43.6678 70.498 43.7844 71.026 43.7844C71.554 43.7844 72.0272 43.6678 72.4455 43.4347C72.8637 43.2084 73.1895 42.893 73.4226 42.4884C73.6626 42.0907 73.7826 41.645 73.7826 41.1513C73.7826 40.6644 73.6626 40.2221 73.4226 39.8244C73.1895 39.4267 72.8637 39.1113 72.4455 38.8781C72.0272 38.6518 71.554 38.5387 71.026 38.5387C70.498 38.5387 70.0249 38.6518 69.6066 38.8781C69.1883 39.1113 68.8592 39.4267 68.6192 39.8244C68.386 40.2221 68.2695 40.6644 68.2695 41.1513Z" fill="white"/>
<path d="M65.2916 39.6561L57.7121 42.7995L57.6436 36.6836L65.2916 39.6561Z" fill="white"/>
<path d="M14.0059 39.9033L21.5853 36.7598L21.654 42.8757L14.0059 39.9033Z" fill="white"/>
<path d="M12.0833 38.8459C12.0833 39.5659 11.9256 40.2173 11.6102 40.8002C11.2879 41.3762 10.849 41.8288 10.2936 42.1579C9.73132 42.487 9.10046 42.6516 8.40104 42.6516C7.70161 42.6516 7.07418 42.487 6.51875 42.1579C5.95646 41.8288 5.51761 41.3728 5.20218 40.7899C4.87989 40.207 4.71875 39.5556 4.71875 38.8356C4.71875 38.2733 4.81475 37.759 5.00675 37.2928C5.19189 36.8265 5.46961 36.4288 5.83989 36.0996L6.48789 36.7682C5.91875 37.3099 5.63418 37.9853 5.63418 38.7945C5.63418 39.3293 5.75418 39.8128 5.99418 40.2448C6.23418 40.6768 6.56675 41.0162 6.99189 41.263C7.41018 41.503 7.87989 41.623 8.40104 41.623C8.92218 41.623 9.39532 41.503 9.82046 41.263C10.2388 41.0162 10.5679 40.6768 10.8079 40.2448C11.0479 39.8128 11.1679 39.3293 11.1679 38.7945C11.1679 37.9922 10.8799 37.3168 10.3039 36.7682L10.9519 36.0996C11.3222 36.4288 11.6033 36.8299 11.7953 37.303C11.9873 37.7693 12.0833 38.2836 12.0833 38.8459Z" fill="white"/>
<path d="M41.26 8.26707C41.7468 8.38364 42.1137 8.59278 42.3605 8.8945C42.6142 9.18935 42.7411 9.56992 42.7411 10.0362C42.7411 10.6602 42.5114 11.1436 42.052 11.4865C41.5994 11.8294 40.9377 12.0008 40.0668 12.0008H36.7754V4.80078H39.8714C40.66 4.80078 41.2737 4.96192 41.7125 5.28421C42.1582 5.59964 42.3811 6.05564 42.3811 6.65221C42.3811 7.04307 42.2817 7.37564 42.0828 7.64992C41.8908 7.92421 41.6165 8.12992 41.26 8.26707ZM37.7937 7.96878H39.7994C40.3 7.96878 40.6805 7.86935 40.9411 7.6705C41.2085 7.47164 41.3423 7.18021 41.3423 6.79621C41.3423 6.41221 41.2085 6.12078 40.9411 5.92192C40.6737 5.71621 40.2931 5.61335 39.7994 5.61335H37.7937V7.96878ZM40.0462 11.1882C41.1502 11.1882 41.7022 10.7768 41.7022 9.95392C41.7022 9.5425 41.5617 9.24078 41.2805 9.04878C41.0062 8.84992 40.5948 8.7505 40.0462 8.7505H37.7937V11.1882H40.0462Z" fill="white"/>
<path d="M39.7431 65.4957L36.5996 57.9162L42.7155 57.8477L39.7431 65.4957Z" fill="white"/>
<path d="M39.4978 14.2129L42.6413 21.7924L36.5254 21.861L39.4978 14.2129Z" fill="white"/>
<path d="M38.2271 71.1823C37.7745 71.0588 37.4214 70.8428 37.1677 70.5343C36.914 70.2326 36.7871 69.8691 36.7871 69.444C36.7871 69.0188 36.9243 68.6451 37.1985 68.3228C37.466 68.0074 37.826 67.764 38.2785 67.5926C38.7243 67.428 39.2111 67.3457 39.7391 67.3457C40.2191 67.3457 40.6957 67.4177 41.1688 67.5617C41.642 67.7057 42.074 67.9217 42.4648 68.2097L42.1048 68.9708C41.7894 68.724 41.4362 68.5388 41.0454 68.4154C40.6545 68.292 40.2602 68.2303 39.8625 68.2303C39.2865 68.2303 38.8031 68.3503 38.4123 68.5903C38.0214 68.8371 37.826 69.1731 37.826 69.5983C37.826 69.9617 37.9734 70.2394 38.2683 70.4314C38.5631 70.6303 38.978 70.7297 39.5128 70.7297H41.1174V71.5628H39.5848C39.1254 71.5628 38.7688 71.6554 38.5151 71.8406C38.2545 72.0326 38.1243 72.2966 38.1243 72.6326C38.1243 73.0097 38.2923 73.308 38.6283 73.5274C38.9643 73.7468 39.3894 73.8566 39.9037 73.8566C40.2397 73.8566 40.5825 73.8086 40.9323 73.7126C41.2751 73.6166 41.6008 73.4726 41.9094 73.2806L42.2385 74.124C41.8751 74.3297 41.4911 74.484 41.0865 74.5868C40.682 74.6897 40.2774 74.7411 39.8728 74.7411C39.3654 74.7411 38.8991 74.6623 38.474 74.5046C38.0488 74.3468 37.7128 74.1171 37.466 73.8154C37.2122 73.5137 37.0854 73.1606 37.0854 72.756C37.0854 72.3926 37.1883 72.0737 37.394 71.7994C37.5928 71.5251 37.8705 71.3194 38.2271 71.1823Z" fill="white"/>
</g>
<defs>
<clipPath id="clip0_1289_20981">
<rect width="80" height="80" fill="white"/>
</clipPath>
</defs>
</svg>
