<svg width="12" height="13" viewBox="0 0 12 13" fill="none" xmlns="http://www.w3.org/2000/svg">
<path d="M4.3336 8.16671C4.05746 8.16671 3.8336 8.39057 3.8336 8.66671C3.8336 8.94285 4.05746 9.16671 4.3336 9.16671H5.50026V10.3334C5.50026 10.6095 5.72412 10.8334 6.00026 10.8334C6.27641 10.8334 6.50026 10.6095 6.50026 10.3334V9.16671H7.66693C7.94307 9.16671 8.16693 8.94285 8.16693 8.66671C8.16693 8.39057 7.94307 8.16671 7.66693 8.16671H6.50026V7.00005C6.50026 6.7239 6.27641 6.50005 6.00026 6.50005C5.72412 6.50005 5.50026 6.7239 5.50026 7.00005V8.16671H4.3336Z" fill="#16292C"/>
<path fill-rule="evenodd" clip-rule="evenodd" d="M2.8336 1.64084V2.46603C2.5874 2.4846 2.34133 2.50533 2.09541 2.52824C0.982689 2.63187 0.131836 3.56565 0.131836 4.6832V9.98357C0.131836 11.1011 0.982689 12.0349 2.09541 12.1385C4.69302 12.3805 7.30749 12.3805 9.9051 12.1385C11.0178 12.0349 11.8687 11.1011 11.8687 9.98357V4.6832C11.8687 3.56565 11.0178 2.63187 9.9051 2.52824C9.65918 2.50533 9.41312 2.4846 9.16693 2.46603V1.64084C9.16693 1.06334 8.74443 0.572746 8.17333 0.48708L7.36005 0.365089C6.45857 0.229866 5.54196 0.229866 4.64048 0.365089L3.8272 0.48708C3.25609 0.572746 2.8336 1.06334 2.8336 1.64084ZM7.21171 1.35403C6.40857 1.23355 5.59196 1.23355 4.78882 1.35403L3.97554 1.47602C3.89395 1.48825 3.8336 1.55834 3.8336 1.64084V2.40257C5.27708 2.32819 6.72344 2.32819 8.16693 2.40257V1.64084C8.16693 1.55834 8.10657 1.48825 8.02499 1.47602L7.21171 1.35403ZM9.81236 3.52393C7.27645 3.28774 4.72407 3.28774 2.18815 3.52393C1.58956 3.57968 1.13184 4.08201 1.13184 4.6832V4.83338H10.8687V4.6832C10.8687 4.08201 10.411 3.57968 9.81236 3.52393ZM10.8687 5.83338H1.13184V9.98357C1.13184 10.5848 1.58956 11.0871 2.18815 11.1428C4.72407 11.379 7.27645 11.379 9.81236 11.1428C10.411 11.0871 10.8687 10.5848 10.8687 9.98357V5.83338Z" fill="#16292C"/>
</svg>
