<svg width="16" height="12" viewBox="0 0 16 12" fill="none" xmlns="http://www.w3.org/2000/svg">
<path d="M5.03609 0.835323C5.26601 0.852111 5.45465 1.02392 5.49278 1.25128L6.69302 8.40623L8.18568 3.19629C8.24715 2.98174 8.44335 2.83391 8.66652 2.834C8.8897 2.83408 9.08579 2.98205 9.1471 3.19663L10.1593 6.73915L10.74 5.74791C10.8297 5.59476 10.9939 5.50066 11.1714 5.50066H12.4093C12.6217 4.82448 13.2534 4.33399 13.9997 4.33399C14.9201 4.33399 15.6663 5.08019 15.6663 6.00066C15.6663 6.92114 14.9201 7.66733 13.9997 7.66733C13.2534 7.66733 12.6217 7.17685 12.4093 6.50066H11.458L10.4311 8.25341C10.3299 8.42611 10.1355 8.52183 9.93693 8.49671C9.73836 8.47159 9.5739 8.33047 9.51891 8.13802L8.66568 5.15171L7.04599 10.805C6.98165 11.0296 6.77038 11.1797 6.53714 11.1665C6.3039 11.1534 6.11087 10.9804 6.07222 10.75L4.84592 3.43971L3.97049 6.15413C3.90388 6.36067 3.71164 6.50066 3.49462 6.50066H1.33301C1.05687 6.50066 0.833008 6.2768 0.833008 6.00066C0.833008 5.72452 1.05687 5.50066 1.33301 5.50066H3.13052L4.52381 1.18052C4.59457 0.96112 4.80617 0.818535 5.03609 0.835323Z" fill="#16292C"/>
</svg>
