<svg width="14" height="14" viewBox="0 0 14 14" fill="none" xmlns="http://www.w3.org/2000/svg">
<path fill-rule="evenodd" clip-rule="evenodd" d="M5.64055 1.66917C6.4523 2.68811 7.17988 3.77721 7.81273 4.92591C8.95725 4.49836 10.0352 3.93443 11.027 3.25388C10.0223 2.17424 8.58998 1.5 7 1.5C6.53037 1.5 6.07499 1.55875 5.64055 1.66917ZM11.6402 4.04582C10.6025 4.76331 9.47556 5.3609 8.2794 5.81855C8.46971 6.20279 8.64967 6.59309 8.8189 6.98907C9.26007 6.92397 9.71146 6.89024 10.1707 6.89024C10.9739 6.89024 11.7535 6.99346 12.4969 7.18755C12.499 7.12531 12.5 7.06279 12.5 7C12.5 5.91217 12.1846 4.89905 11.6402 4.04582ZM12.3712 8.18936C11.6715 7.99452 10.9336 7.89024 10.1707 7.89024C9.84333 7.89024 9.52041 7.90947 9.20305 7.94685C9.62829 9.0801 9.96719 10.2556 10.2117 11.4654C11.2905 10.6881 12.0757 9.53 12.3712 8.18936ZM9.29668 11.9991C9.0481 10.6629 8.67946 9.36882 8.20232 8.1285C6.29908 8.59842 4.65803 9.73442 3.54061 11.2761C4.48576 12.0418 5.68894 12.5 7 12.5C7.82062 12.5 8.59821 12.3206 9.29668 11.9991ZM2.81747 10.5718C4.03919 8.94141 5.79127 7.73013 7.81814 7.19443C7.66316 6.84093 7.49921 6.49225 7.32657 6.14869C5.8287 6.61475 4.2362 6.86585 2.58537 6.86585C2.22153 6.86585 1.86047 6.85365 1.50259 6.82964C1.50087 6.8862 1.5 6.94299 1.5 7C1.5 8.36344 1.99563 9.61051 2.81747 10.5718ZM1.62345 5.8354C1.94143 5.8556 2.26217 5.86585 2.58537 5.86585C4.06674 5.86585 5.49748 5.65035 6.84814 5.24898C6.20791 4.10924 5.46966 3.03186 4.64476 2.02824C3.12355 2.75023 1.98679 4.14979 1.62345 5.8354ZM4.60417 0.955925C5.34622 0.661553 6.15485 0.5 7 0.5C9.10041 0.5 10.9682 1.4968 12.1557 3.0411C12.9986 4.13732 13.5 5.51082 13.5 7C13.5 7.30898 13.4784 7.61321 13.4366 7.91119C13.1443 9.99334 11.8667 11.7573 10.0923 12.7186C9.1722 13.2171 8.11839 13.5 7 13.5C5.27058 13.5 3.69799 12.8239 2.53384 11.7227C1.28203 10.5385 0.5 8.86016 0.5 7C0.5 6.74003 0.515287 6.48343 0.545054 6.23107C0.82916 3.82246 2.4287 1.81894 4.60417 0.955925Z" fill="#16292C"/>
</svg>
