<svg width="16" height="16" viewBox="0 0 16 16" fill="none" xmlns="http://www.w3.org/2000/svg">
<path fill-rule="evenodd" clip-rule="evenodd" d="M7.74071 2.2007C7.90304 2.1545 8.07425 2.15446 8.23656 2.20052C8.58158 2.29844 8.92979 2.38925 9.27915 2.48037C10.9197 2.90824 12.5858 3.34279 14.0682 4.55013L14.7508 5.10613C15.0277 5.33165 15.1662 5.66547 15.1663 5.99935V10.666C15.1663 10.9422 14.9425 11.166 14.6663 11.166C14.3902 11.166 14.1663 10.9422 14.1663 10.666V7.37047L14.0577 7.4591C13.5441 7.87825 13.0082 8.20372 12.4589 8.46792C12.4851 8.52866 12.4997 8.59564 12.4997 8.66602V11.5286C12.4997 12.2842 12.0362 12.9623 11.3323 13.2367L8.66561 14.2764C8.23735 14.4433 7.762 14.4433 7.33374 14.2764L4.66708 13.2367C3.96316 12.9623 3.49967 12.2842 3.49967 11.5286V8.66602C3.49967 8.59386 3.51496 8.52528 3.54246 8.46333C2.9889 8.19757 2.44883 7.87019 1.93117 7.44856L1.24854 6.89257C0.69477 6.44153 0.694479 5.5573 1.24777 5.1058L1.94162 4.5396C3.41325 3.33871 5.06763 2.90675 6.69603 2.48158C7.04615 2.39017 7.39507 2.29906 7.74071 2.2007ZM14.1663 5.99975C14.1663 5.93969 14.1421 5.90003 14.1193 5.88148L13.4367 5.32549C11.9997 4.33268 10.7192 3.89481 9.09294 3.46746C8.73534 3.37349 8.36761 3.27685 7.98899 3.16974C7.60867 3.27763 7.23961 3.37472 6.88081 3.46912C5.26754 3.89354 3.86183 4.26335 2.57386 5.31437L1.88001 5.88057C1.85722 5.89917 1.83298 5.93889 1.83301 5.99895C1.83303 6.05901 1.8573 6.09867 1.88006 6.11721L2.56269 6.67321C3.86157 7.73113 5.28011 8.10389 6.90641 8.53124C7.26403 8.62522 7.63172 8.72184 8.01036 8.82896C8.39065 8.72108 8.75968 8.62399 9.11845 8.5296C10.7317 8.10518 12.1375 7.73534 13.4255 6.68433L14.1193 6.11812C14.1421 6.09954 14.1663 6.05971 14.1663 5.99975ZM9.30332 9.51711C10.0365 9.32568 10.775 9.13286 11.4997 8.86911V11.5286C11.4997 11.8721 11.289 12.1803 10.969 12.305L8.30237 13.3447C8.10771 13.4206 7.89164 13.4206 7.69698 13.3447L5.03031 12.305C4.71035 12.1803 4.49967 11.8721 4.49967 11.5286V8.86344C5.23219 9.13024 5.9788 9.32497 6.72019 9.51833C7.06956 9.60945 7.41776 9.70026 7.76279 9.79817C7.9251 9.84424 8.09631 9.84419 8.25864 9.798C8.60426 9.69964 8.95322 9.60852 9.30332 9.51711Z" fill="#16292C"/>
</svg>
