<svg width="49" height="48" viewBox="0 0 49 48" fill="none" xmlns="http://www.w3.org/2000/svg">
<g clip-path="url(#clip0_1397_22568)">
<path d="M29.3706 3H19.6294C15.1824 3 10.9471 5.365 8.61765 9.45L3.74706 18.05C1.41765 22.135 1.41765 26.865 3.74706 30.95L8.61765 39.55C10.9471 43.635 15.1824 46 19.6294 46H29.3706C33.8176 46 38.0529 43.635 40.3824 39.55L45.2529 30.95C47.5824 26.865 47.5824 22.135 45.2529 18.05L40.3824 9.45C38.0529 5.365 34.0294 3 29.3706 3Z" stroke="#5E6C5B" stroke-width="3" stroke-miterlimit="10" stroke-linecap="round" stroke-linejoin="round"/>
<path d="M19.515 34V31.6351H17V29.2164H19.515V27.2277H17V24.7284H19.515V15H26.1237C27.1761 15 28.1215 15.1075 28.9599 15.3225C29.7982 15.5375 30.5117 15.8868 31.1003 16.3706C31.7068 16.8543 32.1706 17.4814 32.4916 18.2518C32.8305 19.0222 33 19.9538 33 21.0467C33 22.48 32.6968 23.6535 32.0903 24.5672C31.4838 25.4809 30.6544 26.1528 29.602 26.5827C28.5496 27.0127 27.3634 27.2277 26.0435 27.2277H22.3512V29.2164H28.5853V31.6351H22.3512V34H19.515ZM22.3512 24.7284H25.9365C26.7213 24.7284 27.4259 24.612 28.0502 24.3791C28.6923 24.1462 29.2007 23.761 29.5753 23.2235C29.9677 22.6681 30.1639 21.9514 30.1639 21.0735C30.1639 19.8194 29.825 18.9326 29.1472 18.413C28.4693 17.8755 27.4526 17.6068 26.097 17.6068H22.3512V24.7284Z" fill="#5E6C5B"/>
</g>
<defs>
<clipPath id="clip0_1397_22568">
<rect width="48" height="48" fill="white" transform="translate(0.5)"/>
</clipPath>
</defs>
</svg>
