<svg width="48" height="48" viewBox="0 0 48 48" fill="none" xmlns="http://www.w3.org/2000/svg">
<path d="M18.8555 46.2857V28.2857C18.8555 27.1491 19.307 26.059 20.1107 25.2553C20.9145 24.4515 22.0045 24 23.1412 24V24C24.2778 24 25.3679 24.4515 26.1716 25.2553C26.9754 26.059 27.4269 27.1491 27.4269 28.2857V37.7143H34.284C36.1027 37.7143 37.8468 38.4367 39.1328 39.7227C40.4187 41.0087 41.1412 42.7528 41.1412 44.5714V46.2857" stroke="#5E6C5B" stroke-width="2.5" stroke-linecap="round" stroke-linejoin="round"/>
<path d="M11.6212 29.5198C9.3448 27.2418 7.79493 24.3399 7.16752 21.1811C6.54011 18.0223 6.86332 14.7484 8.09631 11.7733C9.32929 8.79819 11.4167 6.25542 14.0946 4.46646C16.7725 2.67749 19.9207 1.72266 23.1412 1.72266C26.3617 1.72266 29.5099 2.67749 32.1878 4.46646C34.8657 6.25542 36.9531 8.79819 38.1861 11.7733C39.4191 14.7484 39.7423 18.0223 39.1149 21.1811C38.4874 24.3399 36.9376 27.2418 34.6612 29.5198" stroke="#5E6C5B" stroke-width="2.5" stroke-linecap="round" stroke-linejoin="round"/>
</svg>
