<svg width="45" height="45" viewBox="0 0 45 45" fill="none" xmlns="http://www.w3.org/2000/svg">
<path fill-rule="evenodd" clip-rule="evenodd" d="M18.2941 3.71786C18.3118 4.49432 17.6968 5.13814 16.9203 5.15589C11.6297 5.27685 9.13777 5.81053 7.49301 7.45532C6.42353 8.5248 5.80991 9.9717 5.48728 12.3713C5.15923 14.8113 5.15625 18.0175 5.15625 22.4812C5.15625 26.9447 5.15923 30.1509 5.48728 32.5911C5.80991 34.9907 6.42353 36.4374 7.49301 37.5069C8.56249 38.5764 10.0094 39.1901 12.409 39.5128C14.849 39.8407 18.0552 39.8437 22.5189 39.8437C26.9824 39.8437 30.1886 39.8407 32.6287 39.5128C35.0284 39.1901 36.4751 38.5764 37.5446 37.5069C39.1896 35.8622 39.7232 33.3703 39.8441 28.0796C39.8619 27.3032 40.5056 26.6882 41.2821 26.706C42.0585 26.7236 42.6737 27.3675 42.6559 28.1439C42.5374 33.3309 42.0701 36.9591 39.5334 39.4957C37.8542 41.1748 35.715 41.9357 33.0036 42.3002C30.3544 42.6562 26.9591 42.6562 22.6264 42.6562H22.4113C18.0786 42.6562 14.6833 42.6562 12.0342 42.3002C9.32276 41.9357 7.18341 41.1748 5.50427 39.4957C3.82511 37.8167 3.06441 35.6773 2.69987 32.9659C2.34371 30.3167 2.34373 26.9214 2.34375 22.5887V22.3736C2.34373 18.0409 2.34371 14.6456 2.69987 11.9965C3.06441 9.28507 3.82511 7.14572 5.50427 5.46658C8.04094 2.92991 11.669 2.46272 16.856 2.34413C17.6325 2.32637 18.2763 2.94141 18.2941 3.71786ZM32.3636 5.15625C28.227 5.15625 24.8833 8.49442 24.8833 12.6001C24.8833 13.522 25.0948 14.3305 25.3117 14.9142C25.4194 15.2037 25.5257 15.4303 25.6014 15.5786C25.6391 15.6525 25.6689 15.7062 25.6869 15.7378L25.7046 15.7681C26.052 16.3216 25.9699 17.0419 25.5069 17.503L14.7563 28.2096C14.7286 28.2371 14.6753 28.3005 14.6259 28.389C14.5775 28.4758 14.5484 28.5589 14.537 28.6286C14.5266 28.6922 14.5303 28.7443 14.547 28.7962C14.5634 28.8472 14.6092 28.9517 14.7563 29.0981L15.9454 30.2824C15.981 30.3088 16.0363 30.345 16.1062 30.3791C16.1977 30.4239 16.2864 30.4521 16.3617 30.4633C16.4331 30.4738 16.4809 30.4678 16.5148 30.4577C16.5433 30.4491 16.6061 30.4249 16.6982 30.3332L18.1448 28.8924C18.6935 28.3459 19.5808 28.3459 20.1294 28.8924C20.3451 29.1069 20.5247 29.1964 20.6527 29.2354C20.7821 29.2749 20.9104 29.2791 21.0426 29.2537C21.3356 29.1977 21.6021 29.0038 21.7247 28.8487C21.8944 28.6037 21.8889 28.3909 21.8077 28.1482C21.7626 28.0138 21.6977 27.8925 21.6411 27.8032C21.6139 27.7603 21.5916 27.7297 21.5796 27.714C21.5764 27.7097 21.5726 27.7048 21.5726 27.7048C21.1044 27.1462 21.1402 26.3209 21.6581 25.8051L22.0714 25.3935C22.6202 24.8471 23.5074 24.8471 24.0561 25.3935C24.7761 26.1105 25.2532 26.1015 25.4831 26.058C25.8079 25.9963 26.1103 25.7629 26.2706 25.5564C26.4817 25.2542 26.4827 24.9842 26.4234 24.7359C26.3908 24.5998 26.3402 24.4809 26.2974 24.3973C26.2766 24.3568 26.2599 24.3287 26.2517 24.3156L26.2498 24.3127L26.1964 24.2381L26.1469 24.1395C26.1291 24.1039 26.1006 24.0609 26.0096 23.9606C26.0066 23.9572 26.001 23.9514 25.9931 23.9432C25.9237 23.8701 25.6796 23.6134 25.5298 23.3445C25.2733 22.8847 25.2022 22.3252 25.4248 21.7537C25.5962 21.3135 25.9125 20.9507 26.2046 20.6597L27.4446 19.4248C27.9585 18.9131 28.7771 18.876 29.3351 19.3391C29.5594 19.5253 30.0382 19.7259 30.7215 19.8675C31.3633 20.0002 32.0006 20.0441 32.3636 20.0441C36.5002 20.0441 39.8437 16.7059 39.8437 12.6001C39.8437 8.49442 36.5002 5.15625 32.3636 5.15625ZM24.6536 28.8306C24.5951 29.3653 24.4048 29.9379 23.9998 30.5025L23.9902 30.5158L23.9803 30.5289C23.4786 31.1953 22.6144 31.8163 21.5717 32.016C20.8346 32.1572 20.0473 32.079 19.2962 31.7151L18.6829 32.3259C17.8347 33.1706 16.8219 33.3742 15.9505 33.2454C15.149 33.1271 14.4881 32.7381 14.0909 32.3991C14.0636 32.3756 14.0371 32.3512 14.0116 32.3259L12.7717 31.0911C11.8681 30.1911 11.6046 29.1339 11.7613 28.1749C11.9037 27.3041 12.3712 26.6156 12.7717 26.2168L22.8052 16.2242C22.7625 16.1211 22.719 16.0111 22.6757 15.8946C22.3761 15.089 22.0708 13.9423 22.0708 12.6001C22.0708 6.93028 26.6844 2.34375 32.3636 2.34375C38.0426 2.34375 42.6562 6.93028 42.6562 12.6001C42.6562 18.27 38.0426 22.8566 32.3636 22.8566C31.8309 22.8566 31.0011 22.7974 30.1513 22.6215C29.7 22.5281 29.1776 22.389 28.6704 22.1734L28.398 22.4447C28.4707 22.5461 28.545 22.6616 28.6153 22.7914C28.6232 22.8036 28.6316 22.8167 28.6402 22.8307C28.6845 22.902 28.7406 22.9978 28.8006 23.115C28.9191 23.3464 29.0621 23.6779 29.1589 24.0819C29.3569 24.9103 29.3589 26.0766 28.5463 27.2094L28.5367 27.2227L28.527 27.2359C28.0646 27.8497 27.1948 28.5958 26.0072 28.8212C25.5641 28.9052 25.11 28.9108 24.6536 28.8306ZM32.3636 10.9191C31.4227 10.9191 30.6699 11.6772 30.6699 12.6001C30.6699 13.5231 31.4227 14.2812 32.3636 14.2812C33.3043 14.2812 34.0573 13.5231 34.0573 12.6001C34.0573 11.6772 33.3043 10.9191 32.3636 10.9191ZM27.8574 12.6001C27.8574 10.113 29.8804 8.10664 32.3636 8.10664C34.8469 8.10664 36.8698 10.113 36.8698 12.6001C36.8698 15.0873 34.8469 17.0937 32.3636 17.0937C29.8804 17.0937 27.8574 15.0873 27.8574 12.6001Z" fill="#5E6C5B"/>
</svg>
