<svg width="48" height="48" viewBox="0 0 48 48" fill="none" xmlns="http://www.w3.org/2000/svg">
<g clip-path="url(#clip0_2560_30124)">
<path d="M35.9997 11.9996C35.5672 9.16324 34.1327 6.57576 31.9564 4.70616C29.7801 2.83657 27.006 1.80859 24.1369 1.80859C21.2677 1.80859 18.4936 2.83657 16.3173 4.70616C14.141 6.57576 12.7065 9.16324 12.274 11.9996C9.54605 11.9996 6.92984 13.0832 5.0009 15.0122C3.07195 16.9411 1.98828 19.5573 1.98828 22.2853C1.98828 25.0132 3.07195 27.6294 5.0009 29.5584C6.92984 31.4873 9.54605 32.571 12.274 32.571C13.5554 32.5837 14.8262 32.3389 16.0111 31.851C16.9679 33.1415 18.2136 34.19 19.6485 34.9125C21.0833 35.6349 22.6675 36.0113 24.274 36.0113C25.8805 36.0113 27.4647 35.6349 28.8995 34.9125C30.3344 34.19 31.5801 33.1415 32.5369 31.851C33.7218 32.3389 34.9926 32.5837 36.274 32.571C39.0019 32.571 41.6181 31.4873 43.5471 29.5584C45.476 27.6294 46.5597 25.0132 46.5597 22.2853C46.5597 19.5573 45.476 16.9411 43.5471 15.0122C41.6181 13.0832 39.0019 11.9996 36.274 11.9996H35.9997Z" stroke="#5E6C5B" stroke-width="2.5" stroke-linecap="round" stroke-linejoin="round"/>
<path d="M18.8555 22.2852L23.9983 27.428V46.2852" stroke="#5E6C5B" stroke-width="2.5" stroke-linecap="round" stroke-linejoin="round"/>
<path d="M24 27.428L29.1429 22.2852" stroke="#5E6C5B" stroke-width="2.5" stroke-linecap="round" stroke-linejoin="round"/>
</g>
<defs>
<clipPath id="clip0_2560_30124">
<rect width="48" height="48" fill="white"/>
</clipPath>
</defs>
</svg>
