<svg width="49" height="48" viewBox="0 0 49 48" fill="none" xmlns="http://www.w3.org/2000/svg">
<path d="M34 27C35.1046 27 36 26.1046 36 25C36 23.8954 35.1046 23 34 23C32.8954 23 32 23.8954 32 25C32 26.1046 32.8954 27 34 27Z" fill="#5E6C5B"/>
<path d="M34 35C35.1046 35 36 34.1046 36 33C36 31.8954 35.1046 31 34 31C32.8954 31 32 31.8954 32 33C32 34.1046 32.8954 35 34 35Z" fill="#5E6C5B"/>
<path d="M27 25C27 26.1046 26.1046 27 25 27C23.8954 27 23 26.1046 23 25C23 23.8954 23.8954 23 25 23C26.1046 23 27 23.8954 27 25Z" fill="#5E6C5B"/>
<path d="M27 33C27 34.1046 26.1046 35 25 35C23.8954 35 23 34.1046 23 33C23 31.8954 23.8954 31 25 31C26.1046 31 27 31.8954 27 33Z" fill="#5E6C5B"/>
<path d="M15 27C16.1046 27 17 26.1046 17 25C17 23.8954 16.1046 23 15 23C13.8954 23 13 23.8954 13 25C13 26.1046 13.8954 27 15 27Z" fill="#5E6C5B"/>
<path d="M15 35C16.1046 35 17 34.1046 17 33C17 31.8954 16.1046 31 15 31C13.8954 31 13 31.8954 13 33C13 34.1046 13.8954 35 15 35Z" fill="#5E6C5B"/>
<path fill-rule="evenodd" clip-rule="evenodd" d="M14.9651 4C15.755 4 16.3954 4.6396 16.3954 5.42857V6.88137C17.6578 6.85712 19.0486 6.85712 20.5782 6.85714H28.4215C29.9513 6.85712 31.3422 6.85712 32.6047 6.88137V5.42857C32.6047 4.6396 33.245 4 34.0349 4C34.8248 4 35.4651 4.6396 35.4651 5.42857V7.00398C35.9607 7.04173 36.4302 7.08918 36.8744 7.14882C39.1101 7.44907 40.9198 8.08168 42.347 9.50712C43.774 10.9326 44.4073 12.7401 44.708 14.9733C45 17.1432 45 19.9158 45 23.4162V27.4408C45 30.9411 45 33.7139 44.708 35.8838C44.4073 38.117 43.774 39.9246 42.347 41.3501C40.9198 42.7754 39.1101 43.408 36.8744 43.7084C34.7019 44 31.9262 44 28.4217 44H20.5785C17.0739 44 14.298 44 12.1256 43.7084C9.88981 43.408 8.08019 42.7754 6.65306 41.3501C5.22596 39.9246 4.59261 38.117 4.29204 35.8838C3.99994 33.7139 3.99996 30.9413 4 27.4408V23.4164C3.99996 19.9158 3.99994 17.1432 4.29204 14.9733C4.59261 12.7401 5.22596 10.9326 6.65306 9.50712C8.08019 8.08168 9.88981 7.44907 12.1256 7.14882C12.5698 7.08918 13.0392 7.04173 13.5349 7.00398V5.42857C13.5349 4.6396 14.1752 4 14.9651 4ZM12.5067 9.9805C10.5881 10.2381 9.48277 10.7213 8.67572 11.5274C7.86867 12.3335 7.38492 13.4376 7.12699 15.354C7.0833 15.6785 7.04678 16.0202 7.01623 16.381H41.9837C41.9532 16.0202 41.9166 15.6786 41.8729 15.354C41.6151 13.4376 41.1313 12.3335 40.3243 11.5274C39.5173 10.7213 38.4118 10.2381 36.4934 9.9805C34.5336 9.71731 31.9502 9.71429 28.314 9.71429H20.686C17.0498 9.71429 14.4665 9.71731 12.5067 9.9805ZM6.86047 23.5238C6.86047 21.8971 6.86108 20.4813 6.88543 19.2381H42.1146C42.139 20.4813 42.1395 21.8971 42.1395 23.5238V27.3333C42.1395 30.9653 42.1365 33.5457 41.8729 35.5032C41.6151 37.4194 41.1313 38.5236 40.3243 39.3297C39.5173 40.1358 38.4118 40.619 36.4934 40.8766C34.5336 41.1398 31.9502 41.1429 28.314 41.1429H20.686C17.0498 41.1429 14.4665 41.1398 12.5067 40.8766C10.5881 40.619 9.48277 40.1358 8.67572 39.3297C7.86867 38.5236 7.38492 37.4194 7.12699 35.5032C6.8635 33.5457 6.86047 30.9653 6.86047 27.3333V23.5238Z" fill="#5E6C5B"/>
</svg>
