<svg width="48" height="48" viewBox="0 0 48 48" fill="none" xmlns="http://www.w3.org/2000/svg">
<g clip-path="url(#clip0_2560_7228)">
<path d="M8 9.00157C8 9.55355 8.44802 10.0016 9 10.0016C9.55199 10.0016 10 9.55355 10 9.00157C10 8.07956 10.834 8.03363 11 8.03363C11.166 8.03363 12 8.07966 12 9.00157C12 9.55355 12.448 10.0016 13 10.0016C13.552 10.0016 13.9998 9.55355 13.9998 9.00157C13.9998 5.10364 8 5.10364 8 9.00157Z" fill="#5E6C5B"/>
<path d="M4 16.9976C4 17.5496 4.44802 17.9976 5 17.9976C5.55199 17.9976 6.00001 17.5496 6.00001 16.9976C6.00001 16.0756 6.83399 16.0296 7.00001 16.0296C7.16604 16.0296 8.00002 16.0757 8.00002 16.9976C8.00002 17.5496 8.44803 17.9976 9.00002 17.9976C9.552 17.9976 10 17.5496 10 16.9976C9.99984 13.0998 4 13.0998 4 16.9976Z" fill="#5E6C5B"/>
<path d="M46.9993 41.9998H43.0195L42.2195 37.9999H44.9994C45.5514 37.9999 45.9994 37.5519 45.9994 36.9999C45.9994 36.4479 45.5514 36 44.9994 36H26.9999C26.4479 36 25.9999 36.448 25.9999 37C25.9999 37.552 26.4479 38 26.9999 38H29.7798L28.9799 41.9998H25C24.448 41.9998 24 42.4479 24 42.9998C24 43.5518 24.448 43.9998 25 43.9998H28.5799L28.02 46.8037C27.912 47.3457 28.2619 47.8717 28.804 47.9797C29.348 48.0937 29.872 47.7377 29.98 47.1957L30.6179 43.9998H41.3797L42.0197 47.1957C42.1157 47.6717 42.5337 47.9997 42.9996 47.9997C43.0636 47.9997 43.1296 47.9937 43.1956 47.9797C43.7356 47.8717 44.0876 47.3457 43.9796 46.8037L43.4197 43.9998H46.9996C47.5516 43.9998 47.9996 43.5518 47.9996 42.9998C47.9996 42.4479 47.5513 41.9998 46.9993 41.9998ZM31.0177 41.9998L31.8177 37.9999H40.1795L40.9795 41.9998H31.0177Z" fill="#5E6C5B"/>
<path d="M18 14.9664C18 15.5184 18.448 15.9664 19 15.9664C19.552 15.9664 20 15.5184 20 14.9664C20 14.0444 20.834 13.9985 21 13.9985C21.166 13.9985 22 14.0445 22 14.9664C22 15.5184 22.448 15.9664 23 15.9664C23.552 15.9664 24 15.5205 24 14.9664C23.9998 11.0685 18 11.0685 18 14.9664Z" fill="#5E6C5B"/>
<path d="M14 22.9976C14 23.5496 14.448 23.9976 15 23.9976C15.552 23.9976 16 23.5496 16 22.9976C16 22.0756 16.834 22.0296 17 22.0296C17.166 22.0296 18 22.0757 18 22.9976C18 23.5496 18.448 23.9976 19 23.9976C19.552 23.9976 20 23.5496 20 22.9976C19.9998 19.0998 14 19.0998 14 22.9976Z" fill="#5E6C5B"/>
<path d="M29.9992 14.9996C29.9992 6.72779 23.2714 0 14.9996 0C6.72779 0 0 6.72779 0 14.9996C0 22.2434 5.16183 28.3032 11.9997 29.6972V46.9988C11.9997 47.5508 12.4477 47.9988 12.9997 47.9988H16.9996C17.5516 47.9988 17.9996 47.5508 17.9996 46.9988V29.6972C24.8373 28.3032 29.9992 22.2434 29.9992 14.9996ZM15.9995 45.9988H13.9996V29.9492C14.3315 29.9692 14.6615 29.9992 14.9996 29.9992C15.3376 29.9992 15.6675 29.9712 15.9996 29.9492L15.9995 45.9988ZM14.9996 27.9993C7.83175 27.9993 1.99991 22.1674 1.99991 14.9996C1.99991 7.83176 7.83175 1.99991 14.9996 1.99991C22.1674 1.99991 27.9992 7.83176 27.9992 14.9996C27.9992 22.1674 22.1673 27.9993 14.9996 27.9993Z" fill="#5E6C5B"/>
</g>
<defs>
<clipPath id="clip0_2560_7228">
<rect width="48" height="48" fill="white"/>
</clipPath>
</defs>
</svg>
