<svg width="52" height="48" viewBox="0 0 52 48" fill="none" xmlns="http://www.w3.org/2000/svg">
<g clip-path="url(#clip0_1421_17403)">
<path d="M37.4393 4.35938C36.1647 4.35938 35.0198 4.87912 34.2381 5.70037C33.4562 4.87912 32.3114 4.35938 31.0368 4.35938C30.4507 4.35938 29.9756 4.79794 29.9756 5.33897C29.9756 5.88 30.4507 6.31856 31.0368 6.31856C32.2168 6.31856 33.1768 7.20478 33.1768 8.29397C33.1768 8.83491 33.652 9.27356 34.2381 9.27356C34.8242 9.27356 35.2993 8.83491 35.2993 8.29397C35.2993 7.20478 36.2594 6.31856 37.4393 6.31856C38.0253 6.31856 38.5005 5.87991 38.5005 5.33897C38.5005 4.79803 38.0253 4.35938 37.4393 4.35938Z" fill="#5E6C5B"/>
<path d="M29.2147 10.3691C27.9401 10.3691 26.7952 10.8889 26.0135 11.7101C25.2316 10.8889 24.0868 10.3691 22.8122 10.3691C22.2261 10.3691 21.751 10.8078 21.751 11.3487C21.751 11.8897 22.2262 12.3283 22.8122 12.3283C23.9922 12.3283 24.9522 13.2145 24.9522 14.3037C24.9522 14.8447 25.4273 15.2833 26.0135 15.2833C26.5995 15.2833 27.0747 14.8447 27.0747 14.3037C27.0747 13.2145 28.0348 12.3283 29.2147 12.3283C29.8008 12.3283 30.2759 11.8897 30.2759 11.3487C30.2759 10.8078 29.8008 10.3691 29.2147 10.3691Z" fill="#5E6C5B"/>
<path d="M20.7069 19.7227C19.4323 19.7227 18.2874 20.2424 17.5056 21.0637C16.7238 20.2424 15.579 19.7227 14.3044 19.7227C13.7183 19.7227 13.2432 20.1613 13.2432 20.7022C13.2432 21.2432 13.7183 21.6818 14.3044 21.6818C15.4843 21.6818 16.4444 22.5681 16.4444 23.6573C16.4444 24.1983 16.9195 24.6368 17.5056 24.6368C18.0917 24.6368 18.5669 24.1983 18.5669 23.6573C18.5669 22.5681 19.5269 21.6818 20.7069 21.6818C21.293 21.6818 21.7681 21.2432 21.7681 20.7022C21.7681 20.1613 21.293 19.7227 20.7069 19.7227Z" fill="#5E6C5B"/>
<path d="M10.3989 2.5957C6.41992 2.5957 3.18262 5.58398 3.18262 9.25692C3.18262 12.9299 6.41992 15.9181 10.3989 15.9181C14.378 15.9181 17.6153 12.9299 17.6153 9.25692C17.6153 5.58389 14.3781 2.5957 10.3989 2.5957ZM10.3989 13.959C7.59012 13.959 5.30507 11.8497 5.30507 9.25692C5.30507 6.66417 7.59023 4.55489 10.3989 4.55489C13.2077 4.55489 15.4928 6.66417 15.4928 9.25692C15.4928 11.8497 13.2079 13.959 10.3989 13.959Z" fill="#5E6C5B"/>
<path d="M51.8937 26.9576L42.539 8.90665C42.3252 8.49387 41.8305 8.27262 41.3469 8.37406C40.8635 8.47522 40.5205 8.87178 40.5205 9.32937V27.3802C40.5204 27.9211 40.9956 28.3598 41.5816 28.3598H50.9365C51.301 28.3598 51.64 28.1871 51.8343 27.9024C52.0287 27.6178 52.0511 27.261 51.8937 26.9576ZM42.6429 26.4005V13.647L49.2523 26.4005H42.6429Z" fill="#5E6C5B"/>
<path d="M38.6712 12.0537C38.1884 11.9524 37.693 12.1734 37.479 12.586L30.0239 26.9579C29.8665 27.2615 29.889 27.6183 30.0832 27.903C30.2775 28.1876 30.6166 28.3605 30.9812 28.3605H38.4363C39.0223 28.3605 39.4975 27.9218 39.4975 27.3809V13.009C39.4974 12.5515 39.1545 12.1551 38.6712 12.0537ZM37.3749 26.4013H32.6659L37.3749 17.323V26.4013Z" fill="#5E6C5B"/>
<path d="M40.4009 34.041H35.1228C34.5367 34.041 34.0615 34.4796 34.0615 35.0206C34.0615 35.5615 34.5367 36.0002 35.1228 36.0002H40.4009C40.9869 36.0002 41.4621 35.5615 41.4621 35.0206C41.4621 34.4796 40.987 34.041 40.4009 34.041Z" fill="#5E6C5B"/>
<path d="M31.5149 34.041H11.4929C10.9069 34.041 10.4316 34.4796 10.4316 35.0206C10.4316 35.5615 10.9068 36.0002 11.4929 36.0002H31.5149C32.1009 36.0002 32.5761 35.5615 32.5761 35.0206C32.5761 34.4796 32.1009 34.041 31.5149 34.041Z" fill="#5E6C5B"/>
<path d="M40.4011 38.7441H38.822C38.236 38.7441 37.7607 39.1827 37.7607 39.7237C37.7607 40.2647 38.236 40.7033 38.822 40.7033H40.4011C40.9871 40.7033 41.4623 40.2647 41.4623 39.7237C41.4623 39.1827 40.9872 38.7441 40.4011 38.7441Z" fill="#5E6C5B"/>
<path d="M20.0628 38.7441H17.5817C16.9956 38.7441 16.5205 39.1827 16.5205 39.7237C16.5205 40.2647 16.9956 40.7033 17.5817 40.7033H20.0628C20.6488 40.7033 21.124 40.2647 21.124 39.7237C21.124 39.1827 20.6488 38.7441 20.0628 38.7441Z" fill="#5E6C5B"/>
<path d="M13.9743 38.7441H11.5993C11.0133 38.7441 10.5381 39.1827 10.5381 39.7237C10.5381 40.2647 11.0133 40.7033 11.5993 40.7033H13.9743C14.5603 40.7033 15.0355 40.2647 15.0355 39.7237C15.0355 39.1827 14.5603 38.7441 13.9743 38.7441Z" fill="#5E6C5B"/>
<path d="M35.2142 38.7441H23.6716C23.0856 38.7441 22.6104 39.1827 22.6104 39.7237C22.6104 40.2647 23.0856 40.7033 23.6716 40.7033H35.2144C35.8004 40.7033 36.2756 40.2647 36.2756 39.7237C36.2754 39.1827 35.8003 38.7441 35.2142 38.7441Z" fill="#5E6C5B"/>
<path d="M45.1021 36.0011H48.3919C50.3815 36.0011 52.0001 34.507 52.0001 32.6704C52.0001 30.8338 50.3815 29.3398 48.3919 29.3398H3.60821C1.6186 29.3398 0 30.8339 0 32.6705C0 34.5071 1.6186 36.0012 3.60821 36.0012H6.16007C6.97937 36.0012 7.64583 36.6163 7.64583 37.3726C7.64583 38.1289 6.97937 38.7441 6.16007 38.7441H6.04906C4.05945 38.7441 2.44085 40.2382 2.44085 42.0747C2.44085 43.9113 4.05945 45.4053 6.04906 45.4053H45.9511C47.9407 45.4053 49.5593 43.9112 49.5593 42.0747C49.5593 40.2382 47.9407 38.7441 45.9511 38.7441H45.1022C44.2829 38.7441 43.6164 38.1289 43.6164 37.3726C43.6163 36.6162 44.2828 36.0011 45.1021 36.0011ZM45.1021 40.7031H45.951C46.7703 40.7031 47.4368 41.3183 47.4368 42.0746C47.4368 42.8308 46.7703 43.446 45.951 43.446H6.04896C5.22966 43.446 4.5632 42.8308 4.5632 42.0746C4.5632 41.3183 5.22966 40.7031 6.04896 40.7031H6.15997C8.14958 40.7031 9.76818 39.209 9.76818 37.3724C9.76818 35.5359 8.14958 34.0419 6.15997 34.0419H3.60821C2.78891 34.0419 2.12245 33.4267 2.12245 32.6704C2.12245 31.9141 2.78891 31.2989 3.60821 31.2989H48.3919C49.2112 31.2989 49.8776 31.9141 49.8776 32.6704C49.8776 33.4267 49.2112 34.0419 48.3919 34.0419H45.1021C43.1125 34.0419 41.494 35.536 41.494 37.3724C41.4939 39.2091 43.1125 40.7031 45.1021 40.7031Z" fill="#5E6C5B"/>
</g>
<defs>
<clipPath id="clip0_1421_17403">
<rect width="52" height="48" fill="white"/>
</clipPath>
</defs>
</svg>
