<svg width="52" height="48" viewBox="0 0 52 48" fill="none" xmlns="http://www.w3.org/2000/svg">
<path d="M51.233 30.3354C50.6428 30.1508 50.0027 30.4429 49.803 30.9877C49.3248 32.2916 48.4387 32.9255 47.0944 32.9255C45.788 32.9255 44.5863 32.0422 44.104 30.7275C43.945 30.2939 43.5067 30.0213 43.037 30.0209C43.0305 30.0207 43.0241 30.0206 43.0178 30.0205C43.0114 30.0206 43.005 30.0207 42.9986 30.0209C42.5288 30.0213 42.0906 30.2939 41.9315 30.7275C41.4494 32.0422 40.2475 32.9255 38.9411 32.9255C37.658 32.9255 36.4774 32.0722 35.9787 30.7961V22.6897C37.478 22.9031 38.8946 23.4996 40.0516 24.4188C40.3104 24.6251 40.6413 24.7386 40.9835 24.7386C41.3643 24.7386 41.7357 24.5949 42.0043 24.3425C42.9001 23.4971 44.1005 23.0311 45.3833 23.0305C46.6709 23.0305 47.8753 23.5014 48.7714 24.3535C49.0561 24.6263 49.473 24.7758 49.8861 24.7542C50.6434 24.7164 51.2365 24.1384 51.2365 23.4376C51.2309 16.9344 44.4804 11.5958 35.9789 11.1755V8.07042C35.9789 7.49551 35.4738 7.0293 34.851 7.0293C34.2282 7.0293 33.7231 7.49551 33.7231 8.07042V11.178C25.2461 11.6176 18.5233 16.9478 18.5179 23.4384C18.5179 24.1385 19.1111 24.7164 19.8626 24.7539C19.8907 24.7555 19.9189 24.7562 19.9472 24.7562C20.3385 24.7562 20.7159 24.6098 20.9805 24.3566C21.8794 23.5015 23.0836 23.0306 24.3711 23.0306C25.6538 23.0312 26.8542 23.4972 27.7508 24.3427C28.0175 24.5943 28.3894 24.7387 28.7709 24.7387C29.112 24.7387 29.4425 24.6256 29.7015 24.42C30.8463 23.5106 32.2437 22.9179 33.7233 22.698V30.8626C33.21 32.1017 32.0487 32.9255 30.7882 32.9255C29.4819 32.9255 28.2801 32.0422 27.7977 30.7275C27.6388 30.2941 27.2004 30.0215 26.731 30.0209C26.7244 30.0207 26.718 30.0206 26.7115 30.0205C26.705 30.0206 26.6985 30.0207 26.6921 30.0209C26.2224 30.0215 25.7845 30.294 25.6254 30.7275C25.1431 32.0422 23.9413 32.9255 22.635 32.9255C21.3287 32.9255 20.1269 32.0422 19.6445 30.7275C19.4856 30.2941 19.0472 30.0215 18.5778 30.0209C18.5712 30.0207 18.5648 30.0206 18.5582 30.0205C18.5518 30.0206 18.5453 30.0207 18.5388 30.0209C18.0692 30.0215 17.6312 30.294 17.4722 30.7275C16.9899 32.0422 15.7881 32.9255 14.4817 32.9255C13.1375 32.9255 12.2516 32.2916 11.7731 30.9877C11.5734 30.443 10.9328 30.1508 10.3431 30.3354C9.75311 30.5198 9.43674 31.1108 9.63648 31.6554C10.418 33.7859 12.184 35.0077 14.4816 35.0077C16.0617 35.0077 17.5381 34.3063 18.5582 33.1537C19.5784 34.3063 21.0548 35.0077 22.6348 35.0077C24.2149 35.0077 25.6913 34.3063 26.7115 33.1537C27.7316 34.3063 29.208 35.0077 30.7881 35.0077C31.8486 35.0077 32.8625 34.6917 33.7231 34.1356V37.6505C33.1727 38.7791 32.0691 39.5167 30.8765 39.5167C29.5702 39.5167 28.3684 38.6334 27.886 37.3187C27.727 36.8852 27.2886 36.6126 26.8192 36.6121C26.8127 36.6119 26.8062 36.6118 26.7998 36.6117C26.7933 36.6118 26.7868 36.6119 26.7804 36.6121C26.3107 36.6126 25.8727 36.8853 25.7137 37.3187C25.2315 38.6334 24.0296 39.5167 22.7233 39.5167C21.417 39.5167 20.2152 38.6334 19.7328 37.3187C19.5738 36.8852 19.1354 36.6126 18.666 36.6121C18.6595 36.6119 18.653 36.6118 18.6466 36.6117C18.6401 36.6118 18.6336 36.6119 18.6272 36.6121C18.1575 36.6126 17.7194 36.8853 17.5605 37.3187C17.0782 38.6334 15.8764 39.5167 14.5701 39.5167C13.2637 39.5167 12.062 38.6334 11.5796 37.3187C11.4206 36.8852 10.9822 36.6126 10.5127 36.6121C10.5063 36.6119 10.4998 36.6118 10.4933 36.6117C10.4869 36.6118 10.4804 36.6119 10.4739 36.6121C10.0043 36.6126 9.56622 36.8853 9.4073 37.3187C8.92502 38.6334 7.72315 39.5167 6.41684 39.5167C5.07252 39.5167 4.18657 38.8828 3.70823 37.5789C3.50848 37.0343 2.86853 36.742 2.27819 36.9266C1.68831 37.111 1.37183 37.7019 1.57158 38.2467C2.35297 40.3771 4.11901 41.599 6.41672 41.599C7.99677 41.599 9.47317 40.8976 10.4933 39.7449C11.5135 40.8976 12.9899 41.599 14.5699 41.599C16.15 41.599 17.6264 40.8976 18.6466 39.7449C19.6667 40.8976 21.1431 41.599 22.7232 41.599C24.3032 41.599 25.7796 40.8976 26.7998 39.7449C27.8199 40.8976 29.2963 41.599 30.8764 41.599C31.9009 41.599 32.8816 41.3035 33.723 40.782V44.0932C33.723 44.6681 34.2281 45.1343 34.8509 45.1343C35.4737 45.1343 35.9788 44.6681 35.9788 44.0932V40.6491C36.8637 41.2531 37.921 41.599 39.0296 41.599C41.3273 41.599 43.0934 40.3771 43.8747 38.2467C44.0745 37.702 43.7581 37.111 43.1681 36.9266C42.5781 36.742 41.938 37.0342 41.7381 37.5789C41.2599 38.8828 40.3738 39.5167 39.0295 39.5167C37.7231 39.5167 36.5214 38.6334 36.0391 37.3187C36.0223 37.2729 36.0014 37.2296 35.9787 37.1875V34.1179C36.8452 34.6851 37.8694 35.0078 38.9411 35.0078C40.5212 35.0078 41.9976 34.3064 43.0178 33.1539C44.0378 34.3065 45.5143 35.0078 47.0944 35.0078C49.3921 35.0078 51.1581 33.786 51.9395 31.6555C52.1394 31.1108 51.823 30.5198 51.233 30.3354ZM28.8075 22.4151C27.5617 21.4655 26.0126 20.9492 24.3717 20.9483C23.1571 20.9483 21.9931 21.2315 20.9641 21.7651C22.0719 16.9323 27.8748 13.2345 34.8439 13.2301L34.8774 13.2305C34.889 13.2305 34.9 13.2304 34.9111 13.2301C41.8801 13.2347 47.6825 16.9326 48.7905 21.7648C47.7619 21.2317 46.5978 20.9484 45.3829 20.9484C43.7414 20.9493 42.1916 21.4661 40.9472 22.4152C39.2023 21.2183 37.0798 20.5499 34.8941 20.5202L34.8775 20.52L34.861 20.5202C32.6754 20.5498 30.5528 21.2182 28.8075 22.4151Z" fill="#5E6C5B"/>
<path d="M5.23979 13.7825C5.40356 14.496 5.72771 15.155 6.17492 15.7271C6.16589 15.7348 6.15642 15.7418 6.14762 15.7499L3.70542 18.0044C3.35307 18.3296 3.35307 18.8569 3.70554 19.1822C3.88171 19.3448 4.11247 19.4261 4.34346 19.4261C4.57445 19.4261 4.80533 19.3448 4.98151 19.1821L7.4237 16.9276C7.43239 16.9196 7.43995 16.9109 7.44829 16.9026C8.07675 17.3212 8.80164 17.6235 9.58698 17.7725V21.7094C9.58698 22.1694 9.99098 22.5423 10.4893 22.5423C10.9876 22.5423 11.3916 22.1694 11.3916 21.7094V17.8392C12.3505 17.7322 13.2351 17.401 13.9824 16.9036L16.4509 19.1822C16.6272 19.3448 16.858 19.4261 17.089 19.4261C17.3199 19.4261 17.5508 19.3448 17.727 19.1822C18.0793 18.8568 18.0793 18.3296 17.727 18.0043L15.2585 15.7257C15.7021 15.1577 16.0242 14.5042 16.1889 13.797H20.5274C21.0257 13.797 21.4297 13.4241 21.4297 12.9641C21.4297 12.5041 21.0257 12.1312 20.5274 12.1312H16.2782C16.1686 11.2291 15.8063 10.397 15.2585 9.69571L17.727 7.41711C18.0793 7.09176 18.0793 6.56454 17.727 6.23919C17.3745 5.91405 16.8034 5.91405 16.4509 6.23919L13.9824 8.51779C13.2351 8.02034 12.3505 7.68906 11.3916 7.58213V3.69813C11.3916 3.23816 10.9876 2.86523 10.4893 2.86523C9.99098 2.86523 9.58698 3.23816 9.58698 3.69813V7.64887C8.80231 7.79775 8.07799 8.09978 7.44998 8.51779L4.98151 6.23919C4.62904 5.91405 4.05789 5.91405 3.70542 6.23919C3.35307 6.56454 3.35307 7.09176 3.70542 7.41711L6.17379 9.69561C5.62519 10.3978 5.26257 11.2312 5.15351 12.1347C5.12768 12.1327 5.10185 12.1311 5.07546 12.1311H0.902304C0.404007 12.1311 0 12.504 0 12.964C0 13.424 0.404007 13.7969 0.902304 13.7969H5.07546C5.13163 13.797 5.18644 13.7916 5.23979 13.7825ZM10.7162 9.20888C12.808 9.20888 14.5098 10.7798 14.5098 12.7107C14.5098 14.6415 12.808 16.2125 10.7162 16.2125C8.62433 16.2125 6.92247 14.6415 6.92247 12.7107C6.92247 10.7798 8.62433 9.20888 10.7162 9.20888Z" fill="#5E6C5B"/>
</svg>
