<svg width="28" height="28" viewBox="0 0 28 28" fill="none" xmlns="http://www.w3.org/2000/svg">
<path fill-rule="evenodd" clip-rule="evenodd" d="M13.5455 3.85367C13.8296 3.77282 14.1292 3.77275 14.4133 3.85336C15.017 4.0247 15.6264 4.18363 16.2378 4.34309C19.1087 5.09186 22.0245 5.85232 24.6186 7.96517L25.8132 8.93816C26.2977 9.33283 26.5401 9.91701 26.5404 10.5013V18.668C26.5404 19.1512 26.1486 19.543 25.6654 19.543C25.1821 19.543 24.7904 19.1512 24.7904 18.668V12.9008L24.6003 13.0559C23.7014 13.7894 22.7636 14.3589 21.8023 14.8213C21.8483 14.9276 21.8737 15.0448 21.8737 15.168V20.1775C21.8737 21.4997 21.0626 22.6865 19.8307 23.1667L15.1641 24.9861C14.4146 25.2783 13.5828 25.2783 12.8333 24.9861L8.16665 23.1667C6.93479 22.6865 6.1237 21.4997 6.1237 20.1775V15.168C6.1237 15.0417 6.15044 14.9217 6.19858 14.8133C5.22983 14.3482 4.28471 13.7753 3.37882 13.0374L2.18422 12.0644C1.21512 11.2751 1.21461 9.72772 2.18287 8.93759L3.39711 7.94673C5.97246 5.84518 8.86761 5.08926 11.7173 4.34521C12.33 4.18523 12.9406 4.0258 13.5455 3.85367ZM24.7904 10.502C24.7903 10.3969 24.7479 10.3275 24.708 10.295L23.5134 9.32205C20.9987 7.58464 18.7579 6.81836 15.9119 6.07049C15.2861 5.90604 14.6426 5.73694 13.98 5.54949C13.3144 5.73829 12.6686 5.90821 12.0407 6.07339C9.21746 6.81613 6.75746 7.46331 4.50353 9.30259L3.28928 10.2934C3.2494 10.326 3.20699 10.3955 3.20703 10.5006C3.20707 10.6057 3.24954 10.6751 3.28938 10.7076L4.48398 11.6806C6.75702 13.5319 9.23946 14.1842 12.0855 14.9321C12.7113 15.0966 13.3548 15.2657 14.0174 15.4531C14.6829 15.2643 15.3287 15.0944 15.9566 14.9292C18.7798 14.1865 21.2399 13.5393 23.4939 11.7L24.7081 10.7092C24.748 10.6766 24.7903 10.6069 24.7904 10.502ZM16.2801 16.6574C17.5632 16.3224 18.8555 15.985 20.1237 15.5234V20.1775C20.1237 20.7785 19.755 21.318 19.1951 21.5363L14.5284 23.3556C14.1878 23.4884 13.8096 23.4884 13.469 23.3556L8.80231 21.5363C8.24238 21.318 7.8737 20.7785 7.8737 20.1775V15.5135C9.1556 15.9804 10.4622 16.3211 11.7596 16.6595C12.371 16.819 12.9804 16.9779 13.5841 17.1492C13.8682 17.2299 14.1678 17.2298 14.4519 17.1489C15.0567 16.9768 15.6674 16.8174 16.2801 16.6574Z" fill="#5E6C5B"/>
</svg>
