<svg width="12" height="12" viewBox="0 0 12 12" fill="none" xmlns="http://www.w3.org/2000/svg">
<path d="M11.0032 5.41111L10.205 4.61192C10.0684 4.47521 9.95816 4.20706 9.95816 4.01778V2.88207C9.95816 2.41938 9.58007 2.04081 9.11795 2.04081H7.98892C7.79988 2.04081 7.53206 1.9304 7.39552 1.79369L6.59733 0.994492C6.27174 0.668503 5.73611 0.668503 5.41053 0.994492L4.60183 1.79369C4.47055 1.9304 4.20273 2.04081 4.00844 2.04081H2.87941C2.41729 2.04081 2.0392 2.41938 2.0392 2.88207V4.01252C2.0392 4.2018 1.92892 4.46996 1.79238 4.60666L0.994186 5.40586C0.668605 5.73185 0.668605 6.26815 0.994186 6.59414L1.79238 7.39334C1.92892 7.53004 2.0392 7.7982 2.0392 7.98748V9.11793C2.0392 9.58062 2.41729 9.95919 2.87941 9.95919H4.00844C4.19748 9.95919 4.4653 10.0696 4.60183 10.2063L5.40003 11.0055C5.72561 11.3315 6.26124 11.3315 6.58682 11.0055L7.38502 10.2063C7.52156 10.0696 7.78937 9.95919 7.97842 9.95919H9.10745C9.56957 9.95919 9.94766 9.58062 9.94766 9.11793V7.98748C9.94766 7.7982 10.0579 7.53004 10.1945 7.39334L10.9927 6.59414C11.334 6.27341 11.334 5.7371 11.0032 5.41111ZM3.89816 4.42789C3.89816 4.13871 4.13447 3.9021 4.42329 3.9021C4.71211 3.9021 4.94842 4.13871 4.94842 4.42789C4.94842 4.71708 4.71736 4.95368 4.42329 4.95368C4.13447 4.95368 3.89816 4.71708 3.89816 4.42789ZM4.70161 7.86129C4.62284 7.94016 4.52306 7.97696 4.42329 7.97696C4.32351 7.97696 4.22374 7.94016 4.14497 7.86129C3.99268 7.70881 3.99268 7.45643 4.14497 7.30395L7.29575 4.14923C7.44804 3.99675 7.7001 3.99675 7.85239 4.14923C8.00468 4.3017 8.00468 4.55408 7.85239 4.70656L4.70161 7.86129ZM7.57407 8.10841C7.28 8.10841 7.04369 7.87181 7.04369 7.58262C7.04369 7.29344 7.28 7.05683 7.56882 7.05683C7.85764 7.05683 8.09395 7.29344 8.09395 7.58262C8.09395 7.87181 7.86289 8.10841 7.57407 8.10841Z" fill="#5E6C5B"/>
</svg>
