<svg width="12" height="12" viewBox="0 0 12 12" fill="none" xmlns="http://www.w3.org/2000/svg">
<g clip-path="url(#clip0_2444_26491)">
<path d="M9.93643 2.64914V0.715359C9.93643 0.320367 9.61606 0 9.22109 0H1.55511C1.16012 0 0.839844 0.320367 0.839844 0.715359V2.64914C0.839844 3.04413 1.16014 3.3645 1.55511 3.3645H9.22109C9.61606 3.3645 9.93643 3.04416 9.93643 2.64914Z" fill="#5E6C5B"/>
<path d="M4.5 11.0688C4.5 11.583 4.91681 11.9996 5.4308 11.9996H5.49293C6.00691 11.9996 6.42366 11.583 6.42366 11.0688V7.7168H4.5V11.0688Z" fill="#5E6C5B"/>
<path d="M10.4433 1.37695V2.50177V3.2502C10.4433 3.4616 10.3144 3.65241 10.1178 3.73144L10.1067 3.73584L5.88067 5.76717L5.88109 5.76806C5.42406 5.96222 5.125 6.40964 5.125 6.90797V7.2968H5.84598V6.90797C5.84598 6.69605 5.97473 6.50557 6.17127 6.42656L6.18252 6.42197L10.4084 4.39083L10.4079 4.38994C10.8654 4.19578 11.1643 3.74834 11.1643 3.2502V2.50177C11.1641 2.00236 10.8685 1.57341 10.4433 1.37695Z" fill="#5E6C5B"/>
</g>
<defs>
<clipPath id="clip0_2444_26491">
<rect width="12" height="12" fill="white"/>
</clipPath>
</defs>
</svg>
