<svg width="28" height="28" viewBox="0 0 28 28" fill="none" xmlns="http://www.w3.org/2000/svg">
<path fill-rule="evenodd" clip-rule="evenodd" d="M8.45608 11.6673C8.45608 8.60674 10.9372 6.12565 13.9978 6.12565C17.0583 6.12565 19.5394 8.60674 19.5394 11.6673C19.5394 14.7279 17.0583 17.209 13.9978 17.209C10.9372 17.209 8.45608 14.7279 8.45608 11.6673ZM13.9978 7.87565C11.9037 7.87565 10.2061 9.57324 10.2061 11.6673C10.2061 13.7614 11.9037 15.459 13.9978 15.459C16.0918 15.459 17.7894 13.7614 17.7894 11.6673C17.7894 9.57324 16.0918 7.87565 13.9978 7.87565Z" fill="#5E6C5B"/>
<path fill-rule="evenodd" clip-rule="evenodd" d="M4.10951 10.3336C4.52289 5.3186 8.71373 1.45898 13.7458 1.45898H14.2497C19.2818 1.45898 23.4726 5.3186 23.886 10.3336C24.1081 13.0277 23.2759 15.7027 21.5648 17.7953L15.9729 24.6341C14.9521 25.8825 13.0434 25.8825 12.0226 24.6341L6.43071 17.7953C4.71961 15.7027 3.88745 13.0277 4.10951 10.3336ZM13.7458 3.20898C9.62449 3.20898 6.19216 6.37004 5.85359 10.4774C5.66878 12.7196 6.36136 14.9459 7.78547 16.6876L13.3774 23.5263C13.698 23.9184 14.2975 23.9184 14.6181 23.5263L20.21 16.6876C21.6341 14.9459 22.3267 12.7196 22.1419 10.4774C21.8033 6.37004 18.371 3.20898 14.2497 3.20898H13.7458Z" fill="#5E6C5B"/>
</svg>
