<svg width="80" height="80" viewBox="0 0 80 80" fill="none" xmlns="http://www.w3.org/2000/svg">
<g clip-path="url(#clip0_2348_31607)">
<path d="M57.9001 39.714C57.9001 29.6689 49.7569 21.5257 39.7118 21.5257C29.6666 21.5257 21.5234 29.6689 21.5234 39.714C21.5234 49.7591 29.6666 57.9023 39.7118 57.9023C49.7569 57.9023 57.9001 49.7591 57.9001 39.714Z" stroke="#8E9099" stroke-width="2"/>
<path d="M74.7083 41.1513C74.7083 41.8438 74.5472 42.4678 74.2249 43.0233C73.9095 43.5787 73.4706 44.0141 72.9083 44.3295C72.3529 44.6518 71.7255 44.813 71.026 44.813C70.3266 44.813 69.6957 44.6518 69.1335 44.3295C68.578 44.0141 68.1392 43.5787 67.8169 43.0233C67.5015 42.4678 67.3438 41.8438 67.3438 41.1513C67.3438 40.5067 67.4843 39.9204 67.7655 39.3924C68.0466 38.8644 68.434 38.4358 68.9277 38.1067C69.4215 37.7775 69.9837 37.5821 70.6146 37.5204V36.2038H67.426V35.1855H74.626V36.2038H71.5403V37.5307C72.1506 37.6061 72.6957 37.8084 73.1757 38.1375C73.6557 38.4735 74.0295 38.9021 74.2969 39.4233C74.5712 39.9444 74.7083 40.5204 74.7083 41.1513ZM68.2695 41.1513C68.2695 41.645 68.386 42.0907 68.6192 42.4884C68.8592 42.893 69.1883 43.2084 69.6066 43.4347C70.0249 43.6678 70.498 43.7844 71.026 43.7844C71.554 43.7844 72.0272 43.6678 72.4455 43.4347C72.8637 43.2084 73.1895 42.893 73.4226 42.4884C73.6626 42.0907 73.7826 41.645 73.7826 41.1513C73.7826 40.6644 73.6626 40.2221 73.4226 39.8244C73.1895 39.4267 72.8637 39.1113 72.4455 38.8781C72.0272 38.6518 71.554 38.5387 71.026 38.5387C70.498 38.5387 70.0249 38.6518 69.6066 38.8781C69.1883 39.1113 68.8592 39.4267 68.6192 39.8244C68.386 40.2221 68.2695 40.6644 68.2695 41.1513Z" fill="#8E9099"/>
<path d="M65.2925 39.6561L57.7131 42.7995L57.6445 36.6836L65.2925 39.6561Z" fill="#8E9099"/>
<path d="M14.0078 39.9033L21.5872 36.7598L21.6559 42.8757L14.0078 39.9033Z" fill="#8E9099"/>
<path d="M12.0833 38.8459C12.0833 39.5659 11.9256 40.2173 11.6102 40.8002C11.2879 41.3762 10.849 41.8288 10.2936 42.1579C9.73132 42.487 9.10046 42.6516 8.40104 42.6516C7.70161 42.6516 7.07418 42.487 6.51875 42.1579C5.95646 41.8288 5.51761 41.3728 5.20218 40.7899C4.87989 40.207 4.71875 39.5556 4.71875 38.8356C4.71875 38.2733 4.81475 37.759 5.00675 37.2928C5.19189 36.8265 5.46961 36.4288 5.83989 36.0996L6.48789 36.7682C5.91875 37.3099 5.63418 37.9853 5.63418 38.7945C5.63418 39.3293 5.75418 39.8128 5.99418 40.2448C6.23418 40.6768 6.56675 41.0162 6.99189 41.263C7.41018 41.503 7.87989 41.623 8.40104 41.623C8.92218 41.623 9.39532 41.503 9.82046 41.263C10.2388 41.0162 10.5679 40.6768 10.8079 40.2448C11.0479 39.8128 11.1679 39.3293 11.1679 38.7945C11.1679 37.9922 10.8799 37.3168 10.3039 36.7682L10.9519 36.0996C11.3222 36.4288 11.6033 36.8299 11.7953 37.303C11.9873 37.7693 12.0833 38.2836 12.0833 38.8459Z" fill="#8E9099"/>
<path d="M41.258 8.26707C41.7449 8.38364 42.1117 8.59278 42.3586 8.8945C42.6123 9.18935 42.7392 9.56992 42.7392 10.0362C42.7392 10.6602 42.5094 11.1436 42.05 11.4865C41.5974 11.8294 40.9357 12.0008 40.0649 12.0008H36.7734V4.80078H39.8694C40.658 4.80078 41.2717 4.96192 41.7106 5.28421C42.1563 5.59964 42.3792 6.05564 42.3792 6.65221C42.3792 7.04307 42.2797 7.37564 42.0809 7.64992C41.8889 7.92421 41.6146 8.12992 41.258 8.26707ZM37.7917 7.96878H39.7974C40.298 7.96878 40.6786 7.86935 40.9392 7.6705C41.2066 7.47164 41.3403 7.18021 41.3403 6.79621C41.3403 6.41221 41.2066 6.12078 40.9392 5.92192C40.6717 5.71621 40.2912 5.61335 39.7974 5.61335H37.7917V7.96878ZM40.0443 11.1882C41.1483 11.1882 41.7003 10.7768 41.7003 9.95392C41.7003 9.5425 41.5597 9.24078 41.2786 9.04878C41.0043 8.84992 40.5929 8.7505 40.0443 8.7505H37.7917V11.1882H40.0443Z" fill="#8E9099"/>
<path d="M39.745 65.4957L36.6016 57.9162L42.7175 57.8477L39.745 65.4957Z" fill="#8E9099"/>
<path d="M39.4959 14.2129L42.6394 21.7924L36.5234 21.861L39.4959 14.2129Z" fill="#8E9099"/>
<path d="M38.2291 71.1823C37.7765 71.0588 37.4233 70.8428 37.1696 70.5343C36.9159 70.2326 36.7891 69.8691 36.7891 69.444C36.7891 69.0188 36.9262 68.6451 37.2005 68.3228C37.4679 68.0074 37.8279 67.764 38.2805 67.5926C38.7262 67.428 39.2131 67.3457 39.7411 67.3457C40.2211 67.3457 40.6976 67.4177 41.1708 67.5617C41.6439 67.7057 42.0759 67.9217 42.4668 68.2097L42.1068 68.9708C41.7913 68.724 41.4382 68.5388 41.0473 68.4154C40.6565 68.292 40.2622 68.2303 39.8645 68.2303C39.2885 68.2303 38.8051 68.3503 38.4142 68.5903C38.0233 68.8371 37.8279 69.1731 37.8279 69.5983C37.8279 69.9617 37.9753 70.2394 38.2702 70.4314C38.5651 70.6303 38.9799 70.7297 39.5148 70.7297H41.1193V71.5628H39.5868C39.1273 71.5628 38.7708 71.6554 38.5171 71.8406C38.2565 72.0326 38.1262 72.2966 38.1262 72.6326C38.1262 73.0097 38.2942 73.308 38.6302 73.5274C38.9662 73.7468 39.3913 73.8566 39.9056 73.8566C40.2416 73.8566 40.5845 73.8086 40.9342 73.7126C41.2771 73.6166 41.6028 73.4726 41.9113 73.2806L42.2405 74.124C41.8771 74.3297 41.4931 74.484 41.0885 74.5868C40.6839 74.6897 40.2793 74.7411 39.8748 74.7411C39.3673 74.7411 38.9011 74.6623 38.4759 74.5046C38.0508 74.3468 37.7148 74.1171 37.4679 73.8154C37.2142 73.5137 37.0874 73.1606 37.0874 72.756C37.0874 72.3926 37.1902 72.0737 37.3959 71.7994C37.5948 71.5251 37.8725 71.3194 38.2291 71.1823Z" fill="#8E9099"/>
</g>
<defs>
<clipPath id="clip0_2348_31607">
<rect width="80" height="80" fill="white"/>
</clipPath>
</defs>
</svg>
