<svg width="48" height="48" viewBox="0 0 48 48" fill="none" xmlns="http://www.w3.org/2000/svg">
<path fill-rule="evenodd" clip-rule="evenodd" d="M5 13.1429V33.8571C5 36.1452 6.89035 38 9.22222 38H38.7778C41.1097 38 43 36.1452 43 33.8571V13.1429C43 10.8548 41.1097 9 38.7778 9H9.22222C6.89035 9 5 10.8548 5 13.1429Z" stroke="#5E6C5B" stroke-width="2.6" stroke-linecap="round" stroke-linejoin="round"/>
<path d="M30 20H36" stroke="#5E6C5B" stroke-width="2.6" stroke-linecap="round"/>
<path d="M30 26H36" stroke="#5E6C5B" stroke-width="2.6" stroke-linecap="round"/>
<path fill-rule="evenodd" clip-rule="evenodd" d="M22 19.5C22 21.9853 19.9853 24 17.5 24C15.0147 24 13 21.9853 13 19.5C13 17.0147 15.0147 15 17.5 15C18.6934 15 19.838 15.4741 20.6819 16.318C21.5259 17.1619 22 18.3065 22 19.5Z" stroke="#5E6C5B" stroke-width="2.6" stroke-linecap="round" stroke-linejoin="round"/>
<path d="M9 32C14.9139 25.7258 21.8605 27.6979 26 32" stroke="#5E6C5B" stroke-width="2.6" stroke-linecap="round"/>
</svg>
