<svg width="48" height="48" viewBox="0 0 48 48" fill="none" xmlns="http://www.w3.org/2000/svg">
<g clip-path="url(#clip0_1445_6263)">
<path d="M29 38H9.22222C6.89035 38 5 36.1452 5 33.8571V13.1429C5 10.8548 6.89035 9 9.22222 9H38.7778C41.1097 9 43 10.8548 43 13.1429V17" stroke="#5E6C5B" stroke-width="2.5" stroke-linecap="round" stroke-linejoin="round"/>
<path d="M12 17H24H36" stroke="#5E6C5B" stroke-width="2.5" stroke-linecap="round"/>
<path d="M12 23H24" stroke="#5E6C5B" stroke-width="2.5" stroke-linecap="round"/>
<path d="M12 30H24" stroke="#5E6C5B" stroke-width="2.5" stroke-linecap="round"/>
<mask id="path-5-inside-1_1445_6263" fill="white">
<path d="M39.5393 21.9056C39.605 21.1911 40.2418 20.6553 40.9377 20.8299C42.2912 21.1696 43.5461 21.8421 44.5841 22.7948C45.9429 24.042 46.855 25.7005 47.1803 27.516C47.5057 29.3314 47.2264 31.2035 46.3852 32.8449C45.5441 34.4863 44.1877 35.8064 42.524 36.6026C40.8604 37.3988 38.9814 37.6271 37.1755 37.2525C35.3695 36.878 33.7364 35.9212 32.5266 34.529C31.3168 33.1368 30.5973 31.3862 30.4784 29.5456C30.3875 28.1396 30.651 26.7405 31.2354 25.4733C31.536 24.8218 32.3527 24.6619 32.9504 25.059C33.548 25.456 33.6948 26.2602 33.4397 26.9309C33.1449 27.7062 33.0172 28.5404 33.0713 29.3781C33.1535 30.651 33.6512 31.8618 34.4879 32.8247C35.3246 33.7876 36.4541 34.4493 37.7032 34.7083C38.9522 34.9674 40.2517 34.8095 41.4023 34.2588C42.553 33.7081 43.4911 32.7951 44.0728 31.6599C44.6546 30.5247 44.8478 29.2299 44.6227 27.9743C44.3977 26.7187 43.7669 25.5716 42.8272 24.7091C42.2087 24.1414 41.4789 23.7176 40.6901 23.4609C40.0079 23.2388 39.4736 22.6201 39.5393 21.9056Z"/>
</mask>
<path d="M39.5393 21.9056C39.605 21.1911 40.2418 20.6553 40.9377 20.8299C42.2912 21.1696 43.5461 21.8421 44.5841 22.7948C45.9429 24.042 46.855 25.7005 47.1803 27.516C47.5057 29.3314 47.2264 31.2035 46.3852 32.8449C45.5441 34.4863 44.1877 35.8064 42.524 36.6026C40.8604 37.3988 38.9814 37.6271 37.1755 37.2525C35.3695 36.878 33.7364 35.9212 32.5266 34.529C31.3168 33.1368 30.5973 31.3862 30.4784 29.5456C30.3875 28.1396 30.651 26.7405 31.2354 25.4733C31.536 24.8218 32.3527 24.6619 32.9504 25.059C33.548 25.456 33.6948 26.2602 33.4397 26.9309C33.1449 27.7062 33.0172 28.5404 33.0713 29.3781C33.1535 30.651 33.6512 31.8618 34.4879 32.8247C35.3246 33.7876 36.4541 34.4493 37.7032 34.7083C38.9522 34.9674 40.2517 34.8095 41.4023 34.2588C42.553 33.7081 43.4911 32.7951 44.0728 31.6599C44.6546 30.5247 44.8478 29.2299 44.6227 27.9743C44.3977 26.7187 43.7669 25.5716 42.8272 24.7091C42.2087 24.1414 41.4789 23.7176 40.6901 23.4609C40.0079 23.2388 39.4736 22.6201 39.5393 21.9056Z" stroke="#5E6C5B" stroke-width="5" mask="url(#path-5-inside-1_1445_6263)"/>
<path d="M34 35C34 35.3311 34 38.8814 34 42.0797C34 42.8887 34.9107 43.3625 35.5735 42.8986L38.453 40.8829C38.7841 40.6511 39.2223 40.6415 39.5633 40.8585L42.9631 43.022C43.6288 43.4456 44.5 42.9674 44.5 42.1783V33.5" stroke="#5E6C5B" stroke-width="2.5"/>
</g>
<defs>
<clipPath id="clip0_1445_6263">
<rect width="48" height="48" fill="white"/>
</clipPath>
</defs>
</svg>
