<svg width="48" height="48" viewBox="0 0 48 48" fill="none" xmlns="http://www.w3.org/2000/svg">
<g clip-path="url(#clip0_1445_14291)">
<path d="M40.8542 35.1247C40.3649 34.8943 39.781 35.1047 39.5509 35.5942C39.1137 36.5235 38.1711 37.124 37.1493 37.124C36.1272 37.124 35.1847 36.5236 34.7479 35.5944C34.5864 35.2509 34.2411 35.0315 33.8615 35.0315C33.482 35.0315 33.1365 35.2507 32.975 35.5942C32.5378 36.5235 31.5953 37.124 30.5735 37.124C29.5514 37.124 28.6088 36.5236 28.172 35.5944C28.0106 35.2509 27.6652 35.0315 27.2856 35.0315C27.2855 35.0315 27.2856 35.0315 27.2855 35.0315C26.906 35.0315 26.5606 35.2507 26.399 35.5942C25.962 36.5235 25.0195 37.124 23.9977 37.124C22.9755 37.124 22.0329 36.5236 21.5963 35.5945C21.4349 35.251 21.0895 35.0316 20.7099 35.0315C20.7098 35.0315 20.7098 35.0315 20.7098 35.0315C20.3302 35.0315 19.9848 35.2508 19.8233 35.5942C19.3862 36.5235 18.4435 37.124 17.4217 37.124C16.3997 37.124 15.4571 36.5236 15.0205 35.5945C14.8591 35.251 14.5137 35.0316 14.1341 35.0315C14.134 35.0315 14.134 35.0315 14.1339 35.0315C13.7544 35.0315 13.4091 35.2506 13.2475 35.5941C12.8104 36.5234 11.8677 37.124 10.8459 37.124C9.82388 37.124 8.88123 36.5236 8.44445 35.5944C8.21439 35.1049 7.63089 34.8943 7.14123 35.1246C6.65167 35.3547 6.4412 35.9383 6.67145 36.4278C7.42951 38.0409 9.06826 39.0832 10.8459 39.0832C12.0967 39.0832 13.2787 38.5669 14.1337 37.699C14.9886 38.567 16.1706 39.0832 17.4218 39.0832C18.6725 39.0832 19.8547 38.5669 20.7096 37.699C21.5646 38.567 22.7466 39.0832 23.9978 39.0832C25.2485 39.0832 26.4306 38.5669 27.2855 37.699C28.1405 38.567 29.3225 39.0832 30.5736 39.0832C31.8244 39.0832 33.0064 38.5669 33.8615 37.699C34.7164 38.567 35.8985 39.0832 37.1495 39.0832C38.9267 39.0832 40.5652 38.0409 41.3239 36.428C41.554 35.9385 41.3438 35.355 40.8542 35.1247Z" fill="#5E6C5B"/>
<path d="M47.4359 29.9235C46.9463 29.6939 46.3628 29.9049 46.1331 30.3948C45.6973 31.3246 44.7531 31.9254 43.7278 31.9254C42.7057 31.9254 41.7631 31.325 41.3265 30.3958C41.1651 30.0523 40.8197 29.833 40.4401 29.8329C40.44 29.8329 40.44 29.8329 40.4399 29.8329C40.0604 29.8329 39.715 30.0522 39.5535 30.3956C39.1163 31.3249 38.1737 31.9254 37.1519 31.9254C36.1299 31.9254 35.1873 31.325 34.7505 30.3958C34.5891 30.0523 34.2437 29.8329 33.8641 29.8329C33.4846 29.8329 33.1391 30.0522 32.9776 30.3956C32.5405 31.3249 31.5979 31.9254 30.5761 31.9254C29.6194 31.9254 28.7324 31.3993 28.2646 30.5698C28.1443 25.1007 23.9694 20.616 18.6383 20.0181V16.2374C18.6383 15.6964 18.1998 15.2578 17.6587 15.2578C17.1178 15.2578 16.6791 15.6964 16.6791 16.2374V19.9758C11.1261 20.3553 6.70793 24.9411 6.5839 30.5695C6.11609 31.3991 5.22903 31.9253 4.2726 31.9253C3.24698 31.9253 2.30264 31.3245 1.8668 30.3947C1.6372 29.905 1.05408 29.6941 0.564052 29.9234C0.0742103 30.1531 -0.136726 30.7364 0.0927727 31.2262C0.84952 32.841 2.49004 33.8845 4.27223 33.8845C5.52294 33.8845 6.70503 33.3682 7.56002 32.5002C8.41502 33.3683 9.59702 33.8845 10.8481 33.8845C12.0988 33.8845 13.2809 33.3682 14.1359 32.5002C14.9908 33.3683 16.1728 33.8845 17.424 33.8845C18.6747 33.8845 19.8569 33.3681 20.7118 32.5002C21.5668 33.3683 22.7488 33.8845 24 33.8845C25.2507 33.8845 26.4328 33.3682 27.2877 32.5002C28.1427 33.3683 29.3247 33.8845 30.5757 33.8845C31.8266 33.8845 33.0086 33.3682 33.8636 32.5002C34.7185 33.3683 35.9006 33.8845 37.1516 33.8845C38.4023 33.8845 39.5845 33.3681 40.4395 32.5002C41.2945 33.3683 42.4765 33.8845 43.7276 33.8845C45.5095 33.8845 47.1498 32.8411 47.9069 31.2262C48.1367 30.7365 47.9258 30.1533 47.4359 29.9235ZM24.0003 31.9255C22.9782 31.9255 22.0355 31.3251 21.5989 30.3959C21.4375 30.0524 21.0921 29.8331 20.7125 29.833C20.7124 29.833 20.7124 29.833 20.7124 29.833C20.3328 29.833 19.9875 30.0523 19.8259 30.3957C19.3888 31.325 18.4461 31.9255 17.4244 31.9255C16.4023 31.9255 15.4597 31.3251 15.0232 30.3959C14.8617 30.0524 14.5163 29.8331 14.1368 29.833C14.1367 29.833 14.1367 29.833 14.1366 29.833C13.7571 29.833 13.4118 30.0521 13.2502 30.3956C12.813 31.3249 11.8703 31.9255 10.8486 31.9255C9.8957 31.9255 9.01258 31.4035 8.54327 30.5799C8.66683 25.7775 12.6033 21.9089 17.4245 21.9089C22.2456 21.9089 26.182 25.7774 26.3056 30.5797C25.8361 31.4033 24.9529 31.9255 24.0003 31.9255Z" fill="#5E6C5B"/>
<path d="M24.2975 10.0702C22.7019 8.47465 20.3171 8.13912 18.3883 9.06152C18.4836 7.84315 19.269 6.72931 20.4887 6.27959C20.9964 6.09237 21.2561 5.52913 21.0689 5.02157C20.8817 4.51382 20.3184 4.25488 19.8109 4.44135C17.8696 5.15731 16.6123 6.91943 16.4397 8.85527C15.8828 8.65483 15.2897 8.55021 14.6806 8.55021C13.2959 8.55021 11.9936 9.09002 11.0134 10.0704C10.6309 10.453 10.6309 11.0732 11.0134 11.4558C11.3959 11.8381 12.0162 11.8381 12.3988 11.4557C13.009 10.8455 13.8194 10.5094 14.6807 10.5094C14.784 10.5094 14.8863 10.5145 14.9879 10.524C13.48 11.4322 12.4692 13.0849 12.4692 14.9698C12.4692 15.5107 12.9078 15.9494 13.4488 15.9494C13.9898 15.9494 14.4284 15.5107 14.4284 14.9698C14.4284 13.5317 15.3739 12.3108 16.6759 11.895V13.1026C16.6759 13.6435 17.1146 14.0822 17.6555 14.0822C18.1965 14.0822 18.6351 13.6435 18.6351 13.1026V11.895C19.9371 12.3108 20.8826 13.5317 20.8826 14.9698C20.8826 15.5107 21.3213 15.9494 21.8622 15.9494C22.4032 15.9494 22.8418 15.5107 22.8418 14.9698C22.8418 13.0865 21.8327 11.4348 20.3269 10.5262C21.2513 10.4397 22.206 10.7494 22.9123 11.4557C23.2949 11.8381 23.9153 11.8381 24.2978 11.4557C24.68 11.0729 24.68 10.4528 24.2975 10.0702Z" fill="#5E6C5B"/>
<path d="M47.0224 3.63477C45.8458 3.63477 44.7891 4.15461 44.0674 4.97567C43.3457 4.15451 42.289 3.63477 41.1124 3.63477C40.5715 3.63477 40.1328 4.07333 40.1328 4.61436C40.1328 5.15538 40.5715 5.59395 41.1124 5.59395C42.2016 5.59395 43.0878 6.48016 43.0878 7.56934C43.0878 8.11028 43.5265 8.54893 44.0674 8.54893C44.6083 8.54893 45.047 8.11028 45.047 7.56934C45.047 6.48016 45.9332 5.59395 47.0224 5.59395C47.5634 5.59395 48.002 5.15529 48.002 4.61436C48.0019 4.07342 47.5633 3.63477 47.0224 3.63477Z" fill="#5E6C5B"/>
<path d="M36.0614 7.68945C34.8849 7.68945 33.8281 8.20929 33.1065 9.03035C32.3848 8.2092 31.328 7.68945 30.1515 7.68945C29.6105 7.68945 29.1719 8.12811 29.1719 8.66904C29.1719 9.20998 29.6104 9.64863 30.1515 9.64863C31.2406 9.64863 32.1269 10.5348 32.1269 11.624C32.1269 12.165 32.5655 12.6036 33.1065 12.6036C33.6474 12.6036 34.086 12.165 34.086 11.624C34.086 10.5348 34.9723 9.64863 36.0614 9.64863C36.6025 9.64863 37.041 9.20998 37.041 8.66904C37.041 8.12811 36.6025 7.68945 36.0614 7.68945Z" fill="#5E6C5B"/>
<path d="M42.4521 14.8633C41.2755 14.8633 40.2188 15.3831 39.4971 16.2042C38.7754 15.383 37.7186 14.8633 36.5421 14.8633C36.0012 14.8633 35.5625 15.3019 35.5625 15.8429C35.5625 16.3838 36.0012 16.8225 36.5421 16.8225C37.6313 16.8225 38.5175 17.7087 38.5175 18.7979C38.5175 19.3388 38.9561 19.7774 39.4971 19.7774C40.038 19.7774 40.4767 19.3388 40.4767 18.7979C40.4767 17.7087 41.3629 16.8225 42.4521 16.8225C42.9931 16.8225 43.4317 16.3838 43.4317 15.8429C43.4317 15.3019 42.9931 14.8633 42.4521 14.8633Z" fill="#5E6C5B"/>
<path d="M34.2804 40.406C33.7911 40.1755 33.2073 40.3859 32.9771 40.8755C32.54 41.8048 31.5974 42.4053 30.5756 42.4053C29.5536 42.4053 28.6109 41.8049 28.1741 40.8756C28.0127 40.5322 27.6673 40.3128 27.2877 40.3128H27.2876C26.9081 40.3128 26.5628 40.532 26.4011 40.8755C25.9642 41.8048 25.0216 42.4053 23.9998 42.4053C22.9777 42.4053 22.035 41.8049 21.5984 40.8757C21.437 40.5322 21.0916 40.3129 20.712 40.3128H20.7119C20.3324 40.3128 19.987 40.532 19.8255 40.8755C19.3883 41.8048 18.4456 42.4053 17.4239 42.4053C16.4018 42.4053 15.4593 41.8049 15.0227 40.8757C14.7926 40.3862 14.2088 40.1758 13.7194 40.4058C13.2298 40.636 13.0194 41.2194 13.2495 41.709C14.0075 43.3221 15.6461 44.3644 17.4239 44.3644C18.6746 44.3644 19.8568 43.8481 20.7117 42.9802C21.5667 43.8483 22.7487 44.3644 23.9998 44.3644C25.2506 44.3644 26.4326 43.8482 27.2875 42.9802C28.1425 43.8483 29.3245 44.3644 30.5756 44.3644C32.3528 44.3644 33.9913 43.3221 34.7499 41.7093C34.9803 41.2198 34.7701 40.6363 34.2804 40.406Z" fill="#5E6C5B"/>
</g>
<defs>
<clipPath id="clip0_1445_14291">
<rect width="48" height="48" fill="white"/>
</clipPath>
</defs>
</svg>
