<svg width="48" height="48" viewBox="0 0 48 48" fill="none" xmlns="http://www.w3.org/2000/svg">
<path d="M31 17.68C26.24 17.68 21.62 17.12 17.56 16C17.28 17.82 17 19.78 17 21.74C17 34.06 23.3 44 31 44C38.7 44 45 34.06 45 21.74C45 19.78 44.86 17.82 44.44 16C40.38 17.12 35.76 17.68 31 17.68Z" stroke="#5E6C5B" stroke-width="2.2" stroke-miterlimit="10" stroke-linecap="round" stroke-linejoin="round"/>
<path d="M30.5 34.375C28.4375 34.375 26.5125 33.875 25 33C25.275 35.75 27.6125 38 30.5 38C33.3875 38 35.725 35.75 36 33C34.4875 33.875 32.5625 34.375 30.5 34.375Z" stroke="#5E6C5B" stroke-width="2.2" stroke-miterlimit="10" stroke-linecap="round" stroke-linejoin="round"/>
<path d="M23 29C23 27.35 24.125 26 25.5 26C26.875 26 28 27.35 28 29" stroke="#5E6C5B" stroke-width="2.2" stroke-miterlimit="10" stroke-linecap="round" stroke-linejoin="round"/>
<path d="M34 29C34 27.35 35.125 26 36.5 26C37.875 26 39 27.35 39 29" stroke="#5E6C5B" stroke-width="2.2" stroke-miterlimit="10" stroke-linecap="round" stroke-linejoin="round"/>
<path d="M29.7661 17.5C30.7461 14.665 31 12.045 31 8.67C31 6.78 30.86 4.89 30.44 3.135C26.24 4.215 21.76 4.755 17 4.755C12.24 4.755 7.62 4.08 3.56 3C3.14 4.755 3 6.645 3 8.535C3 20.415 9.3 30 17 30C17.28 30 17.7 30 17.98 30" stroke="#5E6C5B" stroke-width="2.2" stroke-miterlimit="10" stroke-linecap="round" stroke-linejoin="round"/>
<path d="M17 21.625C15.125 21.625 13.375 22.125 12 23C12.25 20.25 14.375 18 17 18" stroke="#5E6C5B" stroke-width="2.2" stroke-miterlimit="10" stroke-linecap="round" stroke-linejoin="round"/>
<path d="M9 11C9 12.65 10.125 14 11.5 14C12.875 14 14 12.65 14 11" stroke="#5E6C5B" stroke-width="2.2" stroke-miterlimit="10" stroke-linecap="round" stroke-linejoin="round"/>
<path d="M20 11C20 12.65 21.125 14 22.5 14C23.875 14 25 12.65 25 11" stroke="#5E6C5B" stroke-width="2.2" stroke-miterlimit="10" stroke-linecap="round" stroke-linejoin="round"/>
</svg>
