<svg width="48" height="48" viewBox="0 0 48 48" fill="none" xmlns="http://www.w3.org/2000/svg">
<path d="M41.5894 33.6047H39.3413V23.863C39.3413 23.1324 38.8916 22.6454 38.2173 22.6454C37.5429 22.6454 37.0933 23.1325 37.0933 23.863H21.3568C21.3568 23.1324 20.9071 22.6454 20.2327 22.6454C19.5583 22.6454 19.1087 23.1325 19.1087 23.863V33.6047H16.8606C16.1862 33.6047 15.7366 34.0919 15.7366 34.8224V38.4755C15.7366 39.2062 16.1863 39.6932 16.8606 39.6932C16.8606 41.0327 16.8606 43.2245 16.8606 44.564H12.3644V42.1285C12.3644 41.3979 11.9148 40.9109 11.2404 40.9109V36.0401C11.2404 35.3094 10.7908 34.8224 10.1164 34.8224C9.44208 34.8224 8.99242 35.3095 8.99242 36.0401V42.1286C8.99242 42.8593 9.44208 43.3463 10.1164 43.3463V44.564H5.62021V43.3463C6.29465 43.3463 6.74422 42.8592 6.74422 42.1286V36.0401C6.74422 35.3094 7.19388 34.8224 7.86822 34.8224C8.54257 34.8224 8.99223 34.3353 8.99223 33.6047V12.6601C10.3411 12.1729 11.2403 10.8335 11.2403 9.25047V8.0328C11.2403 7.30215 10.7907 6.81513 10.1163 6.81513C9.44198 6.81513 8.99232 7.30226 8.99232 8.0328V9.25047C8.99232 9.98111 8.54266 10.4681 7.86832 10.4681C7.19397 10.4681 6.74431 9.98101 6.74431 9.25047V5.59746H10.1164H11.2404C11.9149 5.59746 12.3644 5.11032 12.3644 4.37978C12.3644 3.64924 11.9148 3.16211 11.2404 3.16211H10.1164H8.99232V1.94423C8.99232 1.21359 8.54266 0.726562 7.86832 0.726562C7.19397 0.726562 6.74431 1.21369 6.74431 1.94423V3.1619H5.62021H4.49611C3.82167 3.1619 3.37211 3.64904 3.37211 4.37958C3.37211 5.11012 3.82177 5.59725 4.49611 5.59725V9.25036C4.49611 10.8334 5.39534 12.1728 6.74422 12.66V32.6304C5.39534 33.1175 4.49611 34.457 4.49611 36.04V40.9108C3.82167 40.9108 3.37211 41.3979 3.37211 42.1284V44.5639H1.124C0.449659 44.5641 0 45.0512 0 45.7818C0 46.5125 0.449659 46.9995 1.124 46.9995H4.49611H11.2403H30.349C31.0234 46.9995 31.473 46.5124 31.473 45.7818C31.473 45.0512 31.0233 44.5642 30.349 44.5642H19.1086V39.5716C19.1086 38.1103 19.1087 37.2579 17.9846 37.2579V36.0403H40.4654C40.4654 36.7709 40.9151 37.2579 41.5894 37.2579C42.2638 37.2579 42.7134 36.7708 42.7134 36.0403V34.8226C42.7135 34.0918 42.2638 33.6047 41.5894 33.6047ZM37.0933 33.6047H21.3568V31.1693H37.0933V33.6047ZM37.0933 28.7338H21.3568V26.2984H37.0933V28.7338Z" fill="#5E6C5B"/>
<path d="M34.4896 37H20.3917C19.7875 37 19.3848 37.4364 19.3848 38.0909C19.3848 38.7454 19.7876 39.1818 20.3917 39.1818H34.4896C35.0938 39.1818 35.4966 38.7453 35.4966 38.0909C35.4967 37.4364 35.0938 37 34.4896 37Z" fill="#5E6C5B"/>
<path d="M40.9828 38.9688C39.1825 38.9688 37.4881 39.8866 36.4291 41.4927C36.2174 41.4927 35.8996 41.378 35.6878 41.378C33.4639 41.378 31.5576 43.3283 31.5576 45.8523C31.5576 46.5407 31.9813 46.9995 32.6166 46.9995H45.5366C46.172 46.9995 46.5955 46.5406 46.5955 45.8523V45.0493C46.5956 41.7222 44.054 38.9688 40.9828 38.9688ZM34.0993 44.7051C34.6288 43.902 35.5819 43.4431 36.5351 43.902C37.0646 44.1315 37.7 43.902 37.9118 43.3284C38.5472 42.0664 39.7121 41.2634 40.9828 41.2634C42.7832 41.2634 44.2658 42.7548 44.4776 44.7052H34.0993V44.7051Z" fill="#5E6C5B"/>
</svg>
