<svg width="48" height="50" viewBox="0 0 48 50" fill="none" xmlns="http://www.w3.org/2000/svg">
<path d="M26.376 32.3027C26.9399 32.3028 27.3973 32.7603 27.3975 33.3242C27.3975 33.8883 26.94 34.3457 26.376 34.3457H9.89453C9.33058 34.3456 8.87305 33.8882 8.87305 33.3242C8.87317 32.7603 9.33065 32.3029 9.89453 32.3027H26.376Z" fill="#5E6C5B" stroke="#5E6C5B" stroke-width="0.3"/>
<path d="M26.3789 25.2441C26.9412 25.2442 27.3973 25.7004 27.3975 26.2627C27.3975 26.8251 26.9413 27.2812 26.3789 27.2812H9.8916C9.32926 27.2811 8.87305 26.8251 8.87305 26.2627C8.8732 25.7004 9.32935 25.2443 9.8916 25.2441H26.3789Z" fill="#5E6C5B" stroke="#5E6C5B" stroke-width="0.3"/>
<path d="M26.376 18.1816C26.9399 18.1817 27.3973 18.6392 27.3975 19.2031C27.3975 19.7672 26.94 20.2246 26.376 20.2246H9.89453C9.33058 20.2245 8.87305 19.7671 8.87305 19.2031C8.87316 18.6392 9.33065 18.1818 9.89453 18.1816H26.376Z" fill="#5E6C5B" stroke="#5E6C5B" stroke-width="0.3"/>
<path d="M26.3701 11.123C26.9341 11.123 27.3915 11.5806 27.3916 12.1445C27.3916 12.7086 26.9342 13.166 26.3701 13.166H19.5273C18.9634 13.1659 18.5059 12.7085 18.5059 12.1445C18.506 11.5806 18.9635 11.1232 19.5273 11.123H26.3701Z" fill="#5E6C5B" stroke="#5E6C5B" stroke-width="0.3"/>
<path d="M30.5518 0.849609C32.4598 0.849795 34.0488 2.2335 34.3633 4.05273L34.3887 4.21387C34.4104 4.37745 34.4209 4.54632 34.4209 4.71387V38.1426C34.4209 40.2694 32.6846 42.0056 30.5518 42.0059H5.7207C3.58708 42.0059 1.84961 40.2695 1.84961 38.1426V14.4814C1.84966 13.3569 2.29729 12.2856 3.08887 11.4873V11.4863L12.4932 2.08887C13.2844 1.2976 14.3569 0.849718 15.4805 0.849609H30.5518ZM17.0225 3.23828C16.5533 3.23854 16.1729 3.61866 16.1729 4.08789V13.0527C16.1728 13.3958 16.0945 13.7221 15.9404 14.0156L15.9395 14.0146C15.7404 14.4179 15.4102 14.7474 15.001 14.9521L15.002 14.9531C14.7103 15.1058 14.3787 15.1914 14.0273 15.1914H5.08789C4.61867 15.1915 4.23849 15.5718 4.23828 16.041V38.1426C4.23828 38.9517 4.90376 39.6182 5.7207 39.6182H30.5518C31.3671 39.618 32.0264 38.9524 32.0264 38.1426V4.71387C32.0264 4.50563 31.9876 4.3169 31.9102 4.13965L31.9092 4.1377C31.6857 3.60664 31.1606 3.23844 30.5518 3.23828H17.0225ZM14.0137 5.99609C14.0137 5.2387 13.0979 4.85979 12.5625 5.39551L6.37402 11.5869C5.83911 12.1225 6.21854 13.0381 6.97559 13.0381H12.9131C13.3489 13.0381 13.6117 12.9513 13.7695 12.793C13.9273 12.6345 14.0137 12.3705 14.0137 11.9316V5.99609Z" fill="#5E6C5B" stroke="#5E6C5B" stroke-width="0.3"/>
<path d="M38.6211 7.99414C40.7548 7.99423 42.4852 9.72463 42.4854 11.8584V45.2871C42.4854 47.4138 40.755 49.1504 38.6211 49.1504H13.7842C11.8815 49.1504 10.2933 47.7604 9.97852 45.9482L9.95312 45.7861C9.93136 45.6227 9.91992 45.4547 9.91992 45.2871V44.834C9.91992 44.1989 10.4352 43.6836 11.0703 43.6836H11.1582C11.7933 43.6836 12.3086 44.1989 12.3086 44.834V45.2871C12.3086 45.4918 12.3517 45.6813 12.4248 45.8623L12.4707 45.959C12.7153 46.4335 13.2134 46.7627 13.7842 46.7627H38.6211C39.4372 46.7626 40.0976 46.0969 40.0977 45.2871V11.8584C40.0977 11.042 39.4377 10.3829 38.6211 10.3828H37.1836C36.5762 10.3827 36.0737 9.90992 36.0361 9.30371L36.0303 9.21582C35.9894 8.55408 36.5157 7.99414 37.1787 7.99414H38.6211Z" fill="#5E6C5B" stroke="#5E6C5B" stroke-width="0.3"/>
</svg>
