<svg width="48" height="48" viewBox="0 0 48 48" fill="none" xmlns="http://www.w3.org/2000/svg">
<g clip-path="url(#clip0_2112_22686)">
<path d="M15.4294 25.7148H12.0008C10.1073 25.7148 8.57227 27.2499 8.57227 29.1434V42.8577C8.57227 44.7512 10.1073 46.2863 12.0008 46.2863H15.4294C17.323 46.2863 18.858 44.7512 18.858 42.8577V29.1434C18.858 27.2499 17.323 25.7148 15.4294 25.7148Z" stroke="#5E6C5B" stroke-width="2.5" stroke-linecap="round" stroke-linejoin="round"/>
<path d="M35.9997 25.7148H32.5711C30.6776 25.7148 29.1426 27.2499 29.1426 29.1434V42.8577C29.1426 44.7512 30.6776 46.2863 32.5711 46.2863H35.9997C37.8933 46.2863 39.4283 44.7512 39.4283 42.8577V29.1434C39.4283 27.2499 37.8933 25.7148 35.9997 25.7148Z" stroke="#5E6C5B" stroke-width="2.5" stroke-linecap="round" stroke-linejoin="round"/>
<path d="M1.71484 32.572V24.0006C1.71484 18.09 4.0628 12.4216 8.24218 8.24218C12.4216 4.0628 18.09 1.71484 24.0006 1.71484C29.9111 1.71484 35.5796 4.0628 39.7589 8.24218C43.9383 12.4216 46.2863 18.09 46.2863 24.0006V32.572" stroke="#5E6C5B" stroke-width="2.5" stroke-linecap="round" stroke-linejoin="round"/>
</g>
<defs>
<clipPath id="clip0_2112_22686">
<rect width="48" height="48" fill="white"/>
</clipPath>
</defs>
</svg>
