<svg width="16" height="16" viewBox="0 0 16 16" fill="none" xmlns="http://www.w3.org/2000/svg">
<path fill-rule="evenodd" clip-rule="evenodd" d="M4.16927 3.66667C4.16927 2.47005 5.13932 1.5 6.33594 1.5C7.00608 1.5 7.60517 1.80424 8.00261 2.28214C8.40004 1.80424 8.99912 1.5 9.66927 1.5C10.8659 1.5 11.8359 2.47005 11.8359 3.66667C11.8359 4.16951 11.6646 4.63234 11.3772 5H12.0026C12.9231 5 13.6693 5.74619 13.6693 6.66667V7.5C13.6693 7.77614 13.4454 8 13.1693 8H8.7026C8.59215 8 8.5026 7.91046 8.5026 7.8V5.49273C8.31397 5.37196 8.1453 5.22277 8.00261 5.05119C7.85992 5.22277 7.69123 5.37196 7.5026 5.49273V7.8C7.5026 7.91046 7.41306 8 7.3026 8H2.83594C2.5598 8 2.33594 7.77614 2.33594 7.5V6.66667C2.33594 5.74619 3.08213 5 4.0026 5H4.62799C4.34057 4.63234 4.16927 4.16951 4.16927 3.66667ZM7.5026 3.66667C7.5026 3.02233 6.98027 2.5 6.33594 2.5C5.69161 2.5 5.16927 3.02233 5.16927 3.66667C5.16927 4.311 5.69161 4.83333 6.33594 4.83333C6.98027 4.83333 7.5026 4.311 7.5026 3.66667ZM8.5026 3.66667C8.5026 4.311 9.02494 4.83333 9.66927 4.83333C10.3136 4.83333 10.8359 4.311 10.8359 3.66667C10.8359 3.02233 10.3136 2.5 9.66927 2.5C9.02494 2.5 8.5026 3.02233 8.5026 3.66667Z" fill="#16292C"/>
<path d="M7.5026 9.1C7.5026 8.98955 7.41306 8.9 7.3026 8.9H3.76861C3.49818 8.9 3.26709 9.09486 3.22141 9.36141C3.07338 10.2253 3.07338 11.1081 3.22141 11.9719L3.37095 12.8446C3.47164 13.4322 3.94888 13.8823 4.54135 13.9486L5.25143 14.0279C5.93204 14.104 6.61501 14.1517 7.29859 14.1712C7.41058 14.1744 7.5026 14.0841 7.5026 13.9721V9.1Z" fill="#16292C"/>
<path d="M8.70662 14.1712C8.59463 14.1744 8.5026 14.0841 8.5026 13.9721L8.5026 9.1C8.5026 8.98955 8.59215 8.9 8.7026 8.9H12.2366C12.507 8.9 12.7381 9.09486 12.7838 9.36141C12.9318 10.2253 12.9318 11.1081 12.7838 11.9719L12.6343 12.8446C12.5336 13.4322 12.0563 13.8823 11.4639 13.9486L10.7538 14.0279C10.0732 14.104 9.3902 14.1517 8.70662 14.1712Z" fill="#16292C"/>
</svg>
