<svg width="16" height="16" viewBox="0 0 16 16" fill="none" xmlns="http://www.w3.org/2000/svg">
<path d="M14.6709 7.21482L13.6066 6.14923C13.4246 5.96695 13.2775 5.60942 13.2775 5.35704V3.84277C13.2775 3.22584 12.7734 2.72108 12.1573 2.72108H10.6519C10.3998 2.72108 10.0427 2.57386 9.8607 2.39159L8.79643 1.32599C8.36233 0.891337 7.64815 0.891337 7.21404 1.32599L6.13578 2.39159C5.96074 2.57386 5.60365 2.72108 5.34458 2.72108H3.83921C3.22305 2.72108 2.71893 3.22584 2.71893 3.84277V5.35003C2.71893 5.60241 2.57189 5.95994 2.38985 6.14222L1.32558 7.20781C0.891473 7.64246 0.891473 8.35753 1.32558 8.79219L2.38985 9.85778C2.57189 10.0401 2.71893 10.3976 2.71893 10.65V12.1572C2.71893 12.7742 3.22305 13.2789 3.83921 13.2789H5.34458C5.59664 13.2789 5.95373 13.4261 6.13578 13.6084L7.20004 14.674C7.63414 15.1087 8.34832 15.1087 8.78243 14.674L9.8467 13.6084C10.0287 13.4261 10.3858 13.2789 10.6379 13.2789H12.1433C12.7594 13.2789 13.2635 12.7742 13.2635 12.1572V10.65C13.2635 10.3976 13.4106 10.0401 13.5926 9.85778L14.6569 8.79219C15.112 8.36454 15.112 7.64947 14.6709 7.21482ZM5.19755 5.90386C5.19755 5.51828 5.51262 5.20281 5.89772 5.20281C6.28282 5.20281 6.59789 5.51828 6.59789 5.90386C6.59789 6.28944 6.28982 6.60491 5.89772 6.60491C5.51262 6.60491 5.19755 6.28944 5.19755 5.90386ZM6.26881 10.4817C6.16379 10.5869 6.03075 10.636 5.89772 10.636C5.76469 10.636 5.63165 10.5869 5.52663 10.4817C5.32358 10.2784 5.32358 9.94191 5.52663 9.73861L9.72767 5.5323C9.93072 5.329 10.2668 5.329 10.4699 5.5323C10.6729 5.73561 10.6729 6.07211 10.4699 6.27542L6.26881 10.4817ZM10.0988 10.8112C9.70666 10.8112 9.39158 10.4957 9.39158 10.1102C9.39158 9.72458 9.70666 9.40911 10.0918 9.40911C10.4769 9.40911 10.7919 9.72458 10.7919 10.1102C10.7919 10.4957 10.4839 10.8112 10.0988 10.8112Z" fill="#16292C"/>
</svg>
