<svg width="98" height="97" viewBox="0 0 98 97" fill="none" xmlns="http://www.w3.org/2000/svg">
<path d="M88.4082 53.048C88.4082 75.5095 71.4635 92.4542 49.0019 92.4542C25.434 92.4542 9.59568 76.6159 9.59568 53.048C9.47154 45.0791 10.534 37.1361 12.7482 29.48C12.9291 28.8475 13.3108 28.2911 13.8358 27.8946C14.3607 27.4982 15.0004 27.2833 15.6582 27.2823C16.2955 27.2818 16.9168 27.4821 17.4338 27.8548C17.9508 28.2276 18.3371 28.7538 18.5379 29.3587C18.6894 29.7073 19.6746 31.8292 23.2363 31.8292C30.5719 31.8292 30.8144 16.8245 30.8144 16.673C30.8147 16.157 30.9467 15.6497 31.1978 15.199C31.4489 14.7484 31.8109 14.3692 32.2496 14.0976C32.6882 13.8259 33.1889 13.6707 33.7042 13.6466C34.2196 13.6225 34.7326 13.7304 35.1946 13.96C37.1481 14.8431 39.2822 15.2533 41.4238 15.1573C45.1219 15.1573 47.5772 11.535 49.0019 8.39765C49.6354 6.92785 50.1425 5.40671 50.5176 3.85077C50.6776 3.17259 51.0664 2.57024 51.6185 2.14513C52.1705 1.72001 52.8522 1.49809 53.5488 1.51671C54.2731 1.50679 54.9771 1.75661 55.5332 2.22091C56.0892 2.68522 56.4606 3.33331 56.5801 4.0478C57.6107 10.4741 62.4304 28.798 70.2207 28.798C76.4651 28.798 77.7988 22.887 77.7988 22.2201C77.9119 21.5531 78.2448 20.943 78.7447 20.4871C79.2446 20.0312 79.8826 19.7556 80.5572 19.7042C81.2035 19.6613 81.8464 19.8266 82.3919 20.1757C82.9374 20.5248 83.3568 21.0394 83.5885 21.6442C88.4082 34.3148 88.4082 48.4101 88.4082 53.048Z" fill="#414042"/>
<path d="M88.4062 53.048C88.4062 75.5095 71.4616 92.4542 49 92.4542V8.39765C49.6335 6.92785 50.1405 5.40671 50.5156 3.85077C50.6756 3.17259 51.0644 2.57024 51.6165 2.14513C52.1686 1.72001 52.8503 1.49809 53.5469 1.51671C54.2712 1.50679 54.9752 1.75661 55.5312 2.22091C56.0873 2.68522 56.4587 3.33331 56.5781 4.0478C57.6088 10.4741 62.4284 28.798 70.2188 28.798C76.4631 28.798 77.7969 22.887 77.7969 22.2201C77.9099 21.5531 78.2429 20.943 78.7428 20.4871C79.2427 20.0312 79.8807 19.7556 80.5553 19.7042C81.2015 19.6613 81.8445 19.8266 82.39 20.1757C82.9355 20.5248 83.3548 21.0394 83.5866 21.6442C88.4062 34.3148 88.4062 48.4101 88.4062 53.048Z" fill="#231F20"/>
<path d="M64.7764 46.0889L48.9987 61.8665L35.9795 74.8858C35.3996 75.3824 34.6537 75.6419 33.8908 75.6124C33.1279 75.5829 32.4042 75.2667 31.8644 74.7268C31.3245 74.187 31.0083 73.4633 30.9788 72.7004C30.9494 71.9375 31.2089 71.1916 31.7054 70.6117L48.9987 53.3184L60.5023 41.8148C61.0822 41.3182 61.8281 41.0587 62.591 41.0882C63.3539 41.1177 64.0776 41.4339 64.6174 41.9738C65.1573 42.5136 65.4735 43.2373 65.503 44.0002C65.5325 44.7631 65.273 45.509 64.7764 46.0889Z" fill="#FFF200"/>
<path d="M37.6328 56.0781C39.2815 56.0781 40.8932 55.5892 42.264 54.6733C43.6348 53.7573 44.7033 52.4554 45.3342 50.9322C45.9651 49.409 46.1302 47.7329 45.8086 46.1159C45.4869 44.4989 44.693 43.0136 43.5272 41.8478C42.3614 40.682 40.8761 39.8881 39.2591 39.5664C37.6421 39.2448 35.966 39.4099 34.4428 40.0408C32.9196 40.6717 31.6177 41.7402 30.7017 43.111C29.7858 44.4818 29.2969 46.0935 29.2969 47.7422C29.3009 49.9518 30.1804 52.0697 31.7428 53.6322C33.3053 55.1946 35.4232 56.0741 37.6328 56.0781ZM37.6328 45.4688C38.0825 45.4688 38.522 45.6021 38.8959 45.8519C39.2697 46.1017 39.5611 46.4568 39.7332 46.8722C39.9053 47.2876 39.9503 47.7447 39.8626 48.1857C39.7748 48.6267 39.5583 49.0318 39.2404 49.3498C38.9224 49.6677 38.5173 49.8842 38.0763 49.9719C37.6353 50.0597 37.1782 50.0146 36.7628 49.8426C36.3474 49.6705 35.9923 49.3791 35.7425 49.0052C35.4927 48.6314 35.3594 48.1918 35.3594 47.7422C35.3594 47.1392 35.5989 46.561 36.0253 46.1346C36.4516 45.7083 37.0299 45.4688 37.6328 45.4688Z" fill="#FFF200"/>
<path d="M58.8516 60.625C57.2029 60.625 55.5912 61.1139 54.2204 62.0299C52.8495 62.9458 51.7811 64.2477 51.1502 65.7709C50.5192 67.2941 50.3542 68.9702 50.6758 70.5872C50.9974 72.2042 51.7914 73.6895 52.9572 74.8553C54.123 76.0211 55.6083 76.8151 57.2253 77.1367C58.8423 77.4583 60.5184 77.2933 62.0416 76.6623C63.5648 76.0314 64.8667 74.963 65.7826 73.5921C66.6986 72.2213 67.1875 70.6096 67.1875 68.9609C67.1835 66.7513 66.304 64.6334 64.7415 63.071C63.1791 61.5085 61.0612 60.629 58.8516 60.625ZM58.8516 71.2344C58.4019 71.2344 57.9624 71.101 57.5885 70.8512C57.2146 70.6014 56.9233 70.2464 56.7512 69.8309C56.5791 69.4155 56.5341 68.9584 56.6218 68.5174C56.7095 68.0764 56.9261 67.6713 57.244 67.3534C57.5619 67.0354 57.967 66.8189 58.408 66.7312C58.849 66.6435 59.3062 66.6885 59.7216 66.8606C60.137 67.0326 60.492 67.324 60.7419 67.6979C60.9917 68.0717 61.125 68.5113 61.125 68.9609C61.125 69.5639 60.8855 70.1421 60.4591 70.5685C60.0328 70.9949 59.4545 71.2344 58.8516 71.2344Z" fill="#FFF200"/>
<path d="M64.7777 41.819C64.2097 41.2544 63.4414 40.9375 62.6406 40.9375C61.8398 40.9375 61.0715 41.2544 60.5036 41.819L49 53.3226V61.8707L64.7777 46.093C65.3422 45.5251 65.6591 44.7568 65.6591 43.956C65.6591 43.1552 65.3422 42.3869 64.7777 41.819Z" fill="#FFBE00"/>
<path d="M58.8516 60.625C57.2029 60.625 55.5912 61.1139 54.2204 62.0299C52.8495 62.9458 51.7811 64.2477 51.1502 65.7709C50.5192 67.2941 50.3542 68.9702 50.6758 70.5872C50.9974 72.2042 51.7914 73.6895 52.9572 74.8553C54.123 76.0211 55.6083 76.8151 57.2253 77.1367C58.8423 77.4583 60.5184 77.2933 62.0416 76.6623C63.5648 76.0314 64.8667 74.963 65.7826 73.5921C66.6986 72.2213 67.1875 70.6096 67.1875 68.9609C67.1835 66.7513 66.304 64.6334 64.7415 63.071C63.1791 61.5085 61.0612 60.629 58.8516 60.625ZM58.8516 71.2344C58.4019 71.2344 57.9624 71.101 57.5885 70.8512C57.2146 70.6014 56.9233 70.2464 56.7512 69.8309C56.5791 69.4155 56.5341 68.9584 56.6218 68.5174C56.7095 68.0764 56.9261 67.6713 57.244 67.3534C57.5619 67.0354 57.967 66.8189 58.408 66.7312C58.849 66.6435 59.3062 66.6885 59.7216 66.8606C60.137 67.0326 60.492 67.324 60.7419 67.6979C60.9917 68.0717 61.125 68.5113 61.125 68.9609C61.125 69.5639 60.8855 70.1421 60.4591 70.5685C60.0328 70.9949 59.4545 71.2344 58.8516 71.2344Z" fill="#FFBE00"/>
</svg>
