<svg width="97" height="20" viewBox="0 0 97 20" fill="none" xmlns="http://www.w3.org/2000/svg">
<path d="M5.28169 18.2384C3.78915 17.4173 2.62056 16.286 1.77194 14.8466C0.925305 13.4071 0.5 11.7868 0.5 9.98552C0.5 8.18425 0.923317 6.5639 1.77194 5.12447C2.61857 3.68504 3.79313 2.55377 5.29362 1.73266C6.79411 0.91155 8.47148 0.5 10.3257 0.5C11.7726 0.5 13.0982 0.742555 14.2985 1.22767C15.4989 1.71278 16.5224 2.43249 17.3711 3.38681L15.65 5.05488C14.2548 3.5896 12.5158 2.85597 10.433 2.85597C9.05578 2.85597 7.81166 3.16613 6.69871 3.78246C5.58577 4.40077 4.71727 5.2537 4.08925 6.33923C3.46322 7.42477 3.14921 8.63953 3.14921 9.98154C3.14921 11.3236 3.46322 12.5383 4.08925 13.6239C4.71528 14.7094 5.58577 15.5623 6.69871 16.1806C7.81166 16.799 9.05578 17.1071 10.433 17.1071C12.498 17.1071 14.2369 16.3655 15.65 14.8824L17.3711 16.5504C16.5244 17.5048 15.495 18.2284 14.2866 18.7235C13.0763 19.2185 11.7487 19.4651 10.3019 19.4651C8.44564 19.471 6.77225 19.0595 5.28169 18.2384Z" fill="#16292C"/>
<path d="M33.96 2.26346C32.5509 1.08846 30.6172 0.501953 28.1627 0.501953H23.4764V2.85991H28.0812C29.7964 2.85991 31.1061 3.22573 32.0103 3.95738C32.9126 4.69101 33.3637 5.74076 33.3637 7.11458C33.3637 8.4884 32.9126 9.54014 32.0103 10.2718C31.108 11.0034 29.7964 11.3692 28.0812 11.3692H20.7676V19.471H23.4764V13.7272H28.1627C30.6172 13.7272 32.5509 13.1407 33.96 11.9657C35.367 10.7907 36.0726 9.17432 36.0726 7.11458C36.0726 5.05484 35.367 3.43847 33.96 2.26346Z" fill="#16292C"/>
<path d="M39.3779 17.1131V19.469H52.3656V17.1131H39.3779ZM52.3656 0.501953H39.3779V2.85991H52.3656V0.501953ZM52.3656 8.68523H39.3779V10.9875H52.3656V8.68523Z" fill="#16292C"/>
<path d="M87.8408 0.521484H85.1579L76.5723 19.4905H79.3626L81.4494 14.7488L82.3973 12.5817L86.4874 3.28702L90.5775 12.5817L91.5255 14.7488L93.6103 19.4905H96.4543L87.8408 0.521484Z" fill="#16292C"/>
<path d="M73.915 17.1328H55.6846V19.4888H73.915V17.1328Z" fill="#16292C"/>
<path d="M72.3109 0.53125V2.88921H65.5359C65.4763 2.88722 65.4146 2.88722 65.353 2.88722C65.2914 2.88722 65.2278 2.88722 65.1662 2.88921C61.7717 2.96078 60.0765 4.99666 60.0765 8.94515V19.5003H57.3975V8.83779C57.3975 6.78004 57.8089 5.09209 58.6297 3.77195C58.8244 3.45584 59.043 3.16358 59.2875 2.88921C59.3511 2.81565 59.4167 2.74606 59.4862 2.67449C60.8794 1.245 62.8251 0.53125 65.3232 0.53125H72.3109Z" fill="#16292C"/>
<path d="M72.3128 8.66797H69.6318V17.1356H72.3128V8.66797Z" fill="#16292C"/>
</svg>
