<svg width="48" height="48" viewBox="0 0 48 48" fill="none" xmlns="http://www.w3.org/2000/svg">
<path d="M3.08594 31.9277C3.08594 31.9277 3.40869 35.878 3.4837 37.1236C3.5837 38.7942 4.22921 40.6602 5.30657 41.9558C6.82714 43.7923 8.61819 44.4401 11.0093 44.4446C13.8209 44.4492 34.2657 44.4492 37.0773 44.4446C39.4684 44.4401 41.2594 43.7923 42.78 41.9558C43.8574 40.6602 44.5029 38.7942 44.6051 37.1236C44.6779 35.878 45.0006 31.9277 45.0006 31.9277" stroke="#5E6C5B" stroke-width="2.5" stroke-linecap="round" stroke-linejoin="round"/>
<path d="M16.0215 8.86182V8.01857C16.0215 5.24563 18.2671 3 21.0401 3H26.9088C29.6794 3 31.9273 5.24563 31.9273 8.01857L31.9296 8.86182" stroke="#5E6C5B" stroke-width="2.5" stroke-linecap="round" stroke-linejoin="round"/>
<path d="M23.9746 34.656V31.7148" stroke="#5E6C5B" stroke-width="2.5" stroke-linecap="round" stroke-linejoin="round"/>
<path fill-rule="evenodd" clip-rule="evenodd" d="M2.96289 15.8138V23.6941C7.32232 26.5693 12.5455 28.5831 18.2777 29.3809C18.9641 26.8784 21.2212 25.0442 23.9646 25.0442C26.6648 25.0442 28.9673 26.8784 29.6082 29.4036C35.3632 28.6059 40.6068 26.5921 44.989 23.6941V15.8138C44.989 11.9635 41.891 8.86328 38.0407 8.86328H9.93389C6.08359 8.86328 2.96289 11.9635 2.96289 15.8138Z" stroke="#5E6C5B" stroke-width="2.5" stroke-linecap="round" stroke-linejoin="round"/>
</svg>
