<svg width="48" height="48" viewBox="0 0 48 48" fill="none" xmlns="http://www.w3.org/2000/svg">
<g clip-path="url(#clip0_2107_22300)">
<path d="M25.8394 2.13684L29.6623 5.12713C30.6484 5.89828 31.8142 6.39222 33.0446 6.55995L37.8156 7.21031C39.1702 7.39499 40.236 8.48499 40.4166 9.8705L41.0526 14.7498C41.2166 16.0081 41.6996 17.2006 42.4536 18.2089L45.3773 22.1189C46.2076 23.2291 46.2076 24.7707 45.3773 25.8809L42.4536 29.791C41.6996 30.7995 41.2166 31.9919 41.0526 33.2501L40.4166 38.1296C40.236 39.515 39.1702 40.6051 37.8156 40.7897L33.0446 41.4401C31.8145 41.6078 30.6484 42.1016 29.6623 42.8728L25.8394 45.8632C24.7536 46.7123 23.2465 46.7123 22.1607 45.8632L18.3376 42.8728C17.3517 42.1016 16.1857 41.6078 14.9554 41.4401L10.1845 40.7897C8.82978 40.6051 7.76401 39.515 7.58342 38.1296L6.94751 33.2501C6.78353 31.9919 6.30054 30.7995 5.54655 29.791L2.62269 25.8809C1.79244 24.7707 1.79244 23.2291 2.62269 22.1189L5.54655 18.2089C6.30054 17.2006 6.78353 16.0081 6.94751 14.7498L7.58342 9.8705C7.76401 8.48499 8.82978 7.39499 10.1845 7.21031L14.9554 6.55995C16.1857 6.39222 17.3517 5.89828 18.3376 5.12713L22.1607 2.13684C23.2465 1.28772 24.7536 1.28772 25.8394 2.13684Z" stroke="#5E6C5B" stroke-width="2.5"/>
<path d="M29 18.5L19 28.5" stroke="#5E6C5B" stroke-width="2.5" stroke-linecap="round"/>
<path d="M19.5 20.5C20.8807 20.5 22 19.3807 22 18C22 16.6193 20.8807 15.5 19.5 15.5C18.1193 15.5 17 16.6193 17 18C17 19.3807 18.1193 20.5 19.5 20.5Z" fill="#5E6C5B"/>
<path d="M29.5 31.5C30.8807 31.5 32 30.3807 32 29C32 27.6193 30.8807 26.5 29.5 26.5C28.1193 26.5 27 27.6193 27 29C27 30.3807 28.1193 31.5 29.5 31.5Z" fill="#5E6C5B"/>
</g>
<defs>
<clipPath id="clip0_2107_22300">
<rect width="48" height="48" fill="white"/>
</clipPath>
</defs>
</svg>
