<svg width="48" height="48" viewBox="0 0 48 48" fill="none" xmlns="http://www.w3.org/2000/svg">
<g clip-path="url(#clip0_2207_9554)">
<path d="M42.858 1.71484H12.0008C10.1073 1.71484 8.57227 3.24987 8.57227 5.14342V12.0006C8.57227 13.8941 10.1073 15.4291 12.0008 15.4291H42.858C44.7515 15.4291 46.2866 13.8941 46.2866 12.0006V5.14342C46.2866 3.24987 44.7515 1.71484 42.858 1.71484Z" stroke="#5E6C5B" stroke-width="2.5" stroke-linecap="round" stroke-linejoin="round"/>
<path d="M27.4291 32.5723V29.1437C27.4291 27.3251 26.7067 25.5809 25.4207 24.295C24.1348 23.009 22.3906 22.2866 20.572 22.2866H8.57199C6.75336 22.2866 5.00922 21.5641 3.72325 20.2781C2.43729 18.9922 1.71484 17.248 1.71484 15.4294V12.0008C1.71484 11.0915 2.07607 10.2195 2.71905 9.57647C3.36203 8.93349 4.2341 8.57227 5.14341 8.57227H8.57199" stroke="#5E6C5B" stroke-width="2.5" stroke-linecap="round" stroke-linejoin="round"/>
<path d="M22.2871 46.2866V36.0008C22.2871 35.0915 22.6483 34.2195 23.2913 33.5765C23.9343 32.9335 24.8064 32.5723 25.7157 32.5723H29.1443C30.0536 32.5723 30.9256 32.9335 31.5686 33.5765C32.2116 34.2195 32.5728 35.0915 32.5728 36.0008V46.2866" stroke="#5E6C5B" stroke-width="2.5" stroke-linecap="round" stroke-linejoin="round"/>
</g>
<defs>
<clipPath id="clip0_2207_9554">
<rect width="48" height="48" fill="white"/>
</clipPath>
</defs>
</svg>
