<svg width="48" height="48" viewBox="0 0 48 48" fill="none" xmlns="http://www.w3.org/2000/svg">
<path d="M15.4291 44.5711C23.0033 44.5711 29.1434 38.4311 29.1434 30.8569C29.1434 23.2827 23.0033 17.1426 15.4291 17.1426C7.85494 17.1426 1.71484 23.2827 1.71484 30.8569C1.71484 38.4311 7.85494 44.5711 15.4291 44.5711Z" stroke="#5E6C5B" stroke-width="2.5" stroke-linecap="round" stroke-linejoin="round"/>
<path d="M32.5717 44.5711C40.1459 44.5711 46.286 38.4311 46.286 30.8569C46.286 23.2827 40.1459 17.1426 32.5717 17.1426C24.9975 17.1426 18.8574 23.2827 18.8574 30.8569C18.8574 38.4311 24.9975 44.5711 32.5717 44.5711Z" stroke="#5E6C5B" stroke-width="2.5" stroke-linecap="round" stroke-linejoin="round"/>
<path d="M24.0014 30.8563C31.5756 30.8563 37.7157 24.7162 37.7157 17.142C37.7157 9.56783 31.5756 3.42773 24.0014 3.42773C16.4272 3.42773 10.2871 9.56783 10.2871 17.142C10.2871 24.7162 16.4272 30.8563 24.0014 30.8563Z" stroke="#5E6C5B" stroke-width="2.5" stroke-linecap="round" stroke-linejoin="round"/>
</svg>
