<svg width="87" height="87" viewBox="0 0 87 87" fill="none" xmlns="http://www.w3.org/2000/svg">
<path d="M43.5008 87.0047C19.5141 87.0047 0 67.4891 0 43.5024C0 19.5157 19.5141 0 43.5008 0C45.7541 0 47.581 1.8269 47.581 4.08012C47.581 6.33335 45.7541 8.16025 43.5008 8.16025C24.0129 8.16025 8.15872 24.0144 8.15872 43.5024C8.15872 62.9903 24.0129 78.8445 43.5008 78.8445C62.9888 78.8445 78.8429 62.9903 78.8429 43.5024C78.8429 41.2491 80.6699 39.4222 82.9231 39.4222C85.1763 39.4222 87.0032 41.2491 87.0032 43.5024C87.0032 67.4891 67.4875 87.0047 43.5008 87.0047Z" fill="#5E6C5B"/>
<path d="M84.7812 11.463C70.4461 24.8546 59.2523 41.3167 52.2248 59.281C51.1628 61.9975 48.8542 64.046 46.0238 64.7447C45.9869 64.754 45.9499 64.7632 45.913 64.7724C42.096 65.7267 38.096 64.126 36.0197 60.7831C29.9757 51.0515 23.3622 43.4053 19.71 39.5006C18.2063 37.8938 18.1647 35.676 20.2241 34.3169C24.809 31.2911 30.6144 32.664 34.8946 37.2504C37.0955 39.6083 39.9567 42.7696 42.0468 45.2276C51.1628 32.6578 63.0554 19.3847 75.0187 9.26056C77.549 7.11814 80.9427 6.56254 83.9285 7.5691C85.5923 8.13241 86.0648 10.264 84.7812 11.463Z" fill="#5E6C5B"/>
</svg>
