<svg width="40" height="40" viewBox="0 0 40 40" fill="none" xmlns="http://www.w3.org/2000/svg">
<path d="M27.9167 22.4993C28.8372 22.4993 29.5833 21.7532 29.5833 20.8327C29.5833 19.9122 28.8372 19.166 27.9167 19.166C26.9962 19.166 26.25 19.9122 26.25 20.8327C26.25 21.7532 26.9962 22.4993 27.9167 22.4993Z" fill="white"/>
<path d="M27.9167 29.1673C28.8372 29.1673 29.5833 28.4212 29.5833 27.5007C29.5833 26.5802 28.8372 25.834 27.9167 25.834C26.9962 25.834 26.25 26.5802 26.25 27.5007C26.25 28.4212 26.9962 29.1673 27.9167 29.1673Z" fill="white"/>
<path d="M22.0833 20.8327C22.0833 21.7532 21.3372 22.4993 20.4167 22.4993C19.4962 22.4993 18.75 21.7532 18.75 20.8327C18.75 19.9122 19.4962 19.166 20.4167 19.166C21.3372 19.166 22.0833 19.9122 22.0833 20.8327Z" fill="white"/>
<path d="M22.0833 27.5007C22.0833 28.4212 21.3372 29.1673 20.4167 29.1673C19.4962 29.1673 18.75 28.4212 18.75 27.5007C18.75 26.5802 19.4962 25.834 20.4167 25.834C21.3372 25.834 22.0833 26.5802 22.0833 27.5007Z" fill="white"/>
<path d="M12.0827 22.4993C13.0032 22.4993 13.7493 21.7532 13.7493 20.8327C13.7493 19.9122 13.0032 19.166 12.0827 19.166C11.1622 19.166 10.416 19.9122 10.416 20.8327C10.416 21.7532 11.1622 22.4993 12.0827 22.4993Z" fill="white"/>
<path d="M12.0827 29.1673C13.0032 29.1673 13.7493 28.4212 13.7493 27.5007C13.7493 26.5802 13.0032 25.834 12.0827 25.834C11.1622 25.834 10.416 26.5802 10.416 27.5007C10.416 28.4212 11.1622 29.1673 12.0827 29.1673Z" fill="white"/>
<path fill-rule="evenodd" clip-rule="evenodd" d="M12.0536 3.33398C12.7119 3.33398 13.2455 3.86698 13.2455 4.52446V5.73513C14.2975 5.71492 15.4565 5.71492 16.7312 5.71494H23.2673C24.5421 5.71492 25.7012 5.71492 26.7532 5.73513V4.52446C26.7532 3.86698 27.2869 3.33398 27.9451 3.33398C28.6033 3.33398 29.1369 3.86698 29.1369 4.52446V5.8373C29.55 5.86876 29.9412 5.9083 30.3113 5.958C32.1744 6.20821 33.6825 6.73538 34.8719 7.92325C36.061 9.11114 36.5888 10.6174 36.8394 12.4784C37.0827 14.2867 37.0827 16.5972 37.0827 19.5141V22.868C37.0827 25.7849 37.0827 28.0956 36.8394 29.9038C36.5888 31.7648 36.061 33.2711 34.8719 34.4591C33.6825 35.6468 32.1744 36.174 30.3113 36.4243C28.501 36.6673 26.1878 36.6673 23.2674 36.6673H16.7314C13.811 36.6673 11.4977 36.6673 9.68734 36.4243C7.82419 36.174 6.31617 35.6468 5.1269 34.4591C3.93765 33.2711 3.40986 31.7648 3.15938 29.9038C2.91597 28.0956 2.91598 25.7851 2.91602 22.868V19.5143C2.91598 16.5972 2.91597 14.2867 3.15938 12.4784C3.40986 10.6174 3.93765 9.11114 5.1269 7.92325C6.31617 6.73538 7.82419 6.20821 9.68734 5.958C10.0575 5.9083 10.4487 5.86876 10.8618 5.8373V4.52446C10.8618 3.86698 11.3954 3.33398 12.0536 3.33398ZM10.005 8.31773C8.40614 8.53243 7.48499 8.93508 6.81245 9.60684C6.1399 10.2786 5.73678 11.1987 5.52184 12.7957C5.48543 13.0661 5.455 13.3508 5.42954 13.6514H34.5691C34.5437 13.3508 34.5132 13.0661 34.4768 12.7957C34.2619 11.1987 33.8588 10.2786 33.1863 9.60684C32.5137 8.93508 31.5925 8.53243 29.9938 8.31773C28.3606 8.09841 26.2078 8.09589 23.1776 8.09589H16.8211C13.7908 8.09589 11.6381 8.09841 10.005 8.31773ZM5.29974 19.6038C5.29974 18.2483 5.30025 17.0684 5.32054 16.0324H34.6781C34.6985 17.0684 34.699 18.2483 34.699 19.6038V22.7784C34.699 25.8051 34.6964 27.9554 34.4768 29.5867C34.2619 31.1835 33.8588 32.1037 33.1863 32.7754C32.5137 33.4472 31.5925 33.8499 29.9938 34.0645C28.3606 34.2838 26.2078 34.2864 23.1776 34.2864H16.8211C13.7908 34.2864 11.6381 34.2838 10.005 34.0645C8.40614 33.8499 7.48499 33.4472 6.81245 32.7754C6.1399 32.1037 5.73678 31.1835 5.52184 29.5867C5.30226 27.9554 5.29974 25.8051 5.29974 22.7784V19.6038Z" fill="white"/>
</svg>
