<svg width="40" height="40" viewBox="0 0 40 40" fill="none" xmlns="http://www.w3.org/2000/svg">
<g clip-path="url(#clip0_2294_27027)">
<path d="M25.7126 21.4286C32.8134 21.4286 38.5698 18.8702 38.5698 15.7143C38.5698 12.5584 32.8134 10 25.7126 10C18.6118 10 12.8555 12.5584 12.8555 15.7143C12.8555 18.8702 18.6118 21.4286 25.7126 21.4286Z" stroke="#5E6C5B" stroke-width="2.5" stroke-linecap="round" stroke-linejoin="round"/>
<path d="M12.8555 15.7148V32.8577C12.8555 36.0006 18.5698 38.572 25.7126 38.572C32.8555 38.572 38.5698 36.0006 38.5698 32.8577V15.7148" stroke="#5E6C5B" stroke-width="2.5" stroke-linecap="round" stroke-linejoin="round"/>
<path d="M38.5698 24.2852C38.5698 27.428 32.8555 29.9994 25.7126 29.9994C18.5698 29.9994 12.8555 27.428 12.8555 24.2852" stroke="#5E6C5B" stroke-width="2.5" stroke-linecap="round" stroke-linejoin="round"/>
<path d="M25.4277 4.28652C22.0891 2.22616 18.203 1.2297 14.2849 1.42937C7.17059 1.42937 1.42773 4.0008 1.42773 7.14366C1.42773 8.82937 3.08488 10.3437 5.71345 11.4294" stroke="#5E6C5B" stroke-width="2.5" stroke-linecap="round" stroke-linejoin="round"/>
<path d="M5.71345 28.5731C3.08488 27.4874 1.42773 25.9731 1.42773 24.2874V7.14453" stroke="#5E6C5B" stroke-width="2.5" stroke-linecap="round" stroke-linejoin="round"/>
<path d="M5.71345 20.0006C3.08488 18.9148 1.42773 17.4006 1.42773 15.7148" stroke="#5E6C5B" stroke-width="2.5" stroke-linecap="round" stroke-linejoin="round"/>
</g>
<defs>
<clipPath id="clip0_2294_27027">
<rect width="40" height="40" fill="white"/>
</clipPath>
</defs>
</svg>
