<svg width="37" height="36" viewBox="0 0 37 36" fill="none" xmlns="http://www.w3.org/2000/svg">
<rect x="0.200195" width="36" height="36" rx="10" fill="#FF7700"/>
<path d="M19 17.4023C20.66 17.4023 22.16 16.7223 23.24 15.6423C24.32 14.5623 25 13.0623 25 11.4023C25 9.74234 24.32 8.24234 23.24 7.16234C22.16 6.08234 20.66 5.40234 19 5.40234C17.34 5.40234 15.84 6.08234 14.76 7.16234C13.68 8.24234 13 9.74234 13 11.4023C13 13.0623 13.68 14.5623 14.76 15.6423C15.84 16.7223 17.36 17.4023 19 17.4023ZM17.08 9.46234C17.58 8.96234 18.26 8.66234 19 8.66234C19.76 8.66234 20.44 8.96234 20.92 9.46234C21.42 9.96234 21.72 10.6423 21.72 11.3823C21.72 12.1423 21.42 12.8223 20.92 13.3023C20.42 13.8023 19.74 14.1023 19 14.1023C18.24 14.1023 17.56 13.8023 17.08 13.3023C16.58 12.8023 16.28 12.1223 16.28 11.3823C16.28 10.6423 16.6 9.96234 17.08 9.46234Z" fill="white"/>
<path d="M25.9436 20.0604L24.3211 17.5277C24.2289 17.38 24.0445 17.3589 23.9339 17.4855C22.4035 18.984 20.5228 19.9549 18.4946 19.9549C16.4664 19.9549 14.5857 18.984 13.0553 17.4855C12.9447 17.38 12.7603 17.4011 12.6681 17.5277L11.0455 20.0604C10.9718 20.1871 10.9902 20.3559 11.0824 20.4614C12.4468 21.7278 14.0325 22.5931 15.692 23.0364L12.2624 29.9591C12.1702 30.1491 12.2993 30.4023 12.4837 30.4023H15.8395C15.9501 30.4023 16.0423 30.339 16.0792 30.2124L18.4761 24.0917L20.8731 30.2124C20.91 30.3179 21.0022 30.4023 21.1128 30.4023H24.4686C24.6714 30.4023 24.782 30.1702 24.6898 29.9591L21.2603 23.0364C22.9198 22.5931 24.5055 21.7489 25.8699 20.4614C26.0174 20.3559 26.0358 20.1871 25.9436 20.0604Z" fill="white"/>
</svg>
