<svg width="48" height="48" viewBox="0 0 48 48" fill="none" xmlns="http://www.w3.org/2000/svg">
<path d="M15.4291 44.5731C23.0033 44.5731 29.1434 38.433 29.1434 30.8588C29.1434 23.2846 23.0033 17.1445 15.4291 17.1445C7.85494 17.1445 1.71484 23.2846 1.71484 30.8588C1.71484 38.433 7.85494 44.5731 15.4291 44.5731Z" stroke="#5E6C5B" stroke-width="2.5" stroke-linecap="round" stroke-linejoin="round"/>
<path d="M32.5737 44.5731C40.1479 44.5731 46.2879 38.433 46.2879 30.8588C46.2879 23.2846 40.1479 17.1445 32.5737 17.1445C24.9995 17.1445 18.8594 23.2846 18.8594 30.8588C18.8594 38.433 24.9995 44.5731 32.5737 44.5731Z" stroke="#5E6C5B" stroke-width="2.5" stroke-linecap="round" stroke-linejoin="round"/>
<path d="M23.9994 30.8583C31.5736 30.8583 37.7137 24.7182 37.7137 17.144C37.7137 9.56978 31.5736 3.42969 23.9994 3.42969C16.4253 3.42969 10.2852 9.56978 10.2852 17.144C10.2852 24.7182 16.4253 30.8583 23.9994 30.8583Z" stroke="#5E6C5B" stroke-width="2.5" stroke-linecap="round" stroke-linejoin="round"/>
</svg>
