<svg width="48" height="48" viewBox="0 0 48 48" fill="none" xmlns="http://www.w3.org/2000/svg">
<path d="M21.1177 30.0011C26.7984 30.0011 31.4035 25.396 31.4035 19.7154C31.4035 14.0348 26.7984 9.42969 21.1177 9.42969C15.4371 9.42969 10.832 14.0348 10.832 19.7154C10.832 25.396 15.4371 30.0011 21.1177 30.0011Z" stroke="white" stroke-width="2.5" stroke-linecap="round" stroke-linejoin="round"/>
<path d="M21.1172 37.7148V46.2863" stroke="white" stroke-width="2.5" stroke-linecap="round" stroke-linejoin="round"/>
<path d="M15.9766 46.2852H26.2623" stroke="white" stroke-width="2.5" stroke-linecap="round" stroke-linejoin="round"/>
<path d="M21.1189 1.71484C24.0501 1.71523 26.9369 2.43146 29.5284 3.80129C32.1198 5.17113 34.3376 7.15311 35.9888 9.575C37.64 11.9969 38.6748 14.7854 39.0032 17.6982C39.3316 20.6109 38.9437 23.5599 37.8732 26.2886C36.8027 29.0174 35.082 31.4434 32.8606 33.3559C30.6392 35.2683 27.9844 36.6094 25.1268 37.2624C22.2692 37.9155 19.2954 37.8608 16.4638 37.1031C13.6322 36.3454 11.0285 34.9077 8.87891 32.9148" stroke="white" stroke-width="2.5" stroke-linecap="round" stroke-linejoin="round"/>
</svg>
