<svg width="48" height="48" viewBox="0 0 48 48" fill="none" xmlns="http://www.w3.org/2000/svg">
<path d="M30.6641 10.6667V17.3333H37.3307L43.9974 10.6667H37.3307V4L30.6641 10.6667Z" fill="white"/>
<path d="M30.6649 17.3333L25.1094 22.8889M30.6649 17.3333V10.6667L37.3316 4V10.6667H43.9983L37.3316 17.3333H30.6649Z" stroke="white" stroke-width="2" stroke-linecap="round" stroke-linejoin="round"/>
<path d="M24.7333 4H24C20.0444 4 16.1776 5.17298 12.8886 7.37061C9.59962 9.56824 7.03617 12.6918 5.52242 16.3463C4.00867 20.0009 3.6126 24.0222 4.3843 27.9018C5.15601 31.7814 7.06082 35.3451 9.85787 38.1421C12.6549 40.9392 16.2186 42.844 20.0982 43.6157C23.9778 44.3874 27.9992 43.9913 31.6537 42.4776C35.3082 40.9638 38.4318 38.4004 40.6294 35.1114C42.827 31.8224 44 27.9556 44 24C44 23.7556 44 23.5111 44 23.2667" stroke="white" stroke-width="2" stroke-linecap="round" stroke-linejoin="round"/>
<path d="M34.8917 26.2205C34.4897 28.187 33.5626 30.0078 32.2089 31.4897C30.8551 32.9715 29.1252 34.059 27.203 34.6365C25.2808 35.2141 23.238 35.2602 21.2917 34.77C19.3453 34.2797 17.5682 33.2714 16.1489 31.8522C14.7297 30.4329 13.7213 28.6557 13.2311 26.7094C12.7408 24.7631 12.7869 22.7203 13.3645 20.7981C13.9421 18.8758 15.0296 17.146 16.5114 15.7922C17.9932 14.4384 19.8141 13.5113 21.7806 13.1094" stroke="white" stroke-width="2" stroke-linecap="round" stroke-linejoin="round"/>
</svg>
