<svg width="48" height="48" viewBox="0 0 48 48" fill="none" xmlns="http://www.w3.org/2000/svg">
<g clip-path="url(#clip0_2466_30996)">
<path d="M44.2631 18.8545H3.73737C1.81737 18.8545 0.99451 16.763 2.50308 15.7688L22.7659 2.50019C23.14 2.28011 23.5662 2.16406 24.0002 2.16406C24.4343 2.16406 24.8604 2.28011 25.2345 2.50019L45.4974 15.7688C47.0059 16.763 46.1831 18.8545 44.2631 18.8545Z" stroke="#5E6C5B" stroke-width="2.5" stroke-linecap="round" stroke-linejoin="round"/>
<path d="M44.572 37.7109H3.42913C2.48236 37.7109 1.71484 38.4784 1.71484 39.4252V44.5681C1.71484 45.5149 2.48236 46.2824 3.42913 46.2824H44.572C45.5188 46.2824 46.2863 45.5149 46.2863 44.5681V39.4252C46.2863 38.4784 45.5188 37.7109 44.572 37.7109Z" stroke="#5E6C5B" stroke-width="2.5" stroke-linecap="round" stroke-linejoin="round"/>
<path d="M6.85938 18.8516V37.7087" stroke="#5E6C5B" stroke-width="2.5" stroke-linecap="round" stroke-linejoin="round"/>
<path d="M15.4297 18.8516V37.7087" stroke="#5E6C5B" stroke-width="2.5" stroke-linecap="round" stroke-linejoin="round"/>
<path d="M24 18.8516V37.7087" stroke="#5E6C5B" stroke-width="2.5" stroke-linecap="round" stroke-linejoin="round"/>
<path d="M32.5703 18.8516V37.7087" stroke="#5E6C5B" stroke-width="2.5" stroke-linecap="round" stroke-linejoin="round"/>
<path d="M41.1445 18.8516V37.7087" stroke="#5E6C5B" stroke-width="2.5" stroke-linecap="round" stroke-linejoin="round"/>
</g>
<defs>
<clipPath id="clip0_2466_30996">
<rect width="48" height="48" fill="white"/>
</clipPath>
</defs>
</svg>
