<svg width="48" height="48" viewBox="0 0 48 48" fill="none" xmlns="http://www.w3.org/2000/svg">
<g clip-path="url(#clip0_2466_30984)">
<path d="M42.856 1.71484H11.9989C10.1053 1.71484 8.57031 3.24987 8.57031 5.14342V12.0006C8.57031 13.8941 10.1053 15.4291 11.9989 15.4291H42.856C44.7496 15.4291 46.2846 13.8941 46.2846 12.0006V5.14342C46.2846 3.24987 44.7496 1.71484 42.856 1.71484Z" stroke="#5E6C5B" stroke-width="2.5" stroke-linecap="round" stroke-linejoin="round"/>
<path d="M27.4291 32.5703V29.1417C27.4291 27.3231 26.7067 25.579 25.4207 24.293C24.1348 23.007 22.3906 22.2846 20.572 22.2846H8.57199C6.75336 22.2846 5.00922 21.5622 3.72325 20.2762C2.43729 18.9902 1.71484 17.2461 1.71484 15.4275V11.9989C1.71484 11.0896 2.07607 10.2175 2.71905 9.57452C3.36203 8.93154 4.2341 8.57031 5.14341 8.57031H8.57199" stroke="#5E6C5B" stroke-width="2.5" stroke-linecap="round" stroke-linejoin="round"/>
<path d="M22.2852 46.2846V35.9989C22.2852 35.0896 22.6464 34.2175 23.2894 33.5745C23.9323 32.9315 24.8044 32.5703 25.7137 32.5703H29.1423C30.0516 32.5703 30.9237 32.9315 31.5667 33.5745C32.2096 34.2175 32.5709 35.0896 32.5709 35.9989V46.2846" stroke="#5E6C5B" stroke-width="2.5" stroke-linecap="round" stroke-linejoin="round"/>
</g>
<defs>
<clipPath id="clip0_2466_30984">
<rect width="48" height="48" fill="white"/>
</clipPath>
</defs>
</svg>
