<svg width="28" height="28" viewBox="0 0 28 28" fill="none" xmlns="http://www.w3.org/2000/svg">
<g clip-path="url(#clip0_1757_21174)">
<path d="M24.2605 19.6028H22.9491V13.9201C22.9491 13.4939 22.6868 13.2098 22.2934 13.2098C21.9 13.2098 21.6378 13.494 21.6378 13.9201H12.4581C12.4581 13.4939 12.1958 13.2098 11.8024 13.2098C11.409 13.2098 11.1468 13.494 11.1468 13.9201V19.6028H9.83537C9.44195 19.6028 9.17971 19.8869 9.17971 20.3131V22.444C9.17971 22.8703 9.44201 23.1544 9.83537 23.1544C9.83537 23.9357 9.83537 25.2143 9.83537 25.9957H7.21259V24.575C7.21259 24.1488 6.95028 23.8647 6.55692 23.8647V21.0234C6.55692 20.5972 6.29461 20.3131 5.90125 20.3131C5.50788 20.3131 5.24558 20.5972 5.24558 21.0234V24.575C5.24558 25.0012 5.50788 25.2853 5.90125 25.2853V25.9957H3.27846V25.2853C3.67188 25.2853 3.93413 25.0012 3.93413 24.575V21.0234C3.93413 20.5972 4.19643 20.3131 4.5898 20.3131C4.98316 20.3131 5.24547 20.0289 5.24547 19.6028V7.38504C6.03231 7.10088 6.55686 6.31952 6.55686 5.39611V4.6858C6.55686 4.25959 6.29456 3.97549 5.90119 3.97549C5.50782 3.97549 5.24552 4.25965 5.24552 4.6858V5.39611C5.24552 5.82232 4.98322 6.10641 4.58985 6.10641C4.19649 6.10641 3.93418 5.82226 3.93418 5.39611V3.26518H5.90125H6.55692C6.95034 3.26518 7.21259 2.98102 7.21259 2.55487C7.21259 2.12873 6.95028 1.84457 6.55692 1.84457H5.90125H5.24552V1.13414C5.24552 0.707927 4.98322 0.423828 4.58985 0.423828C4.19649 0.423828 3.93418 0.707988 3.93418 1.13414V1.84444H3.27846H2.62273C2.22931 1.84444 1.96706 2.1286 1.96706 2.55475C1.96706 2.9809 2.22936 3.26506 2.62273 3.26506V5.39605C2.62273 6.31946 3.14728 7.10082 3.93413 7.38498V19.0344C3.14728 19.3185 2.62273 20.0999 2.62273 21.0233V23.8646C2.22931 23.8646 1.96706 24.1488 1.96706 24.5749V25.9956H0.655669C0.262301 25.9957 0 26.2799 0 26.7061C0 27.1323 0.262301 27.4164 0.655669 27.4164H2.62273H6.55686H17.7036C18.097 27.4164 18.3592 27.1322 18.3592 26.7061C18.3592 26.2799 18.0969 25.9958 17.7036 25.9958H11.1467V23.0834C11.1467 22.231 11.1467 21.7338 10.491 21.7338V21.0235H23.6048C23.6048 21.4497 23.8671 21.7338 24.2605 21.7338C24.6539 21.7338 24.9162 21.4496 24.9162 21.0235V20.3132C24.9162 19.8869 24.6539 19.6028 24.2605 19.6028ZM21.6378 19.6028H12.4581V18.1821H21.6378V19.6028ZM21.6378 16.7614H12.4581V15.3407H21.6378V16.7614Z" fill="#5E6C5B"/>
<path d="M20.1198 21.584H11.896C11.5435 21.584 11.3086 21.8386 11.3086 22.2203C11.3086 22.6022 11.5436 22.8567 11.896 22.8567H20.1198C20.4722 22.8567 20.7072 22.6021 20.7072 22.2203C20.7072 21.8386 20.4722 21.584 20.1198 21.584Z" fill="#5E6C5B"/>
<path d="M23.9063 22.7324C22.8561 22.7324 21.8677 23.2678 21.2499 24.2047C21.1264 24.2047 20.9411 24.1378 20.8175 24.1378C19.5202 24.1378 18.4082 25.2755 18.4082 26.7478C18.4082 27.1494 18.6553 27.417 19.0259 27.417H26.5626C26.9332 27.417 27.1803 27.1493 27.1803 26.7478V26.2794C27.1804 24.3386 25.6978 22.7324 23.9063 22.7324ZM19.8909 26.0786C20.1997 25.6102 20.7557 25.3425 21.3117 25.6102C21.6206 25.744 21.9912 25.6102 22.1148 25.2756C22.4854 24.5394 23.165 24.071 23.9063 24.071C24.9564 24.071 25.8213 24.941 25.9448 26.0787H19.8909V26.0786Z" fill="#5E6C5B"/>
</g>
<defs>
<clipPath id="clip0_1757_21174">
<rect width="28" height="28" fill="white"/>
</clipPath>
</defs>
</svg>
