<svg width="28" height="28" viewBox="0 0 28 28" fill="none" xmlns="http://www.w3.org/2000/svg">
<path d="M14 18.3742C17.866 18.3742 21 15.201 21 11.2867C21 7.3724 17.866 4.19922 14 4.19922C10.134 4.19922 7 7.3724 7 11.2867C7 15.201 10.134 18.3742 14 18.3742Z" stroke="#5E6C5B" stroke-width="1.3" stroke-miterlimit="10" stroke-linecap="round" stroke-linejoin="round"/>
<path d="M7 10.5C5.5125 10.15 4.375 8.75 4.375 7C4.375 5.075 5.95 3.5 7.875 3.5C9.0125 3.5 10.0625 4.1125 10.675 4.9875" stroke="#5E6C5B" stroke-width="1.3" stroke-miterlimit="10" stroke-linecap="round" stroke-linejoin="round"/>
<path d="M17.3242 4.9875C17.9367 4.1125 18.9867 3.5 20.1242 3.5C22.0492 3.5 23.6242 5.075 23.6242 7.0875C23.6242 8.75 22.4867 10.15 20.9992 10.5875" stroke="#5E6C5B" stroke-width="1.3" stroke-miterlimit="10" stroke-linecap="round" stroke-linejoin="round"/>
<path d="M12.25 10.5V11.375" stroke="#5E6C5B" stroke-width="1.3" stroke-miterlimit="10" stroke-linecap="round" stroke-linejoin="round"/>
<path d="M15.75 10.5V11.375" stroke="#5E6C5B" stroke-width="1.3" stroke-miterlimit="10" stroke-linecap="round" stroke-linejoin="round"/>
<path d="M14 12.25V14" stroke="#5E6C5B" stroke-width="1.3" stroke-miterlimit="10" stroke-linecap="round" stroke-linejoin="round"/>
<path d="M9.96625 23.9775C10.9252 23.0229 10.5694 21.1108 9.17158 19.7066C7.77376 18.3024 5.86322 17.938 4.90428 18.8926C3.94534 19.8472 4.30113 21.7594 5.69895 23.1636C7.09677 24.5677 9.00731 24.9322 9.96625 23.9775Z" stroke="#5E6C5B" stroke-width="1.3" stroke-miterlimit="10" stroke-linecap="round" stroke-linejoin="round"/>
<path d="M22.3005 23.1684C23.6983 21.7642 24.0541 19.8521 23.0952 18.8975C22.1362 17.9428 20.2257 18.3073 18.8279 19.7114C17.43 21.1156 17.0742 23.0278 18.0332 23.9824C18.9921 24.937 20.9027 24.5726 22.3005 23.1684Z" stroke="#5E6C5B" stroke-width="1.3" stroke-miterlimit="10" stroke-linecap="round" stroke-linejoin="round"/>
<path d="M7.875 18.7246C7.875 18.6371 7.875 18.4621 7.875 18.3746C7.875 17.4121 8.1375 16.4496 8.4875 15.6621" stroke="#5E6C5B" stroke-width="1.3" stroke-miterlimit="10" stroke-linecap="round" stroke-linejoin="round"/>
<path d="M17.6742 23.2754C16.6242 24.0629 15.3992 24.5004 13.9992 24.5004C12.5992 24.5004 11.3742 24.0629 10.3242 23.2754" stroke="#5E6C5B" stroke-width="1.3" stroke-miterlimit="10" stroke-linecap="round" stroke-linejoin="round"/>
<path d="M19.5117 15.6621C19.9492 16.4496 20.1242 17.4121 20.1242 18.3746C20.1242 18.4621 20.1242 18.6371 20.1242 18.7246" stroke="#5E6C5B" stroke-width="1.3" stroke-miterlimit="10" stroke-linecap="round" stroke-linejoin="round"/>
<path d="M5.425 18.6375C5.3375 18.2875 5.25 17.85 5.25 17.5C5.25 15.75 6.2125 14.2625 7.525 14" stroke="#5E6C5B" stroke-width="1.3" stroke-miterlimit="10" stroke-linecap="round" stroke-linejoin="round"/>
<path d="M20.4746 14C21.7871 14.175 22.7496 15.6625 22.7496 17.5C22.7496 17.85 22.6621 18.2875 22.5746 18.6375" stroke="#5E6C5B" stroke-width="1.3" stroke-miterlimit="10" stroke-linecap="round" stroke-linejoin="round"/>
<path d="M8.75 15.75C8.75 13.825 11.1125 12.25 14 12.25C16.8875 12.25 19.25 13.825 19.25 15.75" stroke="#5E6C5B" stroke-width="1.3" stroke-miterlimit="10" stroke-linecap="round" stroke-linejoin="round"/>
</svg>
