<svg width="48" height="48" viewBox="0 0 48 48" fill="none" xmlns="http://www.w3.org/2000/svg">
<path fill-rule="evenodd" clip-rule="evenodd" d="M19.7941 5.71786C19.8118 6.49432 19.1968 7.13814 18.4203 7.15589C13.1297 7.27685 10.6378 7.81053 8.99301 9.45532C7.92353 10.5248 7.30991 11.9717 6.98728 14.3713C6.65923 16.8113 6.65625 20.0175 6.65625 24.4812C6.65625 28.9447 6.65923 32.1509 6.98728 34.5911C7.30991 36.9907 7.92353 38.4374 8.99301 39.5069C10.0625 40.5764 11.5094 41.1901 13.909 41.5128C16.349 41.8407 19.5552 41.8437 24.0189 41.8437C28.4824 41.8437 31.6886 41.8407 34.1287 41.5128C36.5284 41.1901 37.9751 40.5764 39.0446 39.5069C40.6896 37.8622 41.2232 35.3703 41.3441 30.0796C41.3619 29.3032 42.0056 28.6882 42.7821 28.706C43.5585 28.7236 44.1737 29.3675 44.1559 30.1439C44.0374 35.3309 43.5701 38.9591 41.0334 41.4957C39.3542 43.1748 37.215 43.9357 34.5036 44.3002C31.8544 44.6562 28.4591 44.6562 24.1264 44.6562H23.9113C19.5786 44.6562 16.1833 44.6562 13.5342 44.3002C10.8228 43.9357 8.68341 43.1748 7.00427 41.4957C5.32511 39.8167 4.56441 37.6773 4.19987 34.9659C3.84371 32.3167 3.84373 28.9214 3.84375 24.5887V24.3736C3.84373 20.0409 3.84371 16.6456 4.19987 13.9965C4.56441 11.2851 5.32511 9.14572 7.00427 7.46658C9.54094 4.92991 13.169 4.46272 18.356 4.34413C19.1325 4.32637 19.7763 4.94141 19.7941 5.71786ZM33.8636 7.15625C29.727 7.15625 26.3833 10.4944 26.3833 14.6001C26.3833 15.522 26.5948 16.3305 26.8117 16.9142C26.9194 17.2037 27.0257 17.4303 27.1014 17.5786C27.1391 17.6525 27.1689 17.7062 27.1869 17.7378L27.2046 17.7681C27.552 18.3216 27.4699 19.0419 27.0069 19.503L16.2563 30.2096C16.2286 30.2371 16.1753 30.3005 16.1259 30.389C16.0775 30.4758 16.0484 30.5589 16.037 30.6286C16.0266 30.6922 16.0303 30.7443 16.047 30.7962C16.0634 30.8472 16.1092 30.9517 16.2563 31.0981L17.4454 32.2824C17.481 32.3088 17.5363 32.345 17.6062 32.3791C17.6977 32.4239 17.7864 32.4521 17.8617 32.4633C17.9331 32.4738 17.9809 32.4678 18.0148 32.4577C18.0433 32.4491 18.1061 32.4249 18.1982 32.3332L19.6448 30.8924C20.1935 30.3459 21.0808 30.3459 21.6294 30.8924C21.8451 31.1069 22.0247 31.1964 22.1527 31.2354C22.2821 31.2749 22.4104 31.2791 22.5426 31.2537C22.8356 31.1977 23.1021 31.0038 23.2247 30.8487C23.3944 30.6037 23.3889 30.3909 23.3077 30.1482C23.2626 30.0138 23.1977 29.8925 23.1411 29.8032C23.1139 29.7603 23.0916 29.7297 23.0796 29.714C23.0764 29.7097 23.0726 29.7048 23.0726 29.7048C22.6044 29.1462 22.6402 28.3209 23.1581 27.8051L23.5714 27.3935C24.1202 26.8471 25.0074 26.8471 25.5561 27.3935C26.2761 28.1105 26.7532 28.1015 26.9831 28.058C27.3079 27.9963 27.6103 27.7629 27.7706 27.5564C27.9817 27.2542 27.9827 26.9842 27.9234 26.7359C27.8908 26.5998 27.8402 26.4809 27.7974 26.3973C27.7766 26.3568 27.7599 26.3287 27.7517 26.3156L27.7498 26.3127L27.6964 26.2381L27.6469 26.1395C27.6291 26.1039 27.6006 26.0609 27.5096 25.9606C27.5066 25.9572 27.501 25.9514 27.4931 25.9432C27.4237 25.8701 27.1796 25.6134 27.0298 25.3445C26.7733 24.8847 26.7022 24.3252 26.9248 23.7537C27.0962 23.3135 27.4125 22.9507 27.7046 22.6597L28.9446 21.4248C29.4585 20.9131 30.2771 20.876 30.8351 21.3391C31.0594 21.5253 31.5382 21.7259 32.2215 21.8675C32.8633 22.0002 33.5006 22.0441 33.8636 22.0441C38.0002 22.0441 41.3437 18.7059 41.3437 14.6001C41.3437 10.4944 38.0002 7.15625 33.8636 7.15625ZM26.1536 30.8306C26.0951 31.3653 25.9048 31.9379 25.4998 32.5025L25.4902 32.5158L25.4803 32.5289C24.9786 33.1953 24.1144 33.8163 23.0717 34.016C22.3346 34.1572 21.5473 34.079 20.7962 33.7151L20.1829 34.3259C19.3347 35.1706 18.3219 35.3742 17.4505 35.2454C16.649 35.1271 15.9881 34.7381 15.5909 34.3991C15.5636 34.3756 15.5371 34.3512 15.5116 34.3259L14.2717 33.0911C13.3681 32.1911 13.1046 31.1339 13.2613 30.1749C13.4037 29.3041 13.8712 28.6156 14.2717 28.2168L24.3052 18.2242C24.2625 18.1211 24.219 18.0111 24.1757 17.8946C23.8761 17.089 23.5708 15.9423 23.5708 14.6001C23.5708 8.93028 28.1844 4.34375 33.8636 4.34375C39.5426 4.34375 44.1562 8.93028 44.1562 14.6001C44.1562 20.27 39.5426 24.8566 33.8636 24.8566C33.3309 24.8566 32.5011 24.7974 31.6513 24.6215C31.2 24.5281 30.6776 24.389 30.1704 24.1734L29.898 24.4447C29.9707 24.5461 30.045 24.6616 30.1153 24.7914C30.1232 24.8036 30.1316 24.8167 30.1402 24.8307C30.1845 24.902 30.2406 24.9978 30.3006 25.115C30.4191 25.3464 30.5621 25.6779 30.6589 26.0819C30.8569 26.9103 30.8589 28.0766 30.0463 29.2094L30.0367 29.2227L30.027 29.2359C29.5646 29.8497 28.6948 30.5958 27.5072 30.8212C27.0641 30.9052 26.61 30.9108 26.1536 30.8306ZM33.8636 12.9191C32.9227 12.9191 32.1699 13.6772 32.1699 14.6001C32.1699 15.5231 32.9227 16.2812 33.8636 16.2812C34.8043 16.2812 35.5573 15.5231 35.5573 14.6001C35.5573 13.6772 34.8043 12.9191 33.8636 12.9191ZM29.3574 14.6001C29.3574 12.113 31.3804 10.1066 33.8636 10.1066C36.3469 10.1066 38.3698 12.113 38.3698 14.6001C38.3698 17.0873 36.3469 19.0937 33.8636 19.0937C31.3804 19.0937 29.3574 17.0873 29.3574 14.6001Z" fill="#5E6C5B"/>
</svg>
