<svg width="28" height="28" viewBox="0 0 28 28" fill="none" xmlns="http://www.w3.org/2000/svg">
<g clip-path="url(#clip0_1757_21189)">
<path d="M23.8322 20.4901C23.5468 20.3556 23.2062 20.4784 23.072 20.7639C22.817 21.306 22.2671 21.6563 21.6711 21.6563C21.0749 21.6563 20.525 21.3061 20.2702 20.764C20.1761 20.5637 19.9746 20.4357 19.7532 20.4357C19.5318 20.4357 19.3303 20.5636 19.2361 20.7639C18.981 21.306 18.4312 21.6563 17.8352 21.6563C17.239 21.6563 16.6891 21.3061 16.4343 20.764C16.3401 20.5637 16.1387 20.4357 15.9172 20.4357C15.9172 20.4357 15.9172 20.4357 15.9172 20.4357C15.6958 20.4357 15.4944 20.5636 15.4001 20.7639C15.1452 21.306 14.5953 21.6563 13.9993 21.6563C13.4031 21.6563 12.8532 21.3061 12.5985 20.7641C12.5043 20.5637 12.3029 20.4358 12.0814 20.4357C12.0814 20.4357 12.0814 20.4357 12.0814 20.4357C11.8599 20.4357 11.6585 20.5636 11.5642 20.7639C11.3092 21.306 10.7594 21.6563 10.1633 21.6563C9.56712 21.6563 9.0173 21.3061 8.76262 20.7641C8.66845 20.5637 8.46698 20.4358 8.24555 20.4357C8.2455 20.4357 8.2455 20.4357 8.24544 20.4357C8.02407 20.4357 7.82265 20.5635 7.72837 20.7639C7.47337 21.306 6.92349 21.6563 6.32745 21.6563C5.73125 21.6563 5.18137 21.3061 4.92658 20.764C4.79238 20.4785 4.452 20.3556 4.16637 20.49C3.88079 20.6242 3.75802 20.9646 3.89233 21.2502C4.33453 22.1912 5.29047 22.7992 6.32745 22.7992C7.05703 22.7992 7.74658 22.498 8.24533 21.9917C8.74403 22.4981 9.43352 22.7992 10.1634 22.7992C10.893 22.7992 11.5826 22.498 12.0813 21.9917C12.58 22.4981 13.2695 22.7992 13.9994 22.7992C14.7289 22.7992 15.4185 22.498 15.9172 21.9917C16.4159 22.4981 17.1054 22.7992 17.8352 22.7992C18.5649 22.7992 19.2544 22.498 19.7532 21.9917C20.2519 22.4981 20.9414 22.7992 21.6712 22.7992C22.7079 22.7992 23.6637 22.1912 24.1062 21.2503C24.2405 20.9648 24.1179 20.6244 23.8322 20.4901Z" fill="#5E6C5B"/>
<path d="M27.6709 17.4554C27.3853 17.3215 27.045 17.4445 26.911 17.7303C26.6567 18.2727 26.106 18.6231 25.5079 18.6231C24.9117 18.6231 24.3618 18.2729 24.1071 17.7309C24.0129 17.5305 23.8115 17.4026 23.59 17.4025C23.59 17.4025 23.59 17.4025 23.5899 17.4025C23.3686 17.4025 23.1671 17.5304 23.0729 17.7307C22.8179 18.2729 22.268 18.6231 21.6719 18.6231C21.0757 18.6231 20.5259 18.2729 20.2711 17.7309C20.177 17.5305 19.9755 17.4025 19.7541 17.4025C19.5327 17.4025 19.3312 17.5304 19.2369 17.7307C18.9819 18.2729 18.4321 18.6231 17.8361 18.6231C17.278 18.6231 16.7606 18.3162 16.4877 17.8324C16.4175 14.6421 13.9822 12.026 10.8724 11.6772V9.47182C10.8724 9.15622 10.6165 8.90039 10.3009 8.90039C9.98538 8.90039 9.7295 9.15622 9.7295 9.47182V11.6525C6.49021 11.8739 3.91296 14.549 3.84061 17.8322C3.56772 18.3161 3.05027 18.6231 2.49235 18.6231C1.89407 18.6231 1.34321 18.2726 1.08897 17.7303C0.955036 17.4446 0.614881 17.3216 0.32903 17.4553C0.0432893 17.5893 -0.079757 17.9296 0.0541174 18.2153C0.495553 19.1573 1.45253 19.7659 2.49213 19.7659C3.22171 19.7659 3.91127 19.4648 4.41001 18.9585C4.90876 19.4648 5.59826 19.7659 6.32806 19.7659C7.05765 19.7659 7.7472 19.4648 8.24594 18.9585C8.74464 19.4648 9.43414 19.7659 10.164 19.7659C10.8936 19.7659 11.5832 19.4647 12.0819 18.9585C12.5806 19.4648 13.2701 19.7659 14 19.7659C14.7296 19.7659 15.4191 19.4648 15.9178 18.9585C16.4166 19.4648 17.1061 19.7659 17.8359 19.7659C18.5655 19.7659 19.255 19.4648 19.7538 18.9585C20.2525 19.4648 20.942 19.7659 21.6718 19.7659C22.4014 19.7659 23.091 19.4647 23.5897 18.9585C24.0885 19.4648 24.778 19.7659 25.5078 19.7659C26.5472 19.7659 27.5041 19.1573 27.9457 18.2153C28.0798 17.9296 27.9567 17.5894 27.6709 17.4554ZM14.0002 18.6232C13.4039 18.6232 12.8541 18.273 12.5994 17.731C12.5052 17.5306 12.3037 17.4026 12.0823 17.4026C12.0823 17.4026 12.0823 17.4026 12.0823 17.4026C11.8608 17.4026 11.6594 17.5305 11.5651 17.7308C11.3101 18.2729 10.7602 18.6232 10.1642 18.6232C9.56801 18.6232 9.01818 18.273 8.76351 17.731C8.66933 17.5306 8.46787 17.4026 8.24644 17.4026C8.24638 17.4026 8.24638 17.4026 8.24633 17.4026C8.02495 17.4026 7.82354 17.5304 7.72926 17.7307C7.47425 18.2729 6.92432 18.6232 6.32834 18.6232C5.77249 18.6232 5.25734 18.3187 4.98358 17.8383C5.05565 15.0369 7.35192 12.7802 10.1643 12.7802C12.9766 12.7802 15.2728 15.0368 15.345 17.8382C15.0711 18.3186 14.5559 18.6232 14.0002 18.6232Z" fill="#5E6C5B"/>
<path d="M14.1742 5.87345C13.2434 4.94273 11.8523 4.747 10.7272 5.28507C10.7827 4.57436 11.2409 3.92462 11.9524 3.66228C12.2485 3.55307 12.4 3.22451 12.2909 2.92843C12.1816 2.63225 11.853 2.4812 11.557 2.58997C10.4246 3.00762 9.69113 4.03552 9.59046 5.16476C9.26561 5.04784 8.91966 4.98681 8.56436 4.98681C7.75657 4.98681 6.99691 5.3017 6.42516 5.87356C6.20203 6.09674 6.20203 6.45855 6.42516 6.68173C6.64828 6.90475 7.01009 6.90475 7.23327 6.68168C7.58923 6.32572 8.06195 6.12966 8.56441 6.12966C8.62462 6.12966 8.68434 6.13262 8.74357 6.13819C7.86398 6.66795 7.27434 7.63203 7.27434 8.73157C7.27434 9.04712 7.53022 9.303 7.84577 9.303C8.16137 9.303 8.41719 9.04712 8.41719 8.73157C8.41719 7.89267 8.96877 7.18048 9.72827 6.93794V7.64237C9.72827 7.95791 9.98415 8.2138 10.2997 8.2138C10.6153 8.2138 10.8711 7.95791 10.8711 7.64237V6.93794C11.6306 7.18048 12.1822 7.89267 12.1822 8.73157C12.1822 9.04712 12.4381 9.303 12.7536 9.303C13.0692 9.303 13.3251 9.04712 13.3251 8.73157C13.3251 7.63296 12.7364 6.66948 11.858 6.13945C12.3972 6.08903 12.9542 6.26966 13.3662 6.68168C13.5894 6.90475 13.9512 6.90475 14.1743 6.68168C14.3973 6.45839 14.3973 6.09663 14.1742 5.87345Z" fill="#5E6C5B"/>
<path d="M27.4291 2.12109C26.7427 2.12109 26.1263 2.42433 25.7053 2.90329C25.2843 2.42428 24.6679 2.12109 23.9816 2.12109C23.666 2.12109 23.4102 2.37692 23.4102 2.69252C23.4102 3.00812 23.666 3.26395 23.9816 3.26395C24.6169 3.26395 25.1339 3.78091 25.1339 4.41626C25.1339 4.73181 25.3898 4.98769 25.7053 4.98769C26.0209 4.98769 26.2768 4.73181 26.2768 4.41626C26.2768 3.78091 26.7937 3.26395 27.4291 3.26395C27.7447 3.26395 28.0005 3.00807 28.0005 2.69252C28.0004 2.37698 27.7446 2.12109 27.4291 2.12109Z" fill="#5E6C5B"/>
<path d="M21.0365 4.48438C20.3502 4.48438 19.7337 4.78762 19.3127 5.26657C18.8918 4.78756 18.2753 4.48438 17.589 4.48438C17.2735 4.48438 17.0176 4.74026 17.0176 5.0558C17.0176 5.37135 17.2734 5.62723 17.589 5.62723C18.2244 5.62723 18.7413 6.14419 18.7413 6.77955C18.7413 7.09509 18.9972 7.35097 19.3127 7.35097C19.6283 7.35097 19.8842 7.09509 19.8842 6.77955C19.8842 6.14419 20.4011 5.62723 21.0365 5.62723C21.3521 5.62723 21.6079 5.37135 21.6079 5.0558C21.6079 4.74026 21.3521 4.48438 21.0365 4.48438Z" fill="#5E6C5B"/>
<path d="M24.7631 8.66992C24.0767 8.66992 23.4603 8.97316 23.0393 9.45211C22.6183 8.97311 22.0019 8.66992 21.3156 8.66992C21 8.66992 20.7441 8.9258 20.7441 9.24135C20.7441 9.55689 21 9.81278 21.3156 9.81278C21.9509 9.81278 22.4679 10.3297 22.4679 10.9651C22.4679 11.2806 22.7238 11.5365 23.0393 11.5365C23.3549 11.5365 23.6107 11.2806 23.6107 10.9651C23.6107 10.3297 24.1277 9.81278 24.7631 9.81278C25.0787 9.81278 25.3345 9.55689 25.3345 9.24135C25.3345 8.9258 25.0787 8.66992 24.7631 8.66992Z" fill="#5E6C5B"/>
<path d="M19.9963 23.5701C19.7109 23.4357 19.3703 23.5584 19.236 23.844C18.981 24.3861 18.4312 24.7364 17.8351 24.7364C17.2389 24.7364 16.6891 24.3862 16.4343 23.8441C16.3401 23.6438 16.1386 23.5158 15.9172 23.5158H15.9171C15.6958 23.5158 15.4943 23.6436 15.4 23.844C15.1451 24.3861 14.5953 24.7364 13.9993 24.7364C13.403 24.7364 12.8531 24.3862 12.5984 23.8442C12.5043 23.6438 12.3028 23.5158 12.0814 23.5158H12.0813C11.8599 23.5158 11.6584 23.6436 11.5642 23.844C11.3092 24.3861 10.7593 24.7364 10.1633 24.7364C9.56707 24.7364 9.01725 24.3862 8.76257 23.8442C8.62836 23.5586 8.28783 23.4359 8.00236 23.57C7.71673 23.7043 7.59401 24.0447 7.72821 24.3302C8.17041 25.2712 9.12624 25.8793 10.1633 25.8793C10.8929 25.8793 11.5825 25.578 12.0812 25.0718C12.5799 25.5782 13.2694 25.8793 13.9993 25.8793C14.7288 25.8793 15.4184 25.5781 15.9171 25.0718C16.4158 25.5782 17.1053 25.8793 17.8351 25.8793C18.8718 25.8793 19.8276 25.2712 20.2701 24.3304C20.4045 24.0449 20.2819 23.7045 19.9963 23.5701Z" fill="#5E6C5B"/>
</g>
<defs>
<clipPath id="clip0_1757_21189">
<rect width="28" height="28" fill="white"/>
</clipPath>
</defs>
</svg>
