<svg width="36" height="36" viewBox="0 0 36 36" fill="none" xmlns="http://www.w3.org/2000/svg">
<g clip-path="url(#clip0_1310_19094)">
<mask id="mask0_1310_19094" style="mask-type:luminance" maskUnits="userSpaceOnUse" x="0" y="0" width="36" height="36">
<path d="M36 0H0V36H36V0Z" fill="white"/>
</mask>
<g mask="url(#mask0_1310_19094)">
<path d="M36 0H0V36H36V0Z" fill="#100943"/>
<path d="M36 18C45.9412 18 54 9.94113 54 9.53674e-06C54 -9.94113 45.9412 -18 36 -18C26.0589 -18 18 -9.94113 18 9.53674e-06C18 9.94113 26.0589 18 36 18Z" fill="#ED143B"/>
<path d="M22.2724 17.1261H11.5481V13.1513H16.9103H22.2724C22.8989 13.1513 23.3344 13.2536 23.553 13.4321C23.7716 13.6107 23.907 13.942 23.907 14.4259V15.8531C23.907 16.3629 23.7716 16.6942 23.553 16.8728C23.3344 17.0513 22.8989 17.1277 22.2724 17.1277V17.1261ZM23.0082 9.40386H7V26.4023H11.5481V20.872H19.9299L23.907 26.4023H29L24.615 20.8461C26.2317 20.6217 26.9576 20.1577 27.5562 19.3929C28.1549 18.6282 28.4552 17.4055 28.4552 15.7737V14.4992C28.4552 13.5314 28.3458 12.7666 28.1549 12.1805C27.9641 11.5943 27.6379 11.0845 27.1745 10.6265C26.6852 10.193 26.1403 9.88775 25.4861 9.6832C24.832 9.50463 24.0147 9.40234 23.0082 9.40234V9.40386Z" fill="white"/>
</g>
</g>
<defs>
<clipPath id="clip0_1310_19094">
<rect width="36" height="36" rx="10" fill="white"/>
</clipPath>
</defs>
</svg>
