<svg width="13" height="12" viewBox="0 0 13 12" fill="none" xmlns="http://www.w3.org/2000/svg">
<path fill-rule="evenodd" clip-rule="evenodd" d="M6.99999 3C7.55229 3 7.99999 2.55228 7.99999 2C7.99999 1.44771 7.55229 1 6.99999 1C6.44774 1 5.99999 1.44771 5.99999 2C5.99999 2.55228 6.44774 3 6.99999 3ZM6.02639 3.30278C6.19204 3.21996 6.38994 3.23549 6.54064 3.34314L7.04064 3.70028C7.19969 3.8139 7.27794 4.00979 7.24099 4.20174L6.71659 6.9235L8.91604 10.2226C9.06919 10.4524 9.00714 10.7628 8.77734 10.916C8.54759 11.0692 8.23714 11.0071 8.08399 10.7774L5.77079 7.3076L5.36304 6.69595C5.29167 6.5889 5.26432 6.45845 5.28668 6.3317L5.58494 4.64154L4.69231 5.08785L4.4064 6.5167C4.35221 6.7875 4.08878 6.96305 3.81801 6.9089C3.54723 6.8547 3.37165 6.59125 3.42583 6.3205L3.75972 4.6519C3.78999 4.50062 3.88841 4.37178 4.0264 4.30278L6.02639 3.30278ZM8.84189 6.47435L7.40464 5.99525L7.59544 5.0048L9.15813 5.52565C9.42008 5.613 9.56169 5.89615 9.47434 6.1581C9.38704 6.4201 9.10389 6.5617 8.84189 6.47435ZM3.56421 10.2549L5.19817 7.35005L5.35478 7.58495L5.82049 8.28345L4.43578 10.7451C4.3004 10.9858 3.99554 11.0711 3.75487 10.9358C3.51419 10.8004 3.42883 10.4956 3.56421 10.2549Z" fill="white"/>
</svg>
