<svg width="13" height="12" viewBox="0 0 13 12" fill="none" xmlns="http://www.w3.org/2000/svg">
<g clip-path="url(#clip0_1421_17227)">
<path d="M11.9375 5.25C11.8672 5.13281 11.1732 4.83305 11.1732 4.83305C11.2939 4.7707 11.3764 4.75781 11.3764 4.5C11.3764 4.21875 11.375 4.125 11.1875 4.125H10.5514C10.5488 4.11937 10.546 4.11352 10.5434 4.10766C10.1328 3.21094 10.0777 2.9843 9.46531 2.67914C8.64383 2.27062 7.10375 2.25 6.5 2.25C5.89625 2.25 4.35617 2.27062 3.53539 2.67914C2.92227 2.98383 2.9375 3.14062 2.45727 4.10766C2.45727 4.11023 2.45234 4.11703 2.44789 4.125H1.81109C1.625 4.125 1.62359 4.21875 1.62359 4.5C1.62359 4.75781 1.70609 4.7707 1.8268 4.83305C1.8268 4.83305 1.15625 5.15625 1.0625 5.25C0.96875 5.34375 0.875 6 0.875 7.125C0.875 8.25 0.96875 9.375 0.96875 9.375H1.24859C1.24859 9.70312 1.29688 9.75 1.4375 9.75H3.3125C3.45312 9.75 3.5 9.70312 3.5 9.375H9.5C9.5 9.70312 9.54688 9.75 9.6875 9.75H11.6094C11.7031 9.75 11.75 9.67969 11.75 9.375H12.0312C12.0312 9.375 12.125 8.22656 12.125 7.125C12.125 6.02344 12.0078 5.36719 11.9375 5.25ZM3.43578 6.30328C3.00892 6.34995 2.57987 6.37389 2.15047 6.375C1.67187 6.375 1.65547 6.4057 1.62172 6.10687C1.60903 5.9701 1.61305 5.83229 1.63367 5.69648L1.64844 5.625H1.71875C2 5.625 2.26414 5.63695 2.76289 5.78391C3.01656 5.86002 3.25515 5.97944 3.46812 6.13687C3.57031 6.21094 3.59375 6.28125 3.59375 6.28125L3.43578 6.30328ZM9.22859 7.99078L9.125 8.25H3.875C3.875 8.25 3.88414 8.2357 3.75781 7.98797C3.66406 7.80469 3.78125 7.6875 3.96664 7.62094C4.3257 7.49156 5.375 7.125 6.5 7.125C7.625 7.125 8.69516 7.44094 9.04297 7.62094C9.17188 7.6875 9.33195 7.73438 9.22859 7.99219V7.99078ZM3.20516 4.79086C3.12945 4.79524 3.05357 4.79578 2.97781 4.7925C3.03898 4.68375 3.07297 4.56258 3.13273 4.43602C3.32023 4.03758 3.53469 3.58664 3.91648 3.39656C4.4682 3.12187 5.61172 2.99812 6.5 2.99812C7.38828 2.99812 8.5318 3.12094 9.08352 3.39656C9.46531 3.58664 9.67883 4.03781 9.86727 4.43602C9.9275 4.56375 9.96102 4.68586 10.0238 4.79531C9.97695 4.79789 9.92305 4.79531 9.79437 4.79086H3.20516ZM11.3548 6.10594C11.3047 6.39844 11.3516 6.375 10.8495 6.375C10.4201 6.37389 9.99108 6.34995 9.56422 6.30328C9.49742 6.29133 9.47844 6.17859 9.53187 6.13687C9.74376 5.97767 9.98268 5.85809 10.2371 5.78391C10.7359 5.63695 11.0166 5.61727 11.2939 5.62711C11.3125 5.62782 11.3302 5.63539 11.3436 5.64838C11.357 5.66136 11.3651 5.67883 11.3663 5.69742C11.3796 5.83385 11.3757 5.9714 11.3548 6.10687V6.10594Z" fill="white"/>
</g>
<defs>
<clipPath id="clip0_1421_17227">
<rect width="12" height="12" fill="white" transform="translate(0.5)"/>
</clipPath>
</defs>
</svg>
