<svg width="13" height="12" viewBox="0 0 13 12" fill="none" xmlns="http://www.w3.org/2000/svg">
<path d="M12.374 5.68411C12.1749 5.48554 11.2971 4.63869 10.5077 4.3403C10.8543 3.57072 10.8763 2.35087 10.8769 2.0702C10.8774 1.83299 10.6671 1.62315 10.4299 1.62369C10.1492 1.62369 8.92951 1.64624 8.16001 1.99292C7.86112 1.20349 7.01434 0.324951 6.81579 0.126385C6.64837 -0.0421283 6.35109 -0.0421283 6.1842 0.126385C5.98565 0.324951 5.13942 1.20349 4.83999 1.99292C4.07049 1.64624 2.85077 1.62369 2.57012 1.62369C2.33294 1.62315 2.12258 1.83353 2.12312 2.0702C2.12365 2.35141 2.14619 3.57126 2.49231 4.3403C1.70295 4.63922 0.824517 5.48608 0.62597 5.68411C0.45801 5.85155 0.45801 6.14833 0.62597 6.31577C0.824517 6.51433 1.70295 7.36066 2.49231 7.66012C2.14566 8.42916 2.12312 9.64953 2.12312 9.93021C2.12312 10.1674 2.33294 10.3773 2.57012 10.3767C2.8513 10.3762 4.07049 10.3542 4.83999 10.0075C5.13942 10.7969 5.98565 11.6749 6.1842 11.874C6.35162 12.042 6.64837 12.042 6.81579 11.874C7.01434 11.6749 7.86058 10.7969 8.16001 10.0075C8.92951 10.3542 10.1492 10.3762 10.4299 10.3767C10.6671 10.3773 10.8774 10.1674 10.8769 9.93021C10.8763 9.64899 10.8543 8.4297 10.5077 7.66012C11.2971 7.3612 12.1749 6.51433 12.374 6.31577C12.542 6.14833 12.542 5.85101 12.374 5.68411ZM8.36339 2.9015C8.55066 2.7142 9.26866 2.57574 9.96786 2.53174C9.92332 3.23101 9.78541 3.94853 9.5976 4.13636C9.25739 4.47715 8.70413 4.47715 8.36339 4.13636C8.02317 3.79558 8.02317 3.24174 8.36339 2.9015ZM7.93034 6.0002C7.93034 6.7891 7.28855 7.43096 6.49973 7.43096C5.71091 7.43096 5.06858 6.7891 5.06858 6.0002C5.06858 5.2113 5.71038 4.56892 6.49973 4.56892C7.28909 4.56892 7.93034 5.2113 7.93034 6.0002ZM6.49973 1.09508C6.96283 1.62101 7.37226 2.22583 7.37226 2.49148C7.37226 2.97287 6.98054 3.3641 6.49973 3.3641C6.01839 3.3641 5.6272 2.97233 5.6272 2.49148C5.6272 2.22637 6.03717 1.62101 6.49973 1.09508ZM4.63661 2.9015C4.97683 3.24174 4.97682 3.79504 4.63607 4.13582C4.29586 4.47661 3.74207 4.47661 3.40186 4.13582C3.21458 3.94853 3.07667 3.23047 3.0316 2.53066C3.7308 2.57574 4.44826 2.71366 4.63661 2.9015ZM1.59509 5.99966C2.12097 5.53652 2.72627 5.12705 2.99135 5.12705C3.4727 5.12705 3.86389 5.51881 3.86389 6.0002C3.86389 6.48159 3.47216 6.87282 2.99135 6.87282C2.7268 6.87282 2.12205 6.4628 1.59509 5.99966ZM4.63661 9.09784C4.44934 9.28514 3.73134 9.42306 3.0316 9.4676C3.07614 8.76832 3.21405 8.05081 3.40186 7.86297C3.74207 7.52273 4.29532 7.52273 4.63607 7.86297C4.97682 8.20429 4.97683 8.75813 4.63661 9.09784ZM6.49973 10.9048C6.03717 10.3794 5.6272 9.77405 5.6272 9.5084C5.6272 9.02701 6.01839 8.63578 6.49973 8.63578C6.98108 8.63578 7.37226 9.02754 7.37226 9.5084C7.3728 9.77351 6.96283 10.3783 6.49973 10.9048ZM8.36339 9.09784C8.02317 8.75813 8.02317 8.2043 8.36339 7.86351C8.7036 7.52327 9.25739 7.52327 9.5976 7.86351C9.78488 8.05027 9.92279 8.76887 9.96786 9.46868C9.26866 9.42414 8.5512 9.28567 8.36339 9.09784ZM10.0076 6.87282C9.52676 6.87282 9.13504 6.48105 9.13504 6.0002C9.13504 5.51881 9.52676 5.12705 10.0076 5.12705C10.2727 5.12705 10.8774 5.53706 11.4044 6.0002C10.8785 6.46334 10.2737 6.87282 10.0076 6.87282Z" fill="white"/>
</svg>
