<svg width="33" height="32" viewBox="0 0 33 32" fill="none" xmlns="http://www.w3.org/2000/svg">
<g clip-path="url(#clip0_1343_19913)">
<mask id="mask0_1343_19913" style="mask-type:luminance" maskUnits="userSpaceOnUse" x="0" y="-1" width="70" height="33">
<path d="M69.1222 -0.09375H0.5V31.9062H69.1222V-0.09375Z" fill="white"/>
</mask>
<g mask="url(#mask0_1343_19913)">
<path d="M0.743164 15.2866C0.743164 8.10065 0.743164 4.48896 2.97006 2.26205C5.21567 0.0351564 8.80865 0.0351562 15.9946 0.0351562H17.2671C24.4531 0.0351562 28.0648 0.0351564 30.2917 2.26205C32.5186 4.48896 32.5186 8.10065 32.5186 15.2866V16.5591C32.5186 23.7451 32.5186 27.3568 30.2917 29.5837C28.0648 31.8106 24.4531 31.8106 17.2671 31.8106H15.9946C8.80865 31.8106 5.19696 31.8106 2.97006 29.5837C0.743164 27.3568 0.743164 23.7638 0.743164 16.5591V15.2866Z" fill="#28A8E9"/>
</g>
<path fill-rule="evenodd" clip-rule="evenodd" d="M8.80584 15.0897C13.4702 13.0576 16.5804 11.7178 18.1367 11.0705C22.58 9.22238 23.5033 8.90134 24.1051 8.89074C24.2375 8.88841 24.5334 8.92121 24.7251 9.07676C24.887 9.2081 24.9315 9.38553 24.9528 9.51006C24.9742 9.63459 25.0007 9.91827 24.9796 10.1399C24.7388 12.6699 23.6969 18.8095 23.1669 21.6431C22.9426 22.8421 22.501 23.2441 22.0734 23.2835C21.1443 23.369 20.4387 22.6694 19.5388 22.0795C18.1306 21.1564 17.335 20.5818 15.9681 19.681C14.3884 18.64 15.4125 18.0679 16.3128 17.1328C16.5484 16.8881 20.6422 13.1644 20.7214 12.8266C20.7314 12.7844 20.7406 12.6269 20.647 12.5438C20.5534 12.4606 20.4154 12.489 20.3157 12.5116C20.1745 12.5437 17.9249 14.0306 13.5668 16.9724C12.9283 17.4109 12.3499 17.6245 11.8317 17.6133C11.2604 17.601 10.1615 17.2903 9.34456 17.0248C8.34256 16.6991 7.54619 16.5269 7.61554 15.9737C7.65166 15.6856 8.04842 15.3909 8.80584 15.0897Z" fill="white"/>
</g>
<defs>
<clipPath id="clip0_1343_19913">
<rect width="32" height="32" fill="white" transform="translate(0.5)"/>
</clipPath>
</defs>
</svg>
