<svg width="33" height="32" viewBox="0 0 33 32" fill="none" xmlns="http://www.w3.org/2000/svg">
<rect x="0.5" width="32" height="32" rx="10" fill="#25D366"/>
<path d="M26.1106 15.1369C26.0219 12.7512 25.0144 10.4944 23.3057 8.83406C21.597 7.17372 19.308 6.23878 16.9223 6.22266H16.874C15.27 6.22266 13.6903 6.64177 12.2879 7.43164C10.8935 8.22956 9.72484 9.37407 8.90274 10.7523C8.08869 12.1386 7.6454 13.7022 7.61316 15.3142C7.58092 16.9181 7.97585 18.5059 8.74154 19.9164L7.92749 24.8087C7.92749 24.8168 7.92749 24.8329 7.92749 24.841C7.92749 24.849 7.93555 24.8571 7.94361 24.8651C7.95167 24.8732 7.95973 24.8813 7.96779 24.8813C7.97585 24.8893 7.98391 24.8893 8.00003 24.8893H8.01615L12.8521 23.8174C14.1014 24.4218 15.4715 24.7281 16.8578 24.7281C16.9465 24.7281 17.0351 24.7281 17.1238 24.7281C18.3408 24.6959 19.5498 24.4138 20.6621 23.9141C21.7744 23.4144 22.7818 22.697 23.612 21.8024C24.4422 20.9077 25.095 19.86 25.5222 18.7155C25.9574 17.571 26.1589 16.3539 26.1106 15.1369ZM17.0835 23.1161C17.011 23.1161 16.9384 23.1161 16.8659 23.1161C15.6408 23.1161 14.4318 22.826 13.3437 22.2618L13.0939 22.1328L9.80544 22.9066L10.4099 19.5859L10.2729 19.3441C9.60394 18.1996 9.24125 16.8939 9.22513 15.564C9.20901 14.2342 9.53947 12.9285 10.1843 11.7598C10.829 10.5992 11.764 9.62392 12.9004 8.93077C14.0369 8.23762 15.3345 7.85881 16.6563 7.81851C16.7289 7.81851 16.8014 7.81851 16.882 7.81851C18.8889 7.82657 20.8072 8.61644 22.2338 10.0269C23.6604 11.4374 24.4744 13.3476 24.5067 15.3545C24.5389 17.3614 23.7732 19.2958 22.3869 20.7465C21.0006 22.1973 19.0985 23.0436 17.0996 23.1081L17.0835 23.1161Z" fill="white"/>
<path d="M13.6497 11.0081C13.5369 11.0081 13.4241 11.0322 13.3193 11.0806C13.2145 11.129 13.1178 11.1934 13.0452 11.274C12.8276 11.4997 12.207 12.0478 12.1748 13.1842C12.1425 14.3287 12.9405 15.4571 13.0533 15.6183C13.1661 15.7795 14.5766 18.2458 16.914 19.2452C18.2842 19.8336 18.8806 19.9384 19.2755 19.9384C19.4367 19.9384 19.5576 19.9223 19.6866 19.9142C20.1138 19.89 21.0809 19.3984 21.2905 18.8584C21.5001 18.3184 21.5162 17.8509 21.4598 17.7622C21.4033 17.6655 21.2502 17.601 21.0245 17.4801C20.7988 17.3592 19.6705 16.7628 19.4609 16.6741C19.3803 16.6339 19.2997 16.6177 19.211 16.6097C19.1546 16.6097 19.0982 16.6258 19.0499 16.658C19.0015 16.6903 18.9612 16.7306 18.929 16.7709C18.7436 17.0046 18.3083 17.5124 18.1633 17.6575C18.131 17.6978 18.0907 17.7219 18.0504 17.7461C18.0101 17.7703 17.9618 17.7784 17.9134 17.7784C17.8248 17.7784 17.7361 17.7542 17.6555 17.7058C16.9785 17.4157 16.3579 17.0046 15.8259 16.4888C15.3342 16.0052 14.9151 15.449 14.5847 14.8365C14.4557 14.6028 14.5847 14.4819 14.6975 14.369C14.8104 14.2562 14.9393 14.1031 15.0602 13.9741C15.1569 13.8613 15.2375 13.7323 15.302 13.5953C15.3342 13.5308 15.3504 13.4583 15.3504 13.3938C15.3504 13.3212 15.3342 13.2568 15.2939 13.1923C15.2295 13.0714 14.8184 11.9108 14.625 11.4433C14.4638 11.0484 14.2784 11.0322 14.1172 11.0161C13.9802 11.0081 13.8271 11 13.6739 11L13.6497 11.0081Z" fill="white"/>
</svg>
